<mxfile host="Electron" agent="Mozilla/5.0 (X11; Linux x86_64) AppleWebKit/537.36 (KHTML, like Gecko) draw.io/25.0.1 Chrome/128.0.6613.186 Electron/32.2.6 Safari/537.36" version="25.0.1" pages="4">
  <diagram name="The Entire Lab" id="h9vkkYYaY2da0xItqU_H">
    <mxGraphModel dx="2548" dy="1196" grid="0" gridSize="10" guides="1" tooltips="1" connect="1" arrows="1" fold="1" page="1" pageScale="1" pageWidth="1100" pageHeight="850" math="0" shadow="0">
      <root>
        <mxCell id="0" />
        <mxCell id="1" parent="0" />
        <mxCell id="ctGknOU3to6DTLFT-ZeR-1" value="" style="group" vertex="1" connectable="0" parent="1">
          <mxGeometry x="-1038" y="124" width="486" height="72" as="geometry" />
        </mxCell>
        <mxCell id="ctGknOU3to6DTLFT-ZeR-2" value="" style="aspect=fixed;perimeter=ellipsePerimeter;html=1;align=center;fontSize=12;verticalAlign=top;shadow=0;dashed=0;image;image=img/lib/cumulus/switch_bare_metal_empty.svg;rounded=0;sketch=0;hachureGap=4;fillColor=#F45B69;strokeColor=#028090;fontColor=#E4FDE1;labelBackgroundColor=#114B5F;connectable=0;" vertex="1" parent="ctGknOU3to6DTLFT-ZeR-1">
          <mxGeometry width="288" height="72" as="geometry" />
        </mxCell>
        <mxCell id="ctGknOU3to6DTLFT-ZeR-3" value="" style="shape=image;imageAspect=0;aspect=fixed;verticalLabelPosition=bottom;verticalAlign=top;rounded=0;labelBackgroundColor=none;sketch=0;hachureGap=4;fontSize=30;fontColor=#1A1A1A;strokeColor=#028090;fillColor=#F45B69;image=https://upload.wikimedia.org/wikipedia/commons/thumb/b/b9/PfSense_logo.png/1200px-PfSense_logo.png;" vertex="1" parent="ctGknOU3to6DTLFT-ZeR-1">
          <mxGeometry x="35.42056074766355" y="17.49532710280374" width="125.78467289719626" height="37.00934579439252" as="geometry" />
        </mxCell>
        <mxCell id="ctGknOU3to6DTLFT-ZeR-4" value="wan" style="text;strokeColor=none;fillColor=none;html=1;align=center;verticalAlign=middle;whiteSpace=wrap;rounded=0;hachureGap=4;fontColor=#FF0000;fontStyle=1" vertex="1" parent="ctGknOU3to6DTLFT-ZeR-1">
          <mxGeometry x="157.00093457943922" y="36.99644859813083" width="53.13084112149532" height="20.186915887850468" as="geometry" />
        </mxCell>
        <mxCell id="ctGknOU3to6DTLFT-ZeR-5" value="ice2" style="text;strokeColor=none;fillColor=none;html=1;align=center;verticalAlign=middle;whiteSpace=wrap;rounded=0;hachureGap=4;fontColor=#0000FF;fontStyle=1" vertex="1" parent="ctGknOU3to6DTLFT-ZeR-1">
          <mxGeometry x="191.00457943925235" y="12.996448598130833" width="53.13084112149532" height="20.186915887850468" as="geometry" />
        </mxCell>
        <mxCell id="ctGknOU3to6DTLFT-ZeR-7" style="vsdxID=5;fillColor=none;gradientColor=none;image;aspect=fixed;image=data:image/jpg,/9j/4AAQSkZJRgABAQAAAQABAAD/4gHYSUNDX1BST0ZJTEUAAQEAAAHIAAAAAAQwAABtbnRyUkdCIFhZWiAH4AABAAEAAAAAAABhY3NwAAAAAAAAAAAAAAAAAAAAAAAAAAAAAAAAAAAAAQAA9tYAAQAAAADTLQAAAAAAAAAAAAAAAAAAAAAAAAAAAAAAAAAAAAAAAAAAAAAAAAAAAAAAAAAAAAAAAAAAAAlkZXNjAAAA8AAAACRyWFlaAAABFAAAABRnWFlaAAABKAAAABRiWFlaAAABPAAAABR3dHB0AAABUAAAABRyVFJDAAABZAAAAChnVFJDAAABZAAAAChiVFJDAAABZAAAAChjcHJ0AAABjAAAADxtbHVjAAAAAAAAAAEAAAAMZW5VUwAAAAgAAAAcAHMAUgBHAEJYWVogAAAAAAAAb6IAADj1AAADkFhZWiAAAAAAAABimQAAt4UAABjaWFlaIAAAAAAAACSgAAAPhAAAts9YWVogAAAAAAAA9tYAAQAAAADTLXBhcmEAAAAAAAQAAAACZmYAAPKnAAANWQAAE9AAAApbAAAAAAAAAABtbHVjAAAAAAAAAAEAAAAMZW5VUwAAACAAAAAcAEcAbwBvAGcAbABlACAASQBuAGMALgAgADIAMAAxADb/2wBDAAMCAgICAgMCAgIDAwMDBAYEBAQEBAgGBgUGCQgKCgkICQkKDA8MCgsOCwkJDRENDg8QEBEQCgwSExIQEw8QEBD/2wBDAQMDAwQDBAgEBAgQCwkLEBAQEBAQEBAQEBAQEBAQEBAQEBAQEBAQEBAQEBAQEBAQEBAQEBAQEBAQEBAQEBAQEBD/wAARCABEAskDASIAAhEBAxEB/8QAHQAAAQQDAQEAAAAAAAAAAAAABwACBggBBQkEA//EAF8QAAECBQMCAgQJBwYICgYLAAECAwAEBQYRBxIhCDETQSJRYdIUFRcjMnGBkdEJM0JTY5KTFkNyoaKxGCUnUmKC4vAkJjZ1hZWys8HhGVRXc5TCN0ZHVVZldIOE0/H/xAAZAQEBAQEBAQAAAAAAAAAAAAAAAQIDBAX/xAAwEQABBAAGAgEDAwMFAQAAAAABAAIDEQQSITFBURNxYRQigQWR8CMysSQzUqHR8f/aAAwDAQACEQMRAD8AvAqqTu9QM053I+lGBVJwcGZc/ejyOqIcXnHCj/fAxqPU9070eoP0uqa1WhLzco4pp9pdTb3NrScFJxxkH+6Noi38aT3B+EufvGEKnO/+tOfvQHR1X9NH/tzs3/rJEZPVf00pxnXOzh5j/GSO0Wj0iMSanPec05+8YyKnPDj4U5+9AdHVh00Hk652bj/nNES+ydTtPNS5aYnNPr2o1wsyqwh9VPm0PeEo9goDkZ8sjmJRRTMVSfHeac/egRan07qmqlymb0p1Tt6jUMsISJSfpgedS6Ppq34OQfL1QUAM8nMRy8L7pNlpYXVUvJbfUEhxDS3ACT5hAJiEgCyqASaCEpoHXW2krXrpZgA7k0YYA/cjDdJ63lPKlfl6slT6Rktijp3DgHkbc9iD9sbTWjqh0v0ntozl0zbsz8MQQzJsS77bryQoBW0uNgejnJ58oEun35QzQOt3OqnJp1UpztSccdVOTTZcCVEDDYCAVc4AGB/5cop4p2CWJwc08g2P3C3I10RyvFEdom/EHXR3VrhZgI8hRP8AZjC6L1xN7Q5rlZSdx2p3UbGT6vo9zEzc1zs5hUsibFQYdnFbJdpVNmd7qsZwkbOfXAw1t6y9I9NESElc0pWnppbqJkSjUqtlxKRkpWfESMpJB7c8Ryix2FnIbFK1xIsUQbA0JHYB09rLAZGeVgtu1ja+r7W5ZpfW3MlSWNdbHcKT6QTSAcckeSfWCPsMfQ0LrmCs/LXZWP8AmU+7EK0c67NC7unBbNIlKrIzailDAfllOuzjqiTtSGwSTnJ54g1Oa42ay8iSdbqwmVtF1DHxVMKWUA8nAT2zGpcZBA7JLIGmrokDQbn18qNOd4jbq47Dk/jdQddI63Gxsc1wslKsFXNHxhI7n6PlDWaT1tTTYcl9c7JdRkgqRSMjj6kxBtYOujQy0K+aFVpWvzc2yw9LPeBLllUupWApCkuAHdgA+rnziT6P9aOi+pMmafbErVpabZ3YkUyK3XC2kDLhKARjkck5jbp42R+ZzgG1d3pXd7Uj3eO8+lb2toaH1yZyNZ7KH/Q54/sx8nKf1tS6VeLrhYiC3gq3UnAGTgZynzJieI1usx55+Ulma2/MS20vst0h8qayMjdxgcRXDUD8oXoJTrjm6Q7Ra9PpYdZzMNNhtLobydu1XpAbioEH1RmLFQTktieHEUdCDodQdOxt2t5XBgkr7TseD6KKzdL64H0Jcb1osZaFDKVIpBII+sJjJo3XQAQnWOyM4OM0hXf92PXpT1X6W6p0RuoWqxVdzKEmYlmqc4v4IVE7UqKRtycZ49cSOd6gLDkKXOV15VWVT6cHFTUymlPltpKPpknHlnmOb/1DCxvMb5WhwoEFwsE7Ai+eO+FmMGZxZGLI3A1I+SoY9Kdbku3vc1tsBIyUqKqYQNwGSOU+Q5j7Gk9dO0eHq/YqgfP4pV7sBCZ/KH9PkhX5hYta4phQnHXV7thbcWoBG7afLaOB7eYstaHUbp1elvt3PQHKm/TClW6ZTTXfDQUgFaScfo+eI6zYmLDAOmeGgmtSBqdhryeAsOkawW4gKSaXq1uptHqCNXbxotVn1OZk3aZLKYQ03t53g4yd3P1QLqhTOtlmYccY18slmWWtZZ8SkJHog8D6PkMZiQXl1LabW1Zs7dFUarK6WJdWx34rfbbf3AhKAtQAG4ggE8ZivdH/ACjWgVQuCnMTdqV6VaLqmVOPbHGmvEUApxSRyrAycCLFiI5wTE4OANGiDR5GnIXV8b4jTxV9o0Jt7rs/S1ys3H/Mo9yPp8QddASCNcbNPkc0Xy/cidDXPTdVvMXOirzypKabS60pVKmEZSrscqSBz9cadvqX0wlAlFx1GapLiwVpBknZhJTkhJy0knkDPbjMSHExYgF0Lw4A1oQdRxpyuTXteLbRUbVRuuJCktr11skLV2SaMM55x+j7IwxTOt2a3fBtd7Ge28K2UcHHqz6PEQTWLrw0BtCvSrEumr3A+kFLrkmwuWDKkE4QpLyQo/TJyMRt9CetfR/UVlyhUGi1uTnpfARL/A1TD0whKcqcJbHAGfP18RuSVkTS+R1Abk6BUuDRbtFKfiLrlB/+m2y1f9C/7MfNVM63WgvxddLGRsSVKJpH0QO5Po8ROk64WY9MuyUpL12YmmAkvMNUd8uNZ7bhjjOYrRqX1+aFW/dNQoyaHcE+rCkPTDIDIKjtC0lCxuBBbxz6ifVHOLFQznLE8OIo6EHQ6g+jx2t5XBgkr7TseD6KLqKR1vTSfEltcbIWgcEpo+RkdxwmHmg9cQ3FOtdmK8kg0c47f0YZo/1c6Y6o0H4ZalHrTa2OH5RmnLe+D5JCdykjGVYz643FT6r9H6Qh1ycrM8hMuCp4ilTBDQA53Hb5eqNMxEUj3RMeC5tWARYvaxxfFrAe0ktFWFolU/raSDnXOxBghJzSvMnAH0fPyj6JpPXE8hDjOtVjuNuAKChSCQR6wQnGICVa/KKaESNXfp6LWrsy3KzgcS8hSQh/YTt4PISdxVg+uLFWT1J6dXlazFzUJiqfFhaytxFMdLTBAypJUBg7exI44hNiIsOA6V4aCa1NanjXlRz2t1cQFol0frkSkuL1mshIHJJpBAAxz+jHncletlkNlzW+wEpUojKqYRnHcD0e/MbC6+rLRWkUecXUa7MuS5aWyrFOmEpcUpKhsCinAJwRntAAo/5RHQr46lkrtCttJL60kzC0rbQXFjc4Ugc7ccAf1nEdLWrR3FJ66NxxrDYxHq+KFe7DXad1zNYU5rFYaUAgZVSlAf1piXSWv9hT9GZuNuYnkUt9sPNTjlNmEtrQexBKex8ogGo/WTolQbednJ2pzs4UKS6zLNSTzSpjYQSApxG3HYkHyjlFiIpwTE8OANGiDR5Brn4WWva8W0gou3JO6szOn0vSLfvyjSF8Ll2Sqfdl/ElluZ9MoaOfRVzjvAyFu9dvb5crNxnnFFHb9yBPYn5QrQarXRLSrlEqtN8ZpuWbmJsF1EulAO3AQkqJJwOB93MWOqGu9mUiVTO1aamJFleAgzFOmk7yccAeHz3HEH4iKN7Y3vAc66F6mt6HNfCF7QQ0nUqDqo3XJLgGa14sloK4AVRkjP3pjKaX1uqmDKI15shTqRygUgbx2J42+oj7xEV1m609E7cpko5OOVCruBagZWVZcYWlC0keIfGbwRxgY55jx6J9c2it/wB1P0KUp8/SJ6ecLrLs42t8urUQPDQGkKUOBnt5R0c8MBc40AqSALKn3xB1zAH/AC4Wb7CaJ/sxkUHrm/8AbdZn2UX/AGYmdwa22lRHkSTc4J2eWkLbYSw+0VDPPLjafLJ+zEeij65aaVmiTNwSdbm0ycmlanlqpUyoJCBlXKUEHAHrjg7G4ZkQmdIAw7GxRvo7LcLHzn+kM3rX/CHqpHrZQ0XTrzYm0FKSr4pGNx4AJ294+zVG64nUoeRrfZK0LTuCk0bIUD2IO2AdXPygPT/btcmqTI0O4KtLS04l1M0kpQiZ2A7VbSkEA7udwzwIsLp51RacahWuxcNvStX+CobSH0tUt5xEqrbuLZUkYJA9XEdJsRFh255nho7JAH/a5ue1gtxAWrNE64UZcd1ustKQCSTRsBPt+jHnXJ9a7SELVrvYYCzgKVS8AqAyQPRiUXb1BabUq1Jmu1mYqzNFca2LnkU14IAWdowop8zxnBEVolfyjGh7dVlWjZlaKZZa2Uha0FvKlAFZGPIDAA8j7BiRYiKe/E8Oo0aINEbg1z8Ls+N8VZ21euvSO4ofXNuydaLJx7KMc/8AZhjtJ642ElbutVipQONy6QQOfbtiR0HqV05uKks1umO1RdOmElTc4aTM+CrBwcK29s8ZjTax9SOmFiWsuavFVVZYfyZZsyDrZmloAX4aStBHbHcdo5jHYZzxEJW5iSKsXY3Fb2ORwsxgytc5gsN3I1A99fla8yXW0HG2hrhYfiOpBQk0zlWc9ht57H7jH1+JeujKwdYrH7ZT/ilXf92A7Yv5QXQN24JSR+JKxJpdQ3LpmJoeKmXSkH0glKckk+r7MRZZrXSy1fB/hKqlKpnMCXU/SZpHikjICfQ5JBziOkmJihIbI8AnayBdb1fXKxmGYN5O3yoUqm9cbIBf1lsNO7hO6kkZ/sxsrOR1dsXVJJvDVeyp6lNOhU9KSlPKZhbXGQk4BB5HPtiNa79V2k+m0jKLulirTE4h0OsSCZRyXW4g7klzc4nGAR2znmIjpD136K3pdj1ElKXVKfOVBxTrTz7Kn1uOLUkBlAQkn7f9H6oR4mKWLzMeCzewQRXd7LcjXREtkFEb3pSOuq8p1IVeqyr2kOpNDoMihgpmGKjTxMLW7u+kFYOBjjEQVyidc7CS49rtZaEggblUYAc8d9kTms67WDbiUqr9QmZBahlKHadMblDtwAg+qAzq7136GW6wiiTD1Rq3jrIfTJsLYcYUghQCvFR5+z1RYp48QwSQuDmnYg2D6IXNrg4Zm6hTJqg9cbraXE662YtChlKk0UEEfux9BQOuZQwdb7N4/wDyXv8A2Ij2hnWlpLqUgWvbsvUZSZlElEvLPsuPOvpAKlKHhoIAHnnHfiCfW+oHTu3VeFWa2JZ/AyyqSmiv7Qlo47iJ9TF5fBnGerqxdbXW9XymdubJYvpQ92k9bsuEmY12shsKyBvowHl/Rj6Cg9cuM/LdZn/Uv+zAp1X/ACgGhEtVGKG5K1KtyzI8dE1IEtIKyCCkhxAVkc+QH1wXtFuq/TXWej/C6DUUyEyyD4slNNTC3WkA7UqKm2lJ5xxzmNSzRwMMkrg1o3JND91XODRbtF8PiPrnyP8ALXZWPP8AxL/sw74i65dh/wAtllkk8f4l7f2Yk1T6grDoswpVRni5JNKLb0zLNOqLbmQEpKFpSecnnyx7Y014dYegNoUF+sv3dNzDrbalNSopEy2p5YTkIC1ICAe3OcRsODhYKoK1jdK623llpvXWx1uJPpBFJyQM4OQE+viPoaH1zBXGtFlYPbNHPuwGrN/KQ6FG5PA/kzcEkKm/mYnHihxLQJyo7UgEgeocnHmeYsr/AIQWnKKUzXJxdck5GYQHGX5ijPJS4kp3DH1jkeuOcmIiic1kjwC7QAmrPx3+FC9rSAeVDjReudKSVa1WRkefxOe3t9GPmzTOuCZTlnWuxHUggFTdJJHr7hMavUnru0MsekPOqmavPzRSgpk0yDjC3G1nbvCljGBEF0W68tB6nXBalLotwUz4xWlQcmEiYK3uEoQlKBnKiY2XBozE6Kl1alFD4k66fPWSyPbmkq92GmkddLaAtWslijAyoqpKsDH+rE3rGvmndvI/x7N1ORUpG9KXaY8VKTnBICQc4MBrVnr60FtiSXRHU1etGaK5abYZl3JZxkbQeSvB5B8oxBiIsTGJYXhzTsQbB9EaKNe14zNohS4U3rmcaC2tYrDcz5ilKI+/bBB0pTr/AEx2eOsd7UGstqSj4GKXKKYU2rJ3FZIAI7YgOaGdbuj2pcwbTt+m1mRmWtxlZZxgvrf5UtZGzsByeYJ9b6h9MrecXLViqTstMpxlg0yYUvkAjhKT3BHnGfqoRN9PnGery2Lra63q+dlM7S7JYvrlRy6aV1lmuT85b+tdoyNHcmFmUamaQCtpok7EKUUnJx55jXooXXSpKVjXKzClQyCKKD/8kDjVn8oJoHTp9mgLkazW2WimZD8olUv4TySRtKVjJI9oI5gj6IdW+mmrtF8O15apMPyCQhcm5LrdcbZThKXFKSNvJ+3jtGpsRFhozLM8NaNyTQH5KOeGDM7QL6igdcu041ws0q9XxL/sxhykdbzG3xtdbKbK1YSFUYDJ9mU8xJa11J6XW+p1FUry2VsJUp1PwCZJQE5CirDfGMGK93/+UK0CNyfBJijVqomlOYlpyVcLbboO1WQlQ9g7gKGOCI214eA5psFW7FhGQ0HrkH0tbrMP/Qn+zGRQeuTjGttmH15onf8AsxsdO+qOwNTKA3cFvmaUggfCWxJTDnwZZG7YtSGynOMHgniPrXOqnSG3kurqd1MNhkArPwSb2pJ7Aq8LEYZPHI90bXAubuAdR7HH5QPDiQKsLTGk9b6XRLua5WOlxf0Umj4UfqG32H7o+iqD1y4ATrZZY4/+5Tz/AGYCbv5SPREXWaqq0K2udTiVDnjZbKUlQCgkjj6aufbFnbd1yse6rcaumi16TekX0koV4E2MkcEZLOODxnOISzxQAGVwbZoWasngfPwhcG70FD1UHrkByNa7MPHY0c9/3YaKH10gH/LTZP8A1Mfdgx29cEvcNIFYlgPDUVgEE4VjzGQD94ivNR68bAp1Rmqcu2KmTKPuMLUX2UglJIJwVZ8o6XXKupOykSqV1xpWGflssXxD+gaQcn6htjKqL10HP+WWyPLA+KDj/swH6z+US0QpVyIq87aFyCfSkHKFoUggJKRxux2J7Y8okNO/KQ6VVKcp8qi1q4n4xdQy0ohvAK1BIyN3thfyr+FPVUbrr7J1kscnI5+KVdv3Ya5TeuZkjfrPYaUngb6URn70w/Urq4tTTS637Uqtuzz70u026p1t5tKSFpyBhRB84Fd2/lDNHUeCzXLZrWG1L2hpSCDlODkjPkYZuLUo9IpqpXXYFejq9YmPM/FKvdg0WTNX9KWxIy9+1yVqFeSg/C5iRbLTC1ZONqTyBjEVPa/KYaTPSqZz+TlXDbhKQcDOR7IsxpnqDStUrHpd9URpxqSqrRdZS6MKABI5H2RQbRTQ1SeI4mnP3jCNUnfOZc/ejxk5znsIwTwYqi9Zqs73+EuY/pGMfGk3/wCtOfvmPGVZIyOPqjG72D+uCKKavzUxKabXnMyrqmnmqNPqQ4kkKSQyvBB9ccRrItqlXM7VTV6tNyaJCRM02JaTMy7MPF1CA2E5GB6ZUVE8bfaI7aay5+TC9sHk0Wof9yuOF9OqlSpLpmaXPvyjyk7CtlwoUUnyJB7cDiPXhRusu20W2va36bbVbTIUmqP1CUdlWZlDz8qZdwFacqQpsk4KVZGc4OM+caqcwlMtnzYSf6zG0lGq3XqrJsMS81Wq9VnENSzZBfcWonahKUnJUongAwV9XulXqN0RtSTvTVCxUtUKaUhlx1t9qYEq4vlLb3hkllRJIHlnjOeI9n2tGUnVcrJOijmmHT7dWqVAnLhps7IyMu2X25Rcy8kJfeYbDrqCASpOGzkEjBPEGn8mHOTbPUPPyLMy4mXmrbmy82FEJWUOs7SR2OMnH1mKtfGtWpDBl6TWJ1iSmgXA22+pI54IIHBPGPbFnfyZJx1HzHf/AJNT3/eMxzxFZKrYfvr/AOKx3ZN7/wDS6t7vbiBZrtkW9OhskO/Fz6mdv0g4EqKce3OIJ+T5wLddkzC6DMGU3+OJF8tbU7iVhKikAeZziPkvALaK9DTRtcZ9QtUb81Am25K965Mz/wAXuLSyHzy2PMfbEakpx2Qm2pqTXscZWFoWOCCOQYllS0a1hmqhMTrmnVwFTrilkmnuAHJ79o+A0Z1gTj/J7Xh//CX+EcooYoIxFE0NaOAAB+wWpHvlcXyEknk6o7Wdqtq7dOl13XrPXLUpyetr4P8AF0xkksKwSojHnsSSfYIrve2ot3amVZus3pWHahNtNhlLjquQgdhBz0wtzVehaN3/AGy7bVTlXqoGTLSrskfEfUQptWwEZPoqUOIDo0N1gCsjTuuj65NY/wDCOUWDw0Dg6KNrSBQoAUCbIFDQXr7UaTHH4maN6G37bLUWxcVUtGsylwUCdVJz8i4HZd9vhTax2IPriyFQ1q1pktE6dqqi6Kl8bzFSek/h6sKCpcHbt7YCdwI+sQChonrGCANPa3n/APSKgtz1q6tTfTbTbB/k3UlTMtV3lGn/AAP55DRUV7jxnaVKPMamweHxBuaNrjVagHTrXj4UZcbxKzRw2I3H5QBuS66zelfmrkuScVN1GdXvfeX3Wr1n2xubH1Fu3TupqrFnVh6mzq2iyp1nglB7j7Y+ydDtX0DcNPq0MeuWMO+RnWBIP/EKs+o4lzG3QxPj8LmgtqqrSuq2pZePJefW90adUdYtaLGoNs1+SuWqSU1cVOQ7UHlHl9ZQCkknz2qGPYYrS9OOzsy7OzDm995ZcWo85UTkxYXWC0NW74tCyaaxbdSn3KXTUNzTTcsNzDiUJQEqwODtQBj2QK0aE6xpGRp9Vxn1sRmLDQwEujYATV0ALrQbdDQdLZc8tDCdBsOB6Xo011Q1Aseb+LLLuGcpyao+0h9EuopLp3YA/r4+uCP1B6papWdctQsFm4J6Wo9QlEKelFfRd8ROHPaQVA59oMD2laO6z06qSc6mxqu2ZaYbeCvAzt2qBzj2Yz9kT7qGsDVW/wDUJytyFs1GqSyJRlpEw0yNhIBUocY/SUqMyYPDSuL3xtJJB1A3Gx9jjpI3OhJfGaJ0NaWPlAFt0YG0jj2QaNBtTdSU3FQ9OKJcU8mizc2ouyDKsIWggqcyB5YGTEKToVrAgA/yBqoz2+aH4xM9INM9X7O1KoFxzFpVKRl5SZ+emHGQUNtqSUqJ9mCY6ywxzCpGhwBvUXqNj7XMsDtHC1r9YdYNUJqerGmdduGdXRJSbLaJB3hKEoVlAx348oEyXCV5SMJxzxBa1H0i1fue+K1cCLMqk03OTbjiH0sgJWnPBH2RHhoRrEkYFiVMf6g/GJFDHACImhtmzQA1POnK6vkfKbeSfaLegmqept5VMWrVriqE7RKTT9yZZSvm2UpKUoz9WcCCR1MVKtUezzWqG862/LIl962/0WypQOfYScQKtA7C1Lse6p2Zr9uTtOkJyRUw4482NqlBSVJTn15EFjqMol0XJZaqNakm7OTE0hgOsNAFS20rUo9/UQO0SKCLDjLE0NBN6ADU7nRcmsawU0UqU1auT9eqLtTqjynpl45Ws91H1mNzZV/XRp7V/jy0Kw9TZ0tlovNYCth7jn1xtPkG1bT6RsieHnyUfjDvkN1cJ2iy53P1o/GNyRsmaY5AC07g6g+wjmhwpwsItXvq/rRaVk2zd8rclTlJyvtqM5Nk8v8AAUjJ+o5GPKK5z9Rfqk6/UJ18uzMy4p11auSpSjkk/bB4v2z9VLq05tG2G6LOTcxSEKTMS4CAWClISgHkfowNhoTqyPS/kTPf2PxjnFhoYHF0TA0mgaAGg0A06G3S6Z3Fgjv7RsOB6Cbp9q1qBpyiZkrKuKbpyaipPjpYOPEI4H98TvXy5r1te4mKS+uYlmp2nIW626PziiVJWT6+U4P1RC2tEtXWXm3k2XPgtqCgRs7jn1xPtdLR1O1EueSqspRZ2qNsSCGS6hCQEr3KUtPGOdyjGmwRRyOlY0BztyBqa2s80uQY1pLgNSgH4xUf74L2jerWp0nPUjTe3bgnUUmdnAhciyeHAo5WPXyM5iK/Ilqok/8AIqofup/GJHp5ptqtat8US4Ta8/JokZtDi5hTadraM4UTz2wTCaCLEANlaHAGxYB1Gx15HaOY1/8AcLXj1fu26Ja661bU6+tEqHshlYI2gjcD/a7+2BoFndkHiC/qZpfqpd171Wvy1qT84xNOgtPobTtW2EgJI57YAiNJ0K1aBwLFqX17B+MdVpFHQnVXVG8KnKWA/XZ+doshJL2SQ5QhKQEoGPrIA9pgNXZe9y1xa6TW5tbiJR5aUpWDuQQcEeztz9UFrQeyNUdPb7FZn7dnabLOyrjK33WhsKuFIHP+kBA9n9FtW5yempx2x6opbjqnFKLONxUScgRyigigBETQ0E3oK1POnKy1jWaNFKCy8wuVmG5hpe1bSgtJB7EHIiydmau6ualWZd1QuCvVGqpoUk2uUWeUsOYUokY89refqEB8aHasEEiw6rgfsYKOllnasWfZV7USZtuoyRrUmhEsy5LgqmHNriCE55J2rP3wfBFI9sjmgubdEgWL3o8XzSFrSQSNQgdc14Vy7Xmn63NrfWwjw0KJJITnOIba911qzK/KXJbU85Jz8ivxGXk90K9YiSJ0K1eVyNPazjOOZYxn5CdYNuRp7WSPZLExt7WyNLXiwd1SARRVrdAL+vbUSms3RfNTmZ+bdmHm2Zh4Yy2kDhOPIEmBJrXqbqLY8yzRbfrs9IUeryjniNNqw28dykr/AKsAwSem2kXXblsytDuqlzVPelZp8sMTLRbUEKAOfbzmBXrbZGoF71enC3qLM1CQkGVoQpGzCFqWSoZJB9UcfpMP4xDkGQbChQrahsF0ic6D/aOX1p/hV9UtSlEk5yYKOkOrOplCmpGwrTuCelpCqTqEOSksfzylkJP3jiNUnQrVU8fyOm/r3I/GNpaGk+rVt3XSa+i1J6X+ATbT/jegfDCVAk9/VG5oIsQ3JM0OHRAP+VycxrxThYW8101R1OlapP6dVOtz7dDU0w43IOn0NikJUlQHqyciAlvXuBJMGvVfTrVO+r2mK/KW7OVCWWwwzLzCQkJLbbaUAd/LGIiI0I1ZUMiy5370fjFihjhBEbQLNmhVns/Pyur5HyUXkmu0Q9B9ZNWapUabppJV+ccoEuy4v4A0kbUoT6X1gZwe8QbV3VfUe8qnNWze1enJxmjz77bLEwSSwpKigj68DB+qJRpDp/qfYF7y9fqFvTlNlQy4y9MLCCkJUOx5OMnERq6NJtWa7ctWrb9oT7y5+dfmluhCQFlayrcOfPOY5MwWGjf5GRtDrJsAXZ3N9nk7lZYTG0tZoDvXPvtDhiYdl30PtKwttQUk+0RZnTHWjWXUKn1tdTuGo1BNAp/iSJSn8w/tVtIx57UK7+owGhonqmf/AKlVH9wfjBJ0dtjVCx5K5ZWYoc/TvjSS2S6XGh88+AsJSM+eFq49salw0M7mvkYHFt0SASL3rq+a3WcozBxGo2PSE9+6m3nqTOMTt41p+ovyyPCacdOSlPq+qNLQK/VbYrErXqNNrlp2TcDrLqDgoWOxHtiW/IVq4olf8hKnyfNsD/xhHQnVwjixKmcepsfjG2Qxxs8TGgN2oDT9tlt7nSkuebJ3tFpnVHVW7dHK3fdZrFRn5yRmW0NzjhJ8NsLQFY9QyvB+sRXq4biqlz1Jyq1Z8vTLvK1nuo+s+2DvQrV1Tpeh9esM2/UG5uemQW5EsDxHGSttSyPPGWx90DD5DNWyNyrBq+O/5gxY42QtDIwABsBoP2WQ0NFNC0tkX5c+nlaTcFp1R6nz6EKbS+0cKCVdx9sHPUDUjUkaVWrfM/UZ5c/VH3fhE67u+dByUDP1J4+qBKvQ7VtI40/rJ8+JcmClelr6qV7Ri0rKbtiqTMzSnVKmJNEofEYSkKDZUAMjhR794nhj8nlyjNVXWtdXvSgaAc1aqvk5Ouz0y7NTP03VFRx2yYl2m2r2oOl78z/IWuv012fCW3S0ASsA8Dn2w86H6uj6WntbH1yioy1orq9LzDbzentd3NqCkkSSzyD9USaGPEMMUzQ5p3BFg/go5geMrhYV0piaqM3py4/UluqnnnZVUwXOFlw7SrdnzJJilupd0XRMVyq21V5h7wpKfdQGHP5spUQB9wAi5k0/PnTsvVFK0TanZVUwCnaQ56JUCPLB8oqldmj2rdw3RVa7/Jx2Z+Hzjsx4vjsjeFKJCsbuMiNtAaKC0eghQlxba0uD6STmLIaQapas6gy1SolSrVQqtPpNNKZaX7paVtKUY9uAQIGK9BNWtm42i8QfU8170T/Rm0NT9Ppyrrm6TMU0T0p4bJUpshx8Z2DufWYxJBFK5rntBLdQSAa9dLJY0kEjZBW4rorNxuINXmC8tkbEqI5A9WfVHhpNWnqHUperU2YWzNSrgdacTwUKHII9oibq0G1dWtSjZ0zyo/zjfJ/ej5u6D6toPpWXNk+xTZ/+aOhAIoq1YRRoOo2qV16UXTelVq9RqExT/DQ1NuKKvCQlbe/B9XpjP1wBLgr9TuWfXU6rMF6ZcxvcPdR9Zg5WnaOqFE0juayF0WcYm6qQWJMhGXUFbZcxz6mx+7A0+Q7Vkpz/ACIn+eeyfxjMcbIm5IwABwNAoGtaKaKCj1o3ncdiVluv2xU3pCfaSpKH2lEKSFDBwfaION1X9qWdIaNfdSn59c5UZ9W+edJPiI9II59XzZx/RgWL0Q1Y/wDwRUCfYlP4wTq9a+qtW0WolhigTr8zTZve5JJaT4jbYLhQT7PnFffE8TPJ5cozVV1rXV9JlF5q1QCqdQm6pOuz84rc88orWQO5MSCw9Tb105mZh6za5M016cSG3VMrKSpIPA++Nr8hWrx5/kFUz9TY/GMDQnWBtwKFgVYkHPos5/8AGLJGyVpZIAQeDqELQ4UdQiPrbdt80GnWs5NPzTbtVpKlTKnd3zy93pZ55Ppc/XFfXXFuLU4vuo5MWJ1ntLVW+pC0mJW2qjUVUynKamA1L8svqI3JVjsfRTxAtVodq8SB8nlayfVLGNABooLVUtppLrLqfZq2LMsq4JuTlKtOoDsuwMl1ayEceeSOOIk3URel3U69atacw8+1JPMy6/AcBA2qbSoKA+skxF7V0h1hoty0uss2FW2VyU4zMB0yaiEFKwdx48sZiZ68WHqrfWo89cFPtGq1KUUxLsMTDEqSgpQ0kYBA5wcxyZh4onukYwBztyALNbWea+VlrGtJIGp3QDWoZBBOfMn1xYPpy1j1Ombjt7TGWr83/JtDxL0m2PR8PlSsnvjPJgar0P1fOAdO65k9v+Br/CCBoFpxqjaGqVGqdTsyryEkpxTMy+/JLDaW1JIOVEYH1wmghxAAlaHUbFgGiNiL5HaGNrqzC6XXHSJzdp5KAq8nI4vatXYXr5uOTFIp6PDqs0A6lo7zhxQ5OY7PaPj/ACeSoV3JcjmXf+iWgS7lrdWm9cag7PGffeeprdvqbCllwlTIfKylPmkLIIHBIjqdgtjcqqc3PvTaU+Isnw0hCfqiTWLWZkXTQkuhDiE1CVQEkepxOCIsMdO+jhUsspRqGVAZCRX6YT24/mY1tpaE6IOVClT0trwtmpCZaeaprtBdVhzeFJZU8FbT2CSsDHnEsK0tv+UBuIU/Xedpxpcm/vpcmvxnUEuDKPIg+yKozM+/MNBpRIQklSQBwCe8Xw6wtLNM7v1kfrN3atqtueXT5RAkhRXZv0AjhW9CgOeePLECuj6X9LrEiiWq81dtSm2wUOTUpX6fLNPkHhaGnGStsEY9FRJECQCgBIVaqfU5lptDeUlDW4gEevgx2j6LHw/0zWS7gJzJr4Hl84qObk1ohoRVqnNP0zVaYtWQCkiXk6ix8avqG0blqelUpbGVZwnGQBzHTXpXoklbehVsUOmVhNVlJRhaGZxDSmw+jeohQQrlOQexigglQggaotkj1wwq9XHshbsDOTxDVHz4yO8dFlOKiB2hviD/ADTDQT7ORGM/X90EUT1iXjTO9ceVGqHf/wByuOGKJ99IGPD/AIafwjuXrFg6Z3qO/wDiaof9yuOKVgylJm6m4ipJlFuBCPAbmiPDOVjecEgKUEZ2pJ8ycHGI9mDvUBYdoLK2ul+ocxpnqZamqTMgid+IJ5iZXLkABZbOCn1AlPIPri33VF19af6p6LVbTex5CszM7cwYbmVVCXQ0iTaS6HFYwSXHMpACvtikVyrk5KsLTSky7aFtIVMMML8RhDv6SUnJBA48zgkgHiPE/MllDC5eXaaUtvcVJTyDkjjPbtHsIDrJXOhpok/MOyjTEoNhU2klYKQraSe3PnFqvyaM0691HPoc2YFtTxG1AH84zAe03p2lc5Z087d7kj8PLi/GcfmSh9psD0SyncMknnICiTwRjiC3+TPCB1ITISSU/wAm57bnvjxGe8YxAPju9CEjILiK2/mi6qBR7n+6BjrLVJejoZn5tC3GZeVdeUlHdQTzBLyAfKBB1AuNop/z6SWkyD6lgD6ScHI+6PkP2XpbuqhVHrs0ZfW605bVfBSdp+ba8v8AWjSTXWlo28CG7dr49WWm/eik9S8D46mltMlDBfXsSfJOTgRsJdUooDDbZ+sCMhoCZrV5ba6h9PritW4bwp9GqyZO20NuTKHEI3qC1YG3n1+uIm71m6Ur4FCrpSfW2370DzR+aoTWhGrTE5JLccVLSyjsGBj0gn7nCk/ZFcJQpbdy4jg+uJSEq4zvWDpcpWUUStgf+7b96JM9r9ZMtp2xqT8U1U02Yn104I2oDgcSnOcZxjBiljBYVwGmz9kGuszdDV0cycm3JLM4i5n07wMJDhwrPf8AzOO0NlAVPT1f6YntQa2Sf9Bv3o87nVppmvJTb1aB/ot/jFSZNSEcOJB9hjZpW0pB2sIxjviNUpauNdWvVm2fR6DWKjRamtqvynwyXCAjKUdsKye8RY9WenKuPiCs8dvRb/GIH1EzlGnNNNLE0ynuNOpooBURxgABX3qBP2wDpRxCOCnJ9RiAKq10t1VaePvtsJt+sBTq0oHDeMk/XEk1C19sjTy5HLXrNDqj0yy029vZ2bSlaQodz6jFRKU/LoqUk5MSqVNJmWlLSByQFAkfdBO6wn6ZNawuOUqTWyhNOlS5kfSJRkH7EFI+yCcIiq6r9NlDKberWfaG/wAY2lpdRlkXdclOtmnUKqNTFTfTLtqc2bUlXYnBiocu6kJ+gFZgj6AzUnL60We5OyhdaNRQnaO+4ghJ+xWD9kCERruDqZsiiVmdok1Qqop6ReWwso2bSUnGRz7I1Q6qbGBJFAq3sGEfjAI1iclXNU7lep8splj4xdAQR2IVz/XmIyy6kpA8MGAS1b+wta7b1FraqHSqZPS76Wlv739u3CcccH2xNdWr6plhUdqu1WUemWUJbZ2slO7KlKweYrt0rvSKb8qDExJlbr1LcDC/JCgtJJ+7Igv9UfwVGl025NMl5x1xltkgfQWHFHd+7kQ5ThQF7qZsd0EJt+qjjzKPxjznqQsnGU0KqDBz+h+MVxbyk7VJOfbHpAB/Q9kVRWnrmsVt0G3qLX5ulTqpesha2UJ27kbSAc8+2I0rqMs1R3CjVJPs9DH98aPWSeoM3oxps1TKWtiaTLrC1+vaAF/erBgItn9Ep59sEVhx1D2cshAo9S5OOyPxjeXpqrbtkVNml1KmzzrrsuiaSUBONqxwOT7IrNLhCZhpS0bkpWlSh6xnmC91YTdFn7/pz1Cpzsq38UMFaVe0qKR9iSB9kEW//wAIaylZJpFUGeeAj8Y9dE1wtSuVmTo0rTKgl2deQygrCMBSjjJ59sVuaORjbE20cfp0pqpa0zVpEzUoips+I0kcqyrA/rwYIjHX9cbRt2sTlBnKZUFvSbhaWpsJ2lQ8xkxr/wDCIsxJOymVPB9aUfjAq1vVJr1SuBdNllMsJmdu0j9IJAUftOTEMaVkcoEEVq7G1ftm9K8mh06Rnm3vCW/udCQMJGT2MaqY6lLHU4ttVHqgwSDwjg/fEP6V3KO1qcv44kFzCF058NhP6JGCT+6FD7YD1SLSqlNOSzSm2VvLU2k+SdxwPugisSjqNspscUyp8+W1H4xKba1ptq5aPW6xKyE+lmhsoffSsJBUlRIwnnv6J7xUlJJHCINmh81b8vpfqgxVKa49NLkWFtOJHCU7Xhjv/nlB+yCKVDqXsgggU6qeQJ2J/GPvL9T9kscmnVVRA/zEfjFXfTQcbT9sOClK4CBBFfPSe+KXfzKK9SWH2WEOrZKXgAokAZPB7cwM9QNTqFY1VbptRp8066+34yVNYKQCojzPsjf9LLtOTp5JmWlVomGZyYEys/pq4wR/qkCBD1OOyT1bojUtJqRMtyay+5j6YLh2/cMxOUW2/wAIG1ykJFKngP6Kfxj607XK3qlUZanMUydDk04lpJKU4BUceuK9JUR3iTabzEhLX/b03VJMzMo1UWFPMp/TTvGRFRGu5NYrftiszFDn5GccflsBSkBJScgEY59sasa+WsU4VTZ/6wlP4xBtfXqbNam1B6jyC5ZlDEshxJ5y6GkhavtMDxG/t4cEVk7W1YoF41qXoEhIzbT7oUQtaU4GBnyMaqa1wtaUm35J+QqBXLurbJSlOCUkg+fsiJdOD9OldU5RyrU9Uy2uWfQ2hPG1wo4V/fEFvVyWeu+uTNPllMSrtSmVsNkfQQXVbU/YIIjONe7R2gfF9RyP9BP4xurY1OoV0s1J+RlJxIpcv8KdDgAykeQwe8VlCleYzBp6eZmgStFvlqs0tcw8ulhxpY/RQEuBST9ZKD9kEW2Tr7aJOTIVEn+gn8YenqAtNIAMhUQnucJT+MV9UFpVjaRz2xC9JXo4PPEEVp5LVi35qzpu8USU4JSRfTLrQUJ3lSiACOcecaT/AAiLMUrcKfU8nz2J/GNDbT9vp6Y7jlpimLVUPhyUId8t6nGShXfySFj/AFoCPpA42kQRWPR1HWe33kan9exPH9cSWrawW/SLYpV1Py86qVq6nEspSgb0lJwc8xUvapXogGDjqa9QHen/AE/bp9LWzOBawtwnIUUhQcP2qIMEUoT1J2YBj4FVP3E/jHpR1O2SMD4FVck/q0/jFXcLz2P3R9JTYJplT6FLbS4krT6055EEXQOozrc/p65OICkpmXpZxORyAraRn74rrVtb6BT6jM01ykzpclXlsqUkpwopJGf6osS8mWeshkSEutEo87LLaQTylvCSlP3RRvUNbExfNfmZCTMvLOVKYU03j6Cd5wIgVKKY17tsAf4qn/b9H8Y39o6nUa7XZ5uTkJppUnKqmVlzaQUp7gAHvFaju9UGnpsm6LKOXSKxR1Tivi0uJOcYQkK3p+3KfuiqLYHXy2FEf4rn8d+Ang/fDjr7aw5+K5849ifxgEOhSVHDZAycAjyj54UeMEkwRWZp+p9DqVq1O62pOaRLU1aEuIIG5RUpI45x+lGiTr9a4706oY/op/GNdY03QGuna85Wbo63Z4vJSh/ySpTjGw/ZtX+9AVWVA424+yCI/wD+EFaqBxTagcHzSn8YkMzqtQpK0pO7piTnDKzz6mG20hO8KTnk84xxFXSFK4AJg23hO26/06WjLyNIW1PInFJdePZa0l3xFfaFI/dgqt5/hDWjgYkKkCO3oI/GPojqPtROAafUfpeSE/jFdFbjztxCaT86gqSVJChu+qCitbcusVBtNumOVGUnliqyonGg2EkpQeADk94056krM2jMhVMj1oT+MRXqNmrfmmLKNBpTkoBRitYV5oUv0B38sK++AooKI7GCuytFSupK0JidZkm5Gp+JMOJbTlCcZUcev2xu7s10tOyrhmbeqsnUFzUqE7y0gbDuSFAjJ9sVf0/XT2L5oL1YlVzEkioy5mG091o8QZA+yJx1KOU53V6sKpkmtloNyyFJV/nhlG4/fBEV2+qWwm1bzI1jOc8Np96Jdp11F2Xd90yNt06QqSZqdWUNqebTsScZyefZFJlg5JCSIK3S+aenWGjiosLWXPETLkHGx3YdqohCArsdo2vxNPZUq81ORy5vKRmJG7bnmEO2zUUzU5M7WFVlpTwPiKI2NNuhxS8/oYOTxgx1C0cV/wAQGEjB2uO4jirqHSq8dQrgnJORnARV5pbbjbKuCHlEEED+uBFgKjcqeS1h380rc5Yd0gDuPiKb/wD643lr0Sfmbtt+tqnKJLS7E3LuuqVVpfxOFgnLRXvSeMbNuc+WYCz+oGpMqotP3pcDavNKp95J/wC1HxtNiZVclFmXwvK6iwdygcqy6CVZ8+YzlVBV3erS36jP66rrMoaI40xISaVMzlXl5VSiG+QUrcSscHgj7IAJsy86nMPP0mxK8/LOLUWjI0yZmWCAcfNupSoODj6QJz64kv5QCl1Sc6hJt+UkX3kGkU8b0MqUM+F6wIr8ze2olDYRT2Lsrsiyyna2yicebSgeoJBAEUtBKBxARklrLuWoSr1OepsvTZmTdCXEVOcap76QRuGWX1IUQdw9LGMcR1D6Y2hL6IWxKl5lxTMr4SlNOJcRuSSDhScgjPmDHEebn6zXXXKrWp+anX143TEy4pxascAblZPAjsx0VpKOmiygfKTV/wBtUGtoo42EcQoZ4JHEYJ55xwIbkDzHshpOByeI6rCeVBJPMM3n1Q1WCcnvGNw9avugi8VyUmUuKm1Sg1BKvgtSZelHthwrY4ClWD68GOfdT/JZ3N8PmPijVekmRLijL/CZB0O7M8Be04zjvjiOh7qgX3CefTP98N3Z44jTXuZ/aoudI/JY3z2+Vag//AvfjH2e/Jb3y6hlI1VoI8JGzPwJ7nkn1+2Lm3dZ2odYq03M0S7USUmpTTkuz4ziCD6AUFYBG0bCcDuVnkd401V0w1Imbfq0i5frtScmZuVcYYW+4wgyzb2VsKWn0klbaUAqHchXkqNfUSAbplCqP/6LC+T/APatQf8A4F78YO/Sf0UJ6d7pqF8V68G63V5iTVT5ZEqwpplllakqWo7iSpR2JHkBz64OmllAuS1rOYpN1z/wue+ETDwAeW+mXaW4pTbAcV6SwhJA3H+7ES7I7iIZXuFEpQX1GR55zAs1ppjtWLEimXmnG5iUdZWWWyopCuDg4Izg+cFAK4z6oRV57uf745OGYUtA0bXODqM6M7ckbRlXdE6VdNRqKXCudZm20uKWnA27AltJzuJzzjEV5szpN13qVxSchVtP6zS5Na9zs0/KkIQkc458z2HtIjs9U5VdQkXpJEyplTqdviJ5KefrH98eSm0RMjOzNRem3Zh991RSpajhtBAATjt2SOY8eBwbsFAIHSOkq/ueQXGze4AGnGmy3NJ5XZqA9Kn8j0w6c0Khzdr0lu7VSNwpl2qutbDe5KG1hZKMN4ByCOx4MV66jOj6sSE/JvaM21cVWkA0hC0PMBTod53k4QnCcYx7cx1Z3HyV39seGqSTlQQwlE/MSpZfQ/logb9pztVkfRMcsP8Ap7sM5rjM91AinEEGzdnQajYfCzG/xw+Gr1uzv6vpcjNE+kXUqqXnKfKTadbotCYcBmnBL4cWggghGQee3lFr19NGlaqW1YaWLvFuMzS6lv8ABT4pmSgIAz4eNuB6u8W8olHbo0qEGYcmJhefFeUTlZKirgeQyoxsSs4HOI3icE7EvziV7dKppAHvY6/ylIz45RKda4Ox9rkHrj0k6hSV6zbmmtmV6qUVxZ+CKMvlaGhgJCyABuzny7YiRdOvSRWJusOTes9Br1LpQStssMM4eUsAFCuUq9HOc/VHUOtUeYqTomJerzEqoS7rAQjlJK+yiPWP98R6qZIS9LlUyksVFKeVKUrJUrzPJjtJhzJB4c5GlZgfu932pJ/Uvi+lT2odOmkFdl5em1akXc5J0KX+C0kJG1RQcqJX82cncQPLgRS28ek7WuSuKbboVjVafk925D7cudqs84HA7du3eOzpXnvGhqlvPVCcemBWZltmYWx4jCfohLZyQnngk4/8454bBnDOc7yOddf3G6oVp73PZXR0mZjWUNOeT7PK55dPnSLSU0aZmdaqbcUrMOhtyUlpRghbawTvC/QPkEkc+cFC+unPT286NXKw5Trl/lVMS62aepbRDCdiAhkqHhnjAyfri68s01KMol2RhDY2pGScD6zH1DhPt+2OUv6cZXmTyvFkGg6gK4ArY89rMLvC9z6uxVHUD18rifO9KWvEtUHmJTTutPS6HSlDvwc+mnPfHti2GifS7Z9p2pJ1y9KTcbl4SD6pmVMu0oNJxhTYI2dweFcxd1VqOqdIcrk2thcw2842SclKOQnOe2cf194kMqy1KS7cpLkoaaSG0DJOAOwyeY9GJw31TQ3O5tEH7TRNcH4PIXJzc1an8Ln7qv0q2XXLDnp20aLc6rwm1CZeU8glpSiSpxKR4fc8BPP2xVmm9Juv8xPy8tOad1mVl3XUocdUwcNpJAKjj1DmO1Uyn4Qw6xvUgOIUjcngjIxkRpG7V+eaM5VZiZZbLqlNZKQorwB554APnz7OcsNhvpmludzrJP3G6vgfA4C9EkvlIOUChWgr+FU9srpusqyLZp1SkKRcTt3tyYZm3ChSpdSz9PaNg4wOI8l16TzV/wBNFKqlJrbUs28pwBEmtCipJVgYUnkc57Re8LO0ekTjzhbsD6XP1ww2F+nBGdzrJP3G9+B8DgLzsbkFWT7XH3VjpF1Olq98Jsi1KtU5J4kNASytzTYxgL9EekTntEk6eOkWvTFwuz2tNr3BIUlpKkeBLS6g86opylQO08A8GOptRpLs/ONTjVXnJUshPoNKG1e3f9IH+n/ZEOolKbo0miXS+466pKfGdWo5WoeePLuY6TReeMx2RfINEeiq9uYUqKXL01WvWptikydIuhih0lBbkApglxW8grKjs9Y44EVevfpK1olLgfRQLIqtRlSdwfRLqCSTngZA7DHl3zHZwrwcBX3xHqrbUzPTEy+xXZxgTDSmy1nKEhW0HHPqSfv8vOxReJgZZNCrOpPs9qgUKXOvp06RqUzR5+c1vt25WZp/aZWVk2ilTZGQrf6BzkYI5iWXX00yd0t1CoqpddbqIYMvTw4ydiUoRhrf6Hr74i/0nKsU6XEvLb9gJPpKKiSe5zH3K1d9xGI5R4bxzPmzuOatCbAr/iOL57WWtyuJs6/zRcU6t0oa8SlTmGKdp7WZqXQ4Q28JU4cHrHHY+UWe0b6TrSo1lS9QvqSuVF2S6xMy6JdkhpCgNyEqGzuDweYvSu1HvhK3FV6cWy4+08pkq4ARuISDnjJI+7zjesNNyzLcsyMNNJCUjdnAHtMMVhfqmhudzaIP2mia4Px2EezOBqR6XOPUjpRcrtPqNRoMtWVVedc8ZaHpb0CDkrCfQznsBFcZTpO17enmmHtOK0ywt1KFOGX+gkn6R+ocx2nnGlzUm/Kof8NTzakBYGdpIxnGefviPy1oFsy7c5Wpual2C4otrUfSUoJA5znAAPn5+UemltVDtLpjsqz7Tp8/IU65VXg1KfB5l3w/+D7lDaspGwcYPECDV7o5q7VAac09ptan3mtynmHZX01q42BGEjPnnmOoAWM98mPJVpJyqSSpNucUwStKt6QSeDnHBHf6482Gw30zSMznWSfuN78D4HAWWNyCtT7XHC0+kjXOer8pK1iwavISpXuW+5LnanHPPB74xFx6l0yadU2jLpNnUW6Jb43aQxVFuNbzsSARtBTjO7I+oxbmm238EnW5ycqL02WGW2mgVFO0pySojPOSf/8AeMb4Kz2V3+2EuF8srJczhlvQEgG/+Q5rjpQttwd0uTWsnR5qBLvsTNgW1VqpLpShAaMrh0KIytSsAAJBAA+uNfoj0i6jzV7Sjupli12QoTKkqmgljat1s8KCCQfSHB7euOsNwUV6uNNMt1SZkQjflbHCzlOBg54x9RjNNoiJGemai9NuzEw+6tYUokBCCANoHbskfdHaSPyMLLIsVY0P4Pa0RYpVDe0eo9h7pLT61rhRSjl5wTDCnV+IeONozjAHlGpX0+WddFvTk9d9o3Sq5RLuMySmUKQyg7T4ZKdh/SOTF6gvgEEws9vS59UeN2ADoG4fyPFVrmOY127c3yumHk+nqgDpWuq4qV7pF1zlKtMy1MsCsTss2vDb6ZZQDntHA4zFlNCek616PZ/wnVK2Lodr4cS/KolGVJQ0NgOxXofSC885IxF8GLMmGwpt+45x5tyZbmHEHgYTuO1OScAkg/ZElZbal2G5dnKW2khCU5JwBHfFYb6qPxlzm7atNH9xx2uL2ZxVkelQTUPpas65bGnJmkW/c7V5z+wqddbUWEHPpADZ22jAHripbfSdr6Z9LLmnFaRLl0JLnwc5CM4z93Mdqp9lc3JPyjb/AISnmygOYyUkjvjI/viPytnqZdl0Ttbm5uXYLq/CWSCVKxjnOcAZHt47ecw+G+mDgHOdZJ+43V8DoDgL0SS+Ug5QKFaCv4VTKw+mOxbSsiRnqlQrlevKUaKXXmmlBgndjIGwcbPI+cQXqA6XrQm7Yll6Q065HKilbj883ONKUXjt9FKB4Y53FX2R0r34wB/5x4a3IO1anuSKJ52TUsgh5vO5OD5ciPOz9OySiYSv3JouJGoqq6HA4WInCJjmAXm5OpHrpcW7Z6X9X52uycrVrNq0hKuL9N9yVXtRjkZ4PHHqi56OnzSKjSci3b1JupLk+lMrWlFtRIZKfT2ZRjO4ccdieIuJTrbVJTaJubqj84WW222ErURsKc5Ueee/nnHt8t3vOe/H18R2xGE+oe15e5uW9AaBscjmuOlzy/cH9ft+Vy06jelNnxZKc0RoNfnJdttLb0tNMlTynFEkqGEJwkAD7TED0g6WL/mb1knNQbTrNPo7DiXJlQl1AuNbgFpSdpwrByOPKOuVfpDtbZZabqTsp4KyslAJKxjG3hQ45/uhtLo3wCcmqg/OOzExMOrKVKUfQbOMJx24CRzG4cN4YBBncdKsm3e77XWV/mcXUBfA0H4VLbm6e9MTL/yZtGn3NKUaYPwiaW8ypay6g+jjKOBjGfqismrXStqHJXAt+yreqVXkH3FhkNyqt7bScbd+Ej0jk/dHYIL9pzHjrEg5V5Bci3POyqlLSoPNH004UDxz+I9h7RrD4f6eIRBxdXLjZPs8rm1oa0NXKrp66Ua9OXMia1btquU+jI3omWm5ZSXVAoJQUkpPG7v2g43b022VVAxbtJk7nRRaZlUkSwFLJWMrzuR23duIvRSJNVKpsrTlTj82ZZsNl94guOY/SVjjMe0LOPpH++M/Tf1/PmdtVX9u93Xfz0pl+7Nf/i4u3h0p60U6uus0myqpUpdY8UPsSi9mTn0ew7QaunXpLpTlFnZvWq3rlln3SFSsvLS+1aCCQrdlJPIwQcx0fumgPXJKsy7VZmqcWnC54kvncrjG3v29f/h3jct5bQlPiEkJAJPnjzhicP8AVRGLMW3y00fwUe3O3LdelRWq2jVqdSm6HK0GsFtDqAzmScUfCRtAKlJTgHA8+5gU6o9NYq1Cdcsul1xueWpx59uYl3Fl7gKCUDwxg78857R1EDhxkExneRjCz9WY7htClu1xLoPS5rHO1mUlqtaFTkZRbmHJlUospaHkSNvbOIt2jp10stqiS7tru3hMVacYRK1L4TKKDQQpPzhRhoc7u3si8FIt9+l1idqq65NzKZvOJdZPhtZVn0eT/v6u0borJAys4+uOEuGMz2PzuGU3QNA++wsFtkG9lyc1o6WaoqSYmdNqXWJ3wUpCpZ2VX4illWFK+gBtCcefeIbpV0rahTl5yQvu2qtSqU2tK3nRLKJUjIC0p9E+ltJI47iOyT25xtbSXVp3pKdyVcjI7j2xp7aoL1uSzsq5W52olxQUHJo5WABj6v6hwB9cd3NLgRdLRVJbg6ctLpCXVbtnKuk0qfHizi5iWJWHEHLYT82ODxniK26zdLV7ytcM3YlCqlUkHVlDKPgqvEabCRyv0RyVFUdgy4RwMx4a1IuVelTVNTUH5JUw2W/HYOHG8+YJ/wB/745YeA4eMRlxdXLtSfeyjRlFbrk5089LtVdutM7rBbtZkKK1uQ+yiXWl1wFB2lB2nsoDI9UHS5OnvTyoKFv0WUuSVoUmsPSgLClL3qHzmdyO2e32xeyjyLlJpjVPcnXJpbZUS6vIKiVE85J9frj2b1Z3BX9cZ+l/1H1GZ21Vf273dbX89KZQHZv/AIuMV+dLerMjXnE2/a9Qqsq6PF8ZmVVtSST6P0RyABnjzgu9OHSXS35edmtb6bcMi06j5iWlZcpcS6Fd1ZQfRKe3MdLa/Sna5KNyqKxO08tupd8SVUkKVj9E5B4j1Sba5WUYlVTLjvhNpb8RZypeBjJ9pjWIhOIiMYcW3y00R6KObmFKgd59N9vV5iZFL+PEuU6WXJUkPS+UlCSfDLh2e05x6oqlW+l/WySq0zJyli1acl23NqZlqVVsWPWOO0dsUuf6Rz9caW4LefrsxJTDVfn5L4Gvf4bChsd5B9Idz245x7DHRrMjQ27paXPzRHpEs1FlrntUF3JKV1DviyUvKy+AlOwFIXlsnd4mR37YhupnS5M3dKVGtUkVAVmeKCUPSwDYA4VztznAGOe8dIfEJVnJGfUYcFn/AD/P1xxiwxikfIXk5jsToPgaaBZa3KSb3XEVHTFrqqdSw7prXks+JtLnwNX0c4Kvu5i5GlXS7ZtnWrSbgrFMr7l6yG5zDTQEuV5ITxsBxsPIznOYuzM289MXLL3H8eTyEMICDJ5HgKwFDOO+fSyc57DtG63YzhUMThfqQ0Z3Nog/aauuD2DyOUe3PWpHpRDSiUfk7HZYmGHGnCt0lCklJGfYY5y6p9MGs89XKo7aulFyrL0886iYaqCFNOJUtRylOQRnIjqYFnvnn1mFnGOfszHctulsGlxjn+j7qeqLoce0hru5CAkqKUnPtOD3jeWr0mdRJrVEmKhpRXWpOTmGVKX4QGwJWCVEEg+UdbTRXTXBWfjSYCByZb9Anbt9f+/9cbMqBx6RhlS1z96sdDNUb21Bm6zaOnNy1NC6bKNom5KcQ20HEtgFJbJBJHnFZZ/pF6np0oQ9o/cThSVELU2FEg+s5js5kRqa9R3KwGkN1F2V8IknYCdwPkcEffEya2rmtce5fpI6kRKokXNI7gDbSypeGMEk9u/1R1F6YLZrVmaH2zbVfpz1Pn5GXLb0u+natB3HgiCluSnGBGCrHOcRoNpQm04nAzkQxXfKjjiIRekhqtN3laczY9epElbku+6q45ebZ3vTLRxtDZxx+l5jkg8xlVP1ICnCKzLrT4wKCAlIDXq7Zz3/AN+1JpRTUnAxDdy/XHmp7cyxJNtT0wp94FW5ZIyeTjtjyxHo3H/O/rgiE6tTLiCyfCkjkn+aV70ZGp1xcDwZHn9kr3oUKMWgThqZcIH5mS7/AKpXvRkam3EB+akv4SvehQopROTqXcKiAWpLn9mr3od8pdxZ/Nyff9UfehQolosjUq4cHDUkOf1R96H/ACl3Ec/NyfH7I/jChRbRIak3ER9CT/hH8YwrUq4u2yU/hH8YUKFokrUu4v1cnx+yP4w1WpVw7iPCk/4SvehQoFFj5S7i5HhyfbP5tXvQz5TbiOfmpLuP5tXvQoUAUS+Uu4SR8zJfwle9DVam3CFDDMl2/VK96FChaJh1OuIEHwZL+Er3ob8pdw4z4Ulz+yV70KFC0STqbcQ58GS/hK96Hp1OuL9VJcj9Ur3oUKFonJ1MuHb+Zkv4Svehw1MuIj81Jfwle9ChQtE4amXDn81Jfw1e9CGplxYB8OT4P6pXvQoUVE5Opdw7QfCku/6pXvQ46l3Fz83J8fsj+MKFEtEhqVcRH0JPg4/NH8YR1KuLONknwcfmj70KFAIkdS7iwT4cnwf1R96GL1LuEEgNSXb9UfehQolosfKXcRJBak+B+rV70Y+Uy4inPhSXB/VK96FCi2iadTLh/UyXb9Ur3owrU24gc+DJdv1SvehQollE06nXFtz4Mj2/VK96Pn8ptxA8MyX8JXvQoUAUTk6mXDkfMyXl/NK96HJ1OuIjBaku36pXvQoULRPGplxbR81Jc5/mle9GRqZcWQPCkvP+aPvQoUW0WU6mXEQVeFJZAz+aV70O+Uu4v1cn5/zR96FCiWicNS7hAGGpP+Er3oz8pdxf5knx+yP4woULRZGpVxHgok/4R/GF8pVxK4Lcn2/VH3oUKFlE06mXF+rku4H5o+9DVal3EM4akue/zR96FCi2ix8plxdvDk+P2avehvym3Fx81Jdv1SvehQoWiXymXCefBkuP2SvehqtS7hSSQzJfwle9ChQBRMVqdcWT8zJdv1Svehp1NuIHhqS5x/NK96FCiWUWRqbcQBPgyXb9Ur3ocNTrix+Zke36pXvQoULROTqZcO0fMyXr/NK96HDUy4jj5qS/hK96FChZRORqZcKjy1Jd/wBWr3oQ1MuL6Xhyfft4R96FChaJ3yl3DgENSX8I+9DjqXcWPzcnx+yPvQoUAUSGplxnPoSfH7I+9GflKuJWCUSfI/VH8YUKFosHUq4T3bk/4R96Gq1LuJOcNSXP7I+9ChQsomq1MuIA/NSfH7NXvQ0amXEUg+FJd/1SvehQotosHU24gT8zI8fsle9GDqbcQJIakuP2SvehQoWiYdTriwfmZL+Er3oYdTLiB/NSXP7JXvQoUQIl8ptxJzhmS/hK96PqNTbiII8GS9f5pXvQoUUInJ1MuEpA8GS/hK96MjUy4j3akv4avehQoWiyNS7hJ/NSXAz+bV70Z+U24/RPhyXPH5o+9ChQRPGpVwhIw1J8H9UfejJ1LuLGdkn3x+aP4woUSyiR1LuLJOyT4OPzR/GF8pVwnOW5P+EfehQoqLB1MuI925Lv+qPvQ1WpdwhRAakh/wDtH3oUKJaJfKXcJKvm5Pj9mr3ob8plxbc+FJcfsle9ChQsomK1MuIHPgyX8JXvRgam3FuPzUl/CV70KFEJRMOptwnI8CR7fqle9C+U24f1Ej/CV70KFGgUX//Z;strokeColor=none;points=[[0.1,0.35,0],[0.13,0.35,0],[0.17,0.35,0],[0.2,0.35,0],[0.23,0.35,0],[0.26,0.35,0],[0.1,0.65,0],[0.13,0.65,0],[0.17,0.65,0],[0.2,0.65,0],[0.23,0.65,0],[0.26,0.65,0],[0.3,0.35,0],[0.33,0.35,0],[0.37,0.35,0],[0.4,0.35,0],[0.43,0.35,0],[0.43,0.65,0],[0.4,0.65,0],[0.37,0.65,0],[0.33,0.65,0],[0.3,0.65,0],[0.46,0.35,0],[0.5,0.35,0],[0.53,0.35,0],[0.57,0.35,0],[0.6,0.35,0],[0.5,0.65,0],[0.46,0.65,0],[0.53,0.65,0],[0.57,0.65,0],[0.6,0.65,0],[0.63,0.35,0],[0.63,0.65,0],[0.66,0.65,0],[0.66,0.35,0],[0.7,0.35,0],[0.7,0.65,0],[0.73,0.35,0],[0.73,0.65,0],[0.76,0.35,0],[0.76,0.65,0],[0.79,0.35,0],[0.83,0.35,0],[0.86,0.35,0],[0.86,0.65,0],[0.83,0.65,0],[0.79,0.65,0],[0.9,0.3,0],[0.94,0.31,0],[0.94,0.68,0],[0.9,0.68,0]];labelBackgroundColor=none;rounded=0;html=1;whiteSpace=wrap;metaEdit=1;" vertex="1" parent="1">
          <mxGeometry x="-1089" y="261" width="390" height="37" as="geometry" />
        </mxCell>
        <mxCell id="ctGknOU3to6DTLFT-ZeR-8" value="&lt;div style=&quot;&quot;&gt;&lt;font style=&quot;font-family: Calibri; direction: ltr; letter-spacing: 0px; line-height: 120%; opacity: 1;&quot;&gt;&lt;font style=&quot;font-size: 17px;&quot; color=&quot;#ffffff&quot;&gt;&lt;b&gt;UniFi Switch&lt;/b&gt;&lt;/font&gt;&lt;br&gt;&lt;/font&gt;&lt;/div&gt;" style="text;vsdxID=5;fillColor=none;gradientColor=none;aspect=fixed;strokeColor=none;points=[[0.1,0.35,0],[0.13,0.35,0],[0.17,0.35,0],[0.2,0.35,0],[0.23,0.35,0],[0.26,0.35,0],[0.1,0.65,0],[0.13,0.65,0],[0.17,0.65,0],[0.2,0.65,0],[0.23,0.65,0],[0.26,0.65,0],[0.3,0.35,0],[0.33,0.35,0],[0.37,0.35,0],[0.4,0.35,0],[0.43,0.35,0],[0.43,0.65,0],[0.4,0.65,0],[0.37,0.65,0],[0.33,0.65,0],[0.3,0.65,0],[0.46,0.35,0],[0.5,0.35,0],[0.53,0.35,0],[0.57,0.35,0],[0.6,0.35,0],[0.5,0.65,0],[0.46,0.65,0],[0.53,0.65,0],[0.57,0.65,0],[0.6,0.65,0],[0.63,0.35,0],[0.63,0.65,0],[0.66,0.65,0],[0.66,0.35,0],[0.7,0.35,0],[0.7,0.65,0],[0.73,0.35,0],[0.73,0.65,0],[0.76,0.35,0],[0.76,0.65,0],[0.79,0.35,0],[0.83,0.35,0],[0.86,0.35,0],[0.86,0.65,0],[0.83,0.65,0],[0.79,0.65,0],[0.9,0.3,0],[0.94,0.31,0],[0.94,0.68,0],[0.9,0.68,0]];labelBackgroundColor=none;rounded=0;html=1;whiteSpace=wrap;verticalAlign=top;align=center;;html=1;" vertex="1" parent="ctGknOU3to6DTLFT-ZeR-7">
          <mxGeometry y="37" width="390" as="geometry" />
        </mxCell>
        <mxCell id="ctGknOU3to6DTLFT-ZeR-11" value="" style="shape=image;verticalLabelPosition=bottom;verticalAlign=top;imageAspect=0;image=data:image/png,iVBORw0KGgoAAAANSUhEUgAAAPoAAACvCAYAAADUr8N5AAAAAXNSR0IArs4c6QAAGc9JREFUeF7tnX3sZUdZx7/bdtvt9m37st0tQUJINcSUioQYNMQ02BBFxWoIfxg1aIgIhSBWJKLGICGtaJEaCgKKCiIFG2MMUay1EqwNaWpFaJoGK2G3L/v+/tvtbre79X7untmevfu7Z+bMmXPOnHOeJ7n5bXtn5sw8M987z3le18jIOGAcGD0H1ox+hbZA44BxQAZ0OwQpOLBZ0k9J+l5J/y7pa5KOpBjYxkjDAQN6Gj5OcZRXSnqjpJ+W9OoFBhyVdL+kf5H0FUmPTJFBOa3ZgJ7TbuQ9l3Wzm/p1BbC5vV9cY7rbC8AD/Hsl7a7R15om4IABPQETRzyEE8m5tW+UtD7BWk/OJIGHJd1T3PgPSHouwbg2RAUHDOh2PBY5gEjOjf0zkl4l6ZyWWbQi6T5J/1zc9o+3/LxJDm9An+S2n7FoRPIbCmDXFclPD3Teeedp7dq1OnbsmE6e5NKOJoDubnt+APghMGrIAQN6QwYOtPvVxa2NSP76GJF8zZo1Ov/887Vu3br559xzzz3NiuPHj88Bz+fZZ5/V888/H8umZyV9vbjtAf83JDX6FYmdyND7GdCHvoPh87++JJKjJa8tkp9zzjlzUF9wwQXzv4DdR4AcsAP6o0eP6rnnGr2Oo8QD8P9aKPdQ8hkFcMC/UwGDWJMsOYBI/qMlkfwlMbNEJHe3Njd4Uzpx4sTp2z6BmP/NAvi836PUw6xntAoHDOjjOhZOJP/JQiS/uO7yqkTyumOFtHe3vRPzQ/osaYODzlcLTT63/mMNxhpdVwP68LfUieS8b/9QVyJ5G2xDiQfwEfEBPrd/A9pauu1R6u1vMNbguxrQh7eFyM9OS/4GSS+NWUJqkTxmDr4+vM87pR5/Gyj1UOA9WFLq8e9JKfUM6L7Tlsf3Vy1oyWuL5CwDZRqiOR+05HxQrPHhu5yprNQD9Gj2G9DewnbvXHSfbDDWILoa0PPdputKWvIokRxAh96CgP2iiy6aK96GQIj5TpOfQKnH+zw++QB/lAE5BvR8TjUieVlLHi2SA/DYGw/N+oYNG4RoPyRKaLsfZUCOAb3f04xIzns2irQfl1RbJC9ryQHnwYMHo0HuWIEYf/nll89F+iESUkz53b6h7X4UATkG9O5P8veXwjtfE6sld04r7v0aDfXu3bubaqpPc4MfEG72Cy+8sHsOJX4ivHGafLT6DVx0BxuQY0BPfKhWGc6J5Nza+JK/LOaRVVpyDi4gX3ZzEU/Kg3npR4Tgnt4haUvxYvrfSyYE2K+88sq5q+uYqOypF/uKU/BjMAE5BvR2TjB4QhQnAgxf8kvrPqYsknNrV70z7927d35jLdJlkt4h6c2S1lZMgAwRt0v631XaIMZfffXV2Wvl6/LXtXdKPSfqN7TdZxuQY0CPPSFn90Mk5+Lk5v6RVCK5b3oc0D179pzVDLHhTknf4xug+P7YLCj8dwtD82IXtPGXXcbPxvgpoVIvq4AcA3r82UUtXdaSJxfJQ6a2a9eus5RvGyXdJWlTyAClNryA3izpPxb6IV1wq5cj1GoOPcjmiW33vQbkGNDrHcErFrTktUVyHuecVLBZNzFj8U6+c+fOs1ZwxwysP1ZvXadb75P0E6sEgV966aW6+OLaRoHIWeTZbcgBOQZ0/5l6eclxpTOR3D8taWVlZW5OK9MPSvpcSOeKNp+WxI9FmVDIXXUVqgcjxwHE/LI2vwFnWg/IMaCfvTtOJHda8mtjNrALX3LezXlHL9NHCu1fzJxdH1TJvJPwklmmzZs3j1Yp14Rf9HUBOc5br6FS77tFWi3Cb5ME5BjQT+0wIrnTkvO3V5E89NBt3779LJswGvQNoQNUtPvFmclg0ezGjT42U1sCVq06RG4BOVMG+veVHFde25WWPNXBQlG0bdu2M4bDPv5fiR5wS+H4XR4Ob7kxONAkYlHwMImVelEBOVMCOiI5gEYkp/BAI5HcKdSCdztxQ0TDHTtwe3mByM1M0vQU9EFJX1wYCBMbpjajZhzoIyBn7EBHJMdhBccVRPIoqTaVlrzZ8Tiz92pAv6ZIppbiOQb0FFwMGyOh7R6vKSyrv7z45DECHZHcOa5wg9cOw8IbbNGXPGzLumtlQO+O110+KUFADuWvXjFGoDuRnDxpiOQAvTY5LXnfInnoxA3ooZwadjtnu8eMFxiQMyqgI4KXfckR0WtTOS95E8eV2g9O0MGAnoCJAxwiIJnm4IGO8sxV7xytSB5y9jDdHDlyZO4wUyZ7Rw/h3jja4JbM5bRlCzGIZ9DggE4Ss7KWfBIi+bJjyLvbM888Mwf3snBUA/o4QFy1CvRHl1xyidavXz8/D48++ugggY6jStlxZXIi+WqbDLAJRfVlSjGgjxPo/Mhze2PeLGf9GRrQEcmdlhzPy1FqyWOPIO9kuLqGJHk0oMdyOc9+TjwnoGg1j8TcgY5ITnCIc1whaKQ28QvnTGAwIaQOWO2H9NwBhRthqKGpjwzoPW9Ywse7JJ1VocE5At2J5ICbZIgmkgccitWCVqq6GdADmJpxEy4rQpe5wUPy7OcCdBIxIJLjlYZSrXbisSE4rrR1blYzn/meZUD3cSjP7wE4MQQAvI5k2hfQyyI5ACe1Um2agkgewhQ2cd8+0kCEkwE9nFc5tATUJPOITejRJdARyfEldyJ5VGaCITuutHVgVksq4XuWAd3HoTy+L5vImsyobaBTQcQ5rqAlry2Su3cR3keGUPeryWbE9sUhZv/+egVAyRH3b7EPXOj3BzOR7EsL/8+i1+KZi9Vk7dq1cxNZqpj+1EBHJKfQgNOSR4nkaA8BNp+xasnjj8HZPYloQuNeh4hQ+tQsjvyH63RapS3JqW6apYpezEZ3xRVXDKY2W0MWJOvuTGQAHKCnpBRAJwsgjismkqfcmZpjkfjR5ySzOCTJJ94q6VeKQg11Hvl8IRHcJok6RIu0adOmyWWCrcO/cluXlx+At5U9NwXQ/0fS9XUX6URyZ98OMRHUfcaU2i/L2R7CA6J+flbSjUU437LCSieKii3/Oavkcrek/1syOHt7zTVoAYx8HECDDsDraNB9Y672fQqgf6uo4ON9vonkXhY1anDgwAEdPny40RiI9EAU8KM95b8Jh+FDYfCQSuNTKuIQw2wuNWcii+kf06d1oJuWPGZb4vtgZmNT+yJ+zDdu3BjkxNHXHPt6LgDHPNZHiq1WgA64iZhBmWYieffHCnPboUOHgnzeU85urIUWm/AInjgTWZ/JMlsBetm43/a7R5NNGHNfFHMUbFitoGIb6+YwUzqZH3ejUxzAoQsPthxqx7cCdLfRiHEuHtY2vx8OAHje27G1h0S1xczSvW+2pTGOmVNffeAxwEbBllMmolaB7piNTTCXX7a+DkDfz+UAcruz4Wjom4KePeX2BuQ5Heg++ewAnuMPXidAd8x30TZ2MPo8jqeejZMN8evc+HwIjCHEdTHMFZGcD4cXcPNBB5PjYe6Lq+ij6gaZdD3XToHuFofWEZHeFHVdb3f487jxTb+ynF/wxp3jcK7217IXoLPcsqnBDlR/B8CeXI8DfZrI6s30zNa9Ab2ssEPs6dP00ISB1nf8HHAmMs7pUK0KvQPdHRPe+5bluxr/UbIV5soBp0hOFUXW1zqzAbop7Po6Avbc1TgAsHMzkTXZqeyAzmKcogN3QVPYNdle61uXA4jmAHxs5y5LoLvNMYVd3WNq7WM44CIpu4gii5lfij5ZA90t0LkSDlURkmKjbIz0HBiaiawJBwYBdLdAPI+wvw9dMdJkw6xvcw4M1UTWZOWDArpbqPlWN9nyafZdVqpoKtwYJNCdws6lvzWHm6kc1/rr9JUqqj/iMHsMFuhlhR3ifB/B/MPc8unMemwmsiY7N3iglxV2ixUkmzDG+g6TA3VLFQ1zlfVnPRqglxV2eNilTpdbn7XWo0sOxJYq6nKOfT5rdEB3zCR0EJHewin7PF7tP7tpqaL2Z5jHE0YLdFPY5XHA2poFP+AoY/lBN/JzYNRAd8u3lFb+gzCEFq5UkWUrqr9bkwC6Y4ultKp/QHLogXju9s50L3E7MimglxV2Y4pMitv6/Ht1Uaoofy6kmeEkge5YZymt0hyiNkbpqlRRG3PPccxJA50Nwe8ZwKPYMQ+7fo8o/HeJFvudyfiePnmglxV2ltKqnwM+xSCTrjltQF/guKW06uYIcnvzsR/XbvhtQF/CZ8tB394BJL8AylALN26Px4sjG9AreG0prdIdRGzgAJv6bFbAIx1fQ0cyoAdwylJaBTCpoknOpYqarWw4vQ3oNfbKUlqFM2sKedjCudF/SwN6xB6Ywm4506aUhy3i6PTWxYDegPWW0uoF5hFPgA0cfwSjvDhAMc0nnnhC+/fvX5zYI5Jesfg/1yyZ/rckXZfX0rqbzZQVdmMoVdTdSen+SShAd+7cqaeffvqsKrnFbAzodbcFhd2UUlqNpVRR3X0eSvuVlRVt3bpViOwV9E1JP2A3esSuOhsxmuYxkuVhy3tXqXX/1FNPaffu3b6J3ifp7ZK+bUD3sarie4A+ppRWYy1V1GCLs+u6Z88ePfnkkwLsFbRT0i2S/mZZG3tHj9jaIae0sjxsERveQxfEc8R0xPUKOinpU5J+W9JZWrlyPwN65CaW85oNIULOTGSRG91xt5MnT2rbtm3asWOHULxV0MOS3ibpoZApGtBDuFTRJveUVhZF1nCDO+yOqQyTGaazCjoo6fckfUwSN3oQGdCD2ORvlFtKK36ALCe+f99yaAGwEdMPHDjgm86XJL1b0nZfw8XvDeh1OeZp73zA+wrysCiyxBva4nCI5ojoiOqI7BX0eKFNvzd2Ogb0WM55+nWd0spMZC1tZEvDBtrEj0q6VdKHJfHvaDKgR7PO37FthZ2VKvLvQW4tMJNhLsNs5iFub2zi3OaNyYDemIX+AXhfTpl1xUxkfp7n2AKHFxxfPDZx3r95D+d9PBkZ0JOx0j9QU4WdlSry8zjHFjVs4mjS0aijWU9KBvSk7AwbrG5KK+dzb6WKwvibSysUbASfEITisYljC8cmjm28FTKgt8JW/6AuDTJBMwB5kaxUkZ+HObfYt2/f/F3cYxPHmw2vNrzbgm3iMes2oMdwLWGfxZRW/AA4E5mVKkrI6I6GOnbs2NzpJcAmjl86/un4qbdOBvTWWRz2AMC9adMmbdy40cpCh7Esq1ZIYNu3b59/PDbxxyTdLIlIs87IgN4Zq/0Puvbaa+febEbD4sChQ4fmnm1Hj1aauvnyQ4VNvNLHtY3VG9Db4GrkmAb0SMb11O348ePz9/C9e/f6ZvBPkt4l6Tu+hm19b0Bvi7MR4xrQI5jWU5ddu3bNbeInTpyomsGTkt4zS8t2d0/TPP1YA3rfO1B6vgE9o81YMpUjR47MxfTDhw9XTZYsEc4mXhlQ3tWKlwH97yS9qatJ2HNOccCAnu9J4ObGJs5N7rGJP1C4rpK7LRtaBnQMux+Q9H6qEGcz25FPxICe5wZjE8dkxjt5BfGi/j5Jn2nbJh7DpWVAd2PdKOlzkjbHDG596nHAgF6PX223xiaOmH7woNcj9bOFTdybvbHtOS8b3wd0+gHyz0t6XV+TnMpzDeh57DR2cOLEA2zijxauq/fnMfPlswgBOr0R3xHjEedNlG9pVw3oLTG2xrDc3tzi3OYVdKTAwkdnuOjcJl5jOaebhgLddbihuN1fFPMw61PNAQN6fyeE92/ew3kf99CXC8+2rb6GOX1fF+jM/aoC7K/PaSFjmIsBvftdRIOOJh2NuscmDrBxevnH7mfZ/IkxQHdP/a3Cpe+85tOwEeCAAb3bc4AtHDEd23gFYRP/SCGqVzbsdvb1ntYE6DzptcXt/pJ6j7XWq3HAgN7NueDmxquNm9xDKNlI50ThwkFTU6Cz+CsKE9wbBs2JDCZvQG9/E/BLxz/dYxPHTPZeSX/V/oy6eUIKoLuZ/oakP5Rkonzk3hnQIxkX0I3IMsR0Is089OeF44s3UsU3UE7fpwQ663qNpC/MfglfmtMihzIXA3r6ncIm7uLEPa6ruKwipuPCOjpKDXQYtEHSX0q6aXTcanlBBvS0DCbLCyYzj02coJPfn72C/qmkypKlaWfX7WhtAN2t4J2Sbpd0frdLGu7TDOhp9o48bbyHB9jE/75IrUw46aipTaDDuFdL+qKkl42ai4kWZ0BvxkhnE0ej7knn9N3C6YWEEJOgtoEOEy+V9BcW9uo/TwZ0P4+WtcAmvmXLFpFDvYJwV/1jSR9sWuIofqb99OwC6G5lvybpTySt62ep+T/VgF5/j6h6wg1OFRQPfbVQtpGccXLUJdBh7islkdTi2slxOmDBBvQAJpWaUL+Md3FPiSPSKZNWmfTKk6WugQ6jL5b0SUk/P1muL1m4AT3sRNQoceRs4hRKmDT1AXTH8LdKumOW/nb9pHegtHgDevVJQMFGLXFixT028W8UceIP2tk6xYE+gc7zrytE+ZfbhlhQS9UZwCaOZ5unxBGpYChS+PEx28RjsNI30JkzN/qdkt4Ss4Ax9bEb/ezdBNg4vezf75W+KTNMauWnx3QmUq0lB6C7tfxSAXje4SdJBvQXth3RHBEdUd1jE3+8sInfM8lDE7jonIDOlBHh0coj0k+ODOintnxlZWUupgfYxG+TdOvUbOIxwMgN6E6Ux97+qzELGnKfqQMdMxnmMsxmHrq3sIlzmxsFcCBHoLtpY377ROFZF7CU4TeZMtBxeMHxxWMT3168h981/N3udgU5Ax1O4FiDKI+jzehpikCvYRNHk45G3auVG/1BiVhg7kBnSbjMEgX3joj1DarLlICOgo2EjDt37vTZxB8qbOIPD2ozM5vsEIDuWEYtOIJjCJIZJU0F6JjKMJl5bOLc3L8zKyDyZzmWOBraARwS0OEtmWsQ5Ql/HR2NHegkgADgOL946G8L/3TeyY0ScGBoQGfJJLIgN92vJ1h/VkOMFeg1bOLfLrTp92W1MSOYzBCB7thOqipSVpG6ahQ0RqCTjBGbOMkZK4gvPzTzkvzwUEocDe3ADRno8Jp88mSwISnl4GlMQK9hE/9K4dn2ncFvYMYLGDrQYS3ppfGO+s2M+Rw0tbEAncII2MQ9JY7wSX/3zAvy7iDmWKNGHBgD0B0DKCBBLXcKSgyShg50ShshppPWqYLItPqxwiZOBlajDjgwJqDDrhcXeeUpFTU4GirQubmxiXOTe+LEv14o24gXN+qQA2MDuhPlSf5HEchB1XIfItBJqYzJzFPiCJv4+2Y/xGR8Odnh+bZHFRwYI9Dd5lLW+fNFmedBbPiQgI5NHDH94EFyPVTSZwubuDd7o28g+z6eA2MGOlx5UQH2G+JZ1F3PIQAd0dyVOPLEiT9aiOlf646D9qRlHBg70Fk34vsHZvbZ9+cuyucO9ECbODXEeXWipjh51I0y4MAUgO7YzK1OAcjNGfB91SnkCnTev4kTp+Swh74s6V2ztGBUQjHKiANTAjpsB+R/PauYyft7dpQj0IkuQ6PusYlvLWzi/5AdU21Ccw5MDehOlEeMp4JmVrXccwI6NnFKHPG3grCJf7R4NTKbeMY/KlMEutsObO24z6Kwy4JyALqziXOTe+j+Qtn2iK+hfd8/B6YMdLh/VSHK41XXO/UNdN7BeRf32MQxk2ET/0zvDLMJBHNg6kB3jMK5huipXkX5voBOZBlOLwE2ccANyM0mHgyxPBoa0F/YByLgEOWJiOuFugY6dnBnE/e4riKev22mxHygF8bYQxtzwIB+JgsJiCHG/Y2NORsxQJdA5/bGsw0PtwpCwYYPAgo3FG9GA+WAAX31jSN7zR91Lcp3AXTevxHT8VH3EKYywkgxnRkNnAMG9OUbSF468tORp64TahPoiOZElwXYxHF2wekF5xejkXDAgF69kaSpIvPsz3Wx320BnfhwxHSPTRx3VdxWEdUr8z51wQt7RloOGNDD+PnOIrc8iSlbo9RAxyZOphducg8ReIKy7TFfQ/t+mBwwoIfv26sKrTzVY1qhlECnfhk2cU+JI7xi3iuJUFKjEXPAgF5vcyke8WlJb67XLax1CqBjE0dMJ9Ksgkj+QBIIbOJW4ihsewbdyoAet31Uer2jKBcVN8IqvZoAHZs4tcSpKe6xiZPGCTH9wWQTt4Gy54ABPX6Lri9EeWq6J6FYoFP5BJNZgE2cIoUkZjSbeJIdG84gBvRme3WxpE9KosRzY6oLdGqXAXBqmXmIlMrYxEmxbDRBDhjQ02z6WyTdOas0sr7JcKFARzR3ceKedE4URbh5VuCCIglGE+aAAT3d5l9XZLDhbxSFAH1lZWWubKOueAVhE7+tKGxhNvGo3RhXJwN62v3kRudm54avTVVAx0yGTXz3bm/gGAUK3z57naBgoZFxYM4BA3o7B+EXJH1CEu/wwbQM6IE2cUoM3yKJksNGxoEzOGBAb+9AoI0n7BXtfBAtAh3xHDEdcb2CsIl/vChx5NXKBU3EGo2OAwb0drd0XWFvx+7uJQf0Gjbxhwub+EPewa3BpDlgQO9m+/Gkw6MOz7qlBNDRqGMyw3RWQdzc2MS5ya3EUTd7OOinGNC72z585BHl8ZlfldatWydcWD10l6T3SOKd3Mg4EMQBA3oQm5I1Ivrt9lnONaLh6hJadGzi99btaO2NAwb0fs4A8e3EuRPv7iOu+FsLu7iVOPJxy75flQMG9P4OBplryGBDJptldE9xiz/e3zTtyWPggAG9310kvTS56chRVyZ80vFNx0fdyDjQmAMG9MYsTDLATYUoj1be2cS9hceTPNkGmQQHDOj5bDP55Ek3Tby4kXEgKQcM6EnZaYMZB/LkwP8DeB50N0G/2hUAAAAASUVORK5CYII=;strokeColor=#BAC8D3;fontFamily=Helvetica;fontSize=11;fontColor=default;labelBackgroundColor=default;fillColor=#09555B;" vertex="1" parent="1">
          <mxGeometry x="-960" y="12" width="132" height="85" as="geometry" />
        </mxCell>
        <mxCell id="ctGknOU3to6DTLFT-ZeR-16" style="edgeStyle=orthogonalEdgeStyle;shape=connector;curved=0;rounded=1;orthogonalLoop=1;jettySize=auto;html=1;strokeColor=#FF0000;strokeWidth=5;align=center;verticalAlign=middle;fontFamily=Helvetica;fontSize=11;fontColor=default;labelBackgroundColor=default;endArrow=none;endFill=0;fillColor=#a20025;" edge="1" parent="1" source="ctGknOU3to6DTLFT-ZeR-12">
          <mxGeometry relative="1" as="geometry">
            <mxPoint x="-852" y="157.33333333333337" as="targetPoint" />
          </mxGeometry>
        </mxCell>
        <mxCell id="ctGknOU3to6DTLFT-ZeR-12" value="The Internet" style="text;html=1;align=center;verticalAlign=middle;whiteSpace=wrap;rounded=0;fontFamily=Helvetica;fontSize=17;fontColor=#FFFFFF;labelBackgroundColor=none;fontStyle=1" vertex="1" parent="1">
          <mxGeometry x="-937" y="42" width="60" height="31" as="geometry" />
        </mxCell>
        <mxCell id="ctGknOU3to6DTLFT-ZeR-14" style="edgeStyle=orthogonalEdgeStyle;shape=connector;curved=0;rounded=1;orthogonalLoop=1;jettySize=auto;html=1;entryX=0.1;entryY=0.35;entryDx=0;entryDy=0;entryPerimeter=0;strokeColor=#62ff00;strokeWidth=5;align=center;verticalAlign=middle;fontFamily=Helvetica;fontSize=11;fontColor=default;labelBackgroundColor=default;endArrow=none;endFill=0;fillColor=#60a917;" edge="1" parent="1" source="ctGknOU3to6DTLFT-ZeR-5" target="ctGknOU3to6DTLFT-ZeR-7">
          <mxGeometry relative="1" as="geometry">
            <Array as="points">
              <mxPoint x="-820" y="227" />
              <mxPoint x="-1050" y="227" />
            </Array>
          </mxGeometry>
        </mxCell>
        <mxCell id="ctGknOU3to6DTLFT-ZeR-75" value="All VLANs" style="edgeLabel;html=1;align=center;verticalAlign=middle;resizable=0;points=[];strokeColor=#BAC8D3;fontFamily=Helvetica;fontSize=20;fontColor=#FFFFFF;labelBackgroundColor=none;fillColor=#09555B;fontStyle=1;spacingTop=-27;" vertex="1" connectable="0" parent="ctGknOU3to6DTLFT-ZeR-14">
          <mxGeometry x="0.1822" y="1" relative="1" as="geometry">
            <mxPoint as="offset" />
          </mxGeometry>
        </mxCell>
        <mxCell id="ctGknOU3to6DTLFT-ZeR-17" value="&lt;font&gt;pfsense VLAN&lt;/font&gt;" style="swimlane;fontStyle=1;childLayout=stackLayout;horizontal=1;startSize=30;horizontalStack=0;resizeParent=1;resizeParentMax=0;resizeLast=0;collapsible=1;marginBottom=0;whiteSpace=wrap;html=1;strokeColor=#BAC8D3;fontFamily=Helvetica;fontSize=17;fontColor=#FFFFFF;labelBackgroundColor=none;fillColor=#09555B;" vertex="1" parent="1">
          <mxGeometry x="-595" y="107" width="319" height="120" as="geometry" />
        </mxCell>
        <mxCell id="ctGknOU3to6DTLFT-ZeR-18" value="Management 192.168.86.1/24 VLAN Native (1)" style="text;strokeColor=none;fillColor=none;align=left;verticalAlign=middle;spacingLeft=4;spacingRight=4;overflow=hidden;points=[[0,0.5],[1,0.5]];portConstraint=eastwest;rotatable=0;whiteSpace=wrap;html=1;fontFamily=Helvetica;fontSize=13;fontColor=default;labelBackgroundColor=default;" vertex="1" parent="ctGknOU3to6DTLFT-ZeR-17">
          <mxGeometry y="30" width="319" height="30" as="geometry" />
        </mxCell>
        <mxCell id="ctGknOU3to6DTLFT-ZeR-19" value="Lab Defautl&amp;nbsp;10.69.100.1/24 VLAN 100" style="text;strokeColor=none;fillColor=none;align=left;verticalAlign=middle;spacingLeft=4;spacingRight=4;overflow=hidden;points=[[0,0.5],[1,0.5]];portConstraint=eastwest;rotatable=0;whiteSpace=wrap;html=1;fontFamily=Helvetica;fontSize=13;fontColor=default;labelBackgroundColor=default;" vertex="1" parent="ctGknOU3to6DTLFT-ZeR-17">
          <mxGeometry y="60" width="319" height="30" as="geometry" />
        </mxCell>
        <mxCell id="ctGknOU3to6DTLFT-ZeR-20" value="CGNAT-34-34&amp;nbsp; VLAN 3434" style="text;strokeColor=none;fillColor=none;align=left;verticalAlign=middle;spacingLeft=4;spacingRight=4;overflow=hidden;points=[[0,0.5],[1,0.5]];portConstraint=eastwest;rotatable=0;whiteSpace=wrap;html=1;fontFamily=Helvetica;fontSize=13;fontColor=default;labelBackgroundColor=default;" vertex="1" parent="ctGknOU3to6DTLFT-ZeR-17">
          <mxGeometry y="90" width="319" height="30" as="geometry" />
        </mxCell>
        <mxCell id="ctGknOU3to6DTLFT-ZeR-41" value="&lt;b style=&quot;color: rgb(128, 255, 0); font-size: 20px;&quot;&gt;XCP-NG Host(s)&lt;/b&gt;" style="verticalAlign=top;verticalLabelPosition=bottom;labelPosition=center;align=center;html=1;outlineConnect=0;gradientDirection=north;strokeWidth=2;shape=mxgraph.networks.server;fillColor=#F45B69;strokeColor=#028090;fontColor=#E4FDE1;" vertex="1" parent="1">
          <mxGeometry x="-974" y="405" width="90" height="100" as="geometry" />
        </mxCell>
        <mxCell id="ctGknOU3to6DTLFT-ZeR-42" value="" style="shape=image;imageAspect=0;aspect=fixed;verticalLabelPosition=bottom;verticalAlign=top;image=https://xcp-ng.org/assets/img/mainlogo.png;fillColor=#F45B69;strokeColor=#028090;fontColor=#E4FDE1;" vertex="1" parent="1">
          <mxGeometry x="-952.75" y="431.25" width="47.5" height="47.5" as="geometry" />
        </mxCell>
        <mxCell id="ctGknOU3to6DTLFT-ZeR-43" style="edgeStyle=orthogonalEdgeStyle;shape=connector;curved=0;rounded=1;orthogonalLoop=1;jettySize=auto;html=1;exitX=0.1;exitY=0.65;exitDx=0;exitDy=0;exitPerimeter=0;strokeColor=#62ff00;strokeWidth=5;align=center;verticalAlign=middle;fontFamily=Helvetica;fontSize=11;fontColor=default;labelBackgroundColor=default;endArrow=none;endFill=0;fillColor=#60a917;" edge="1" parent="1" source="ctGknOU3to6DTLFT-ZeR-7" target="ctGknOU3to6DTLFT-ZeR-41">
          <mxGeometry relative="1" as="geometry" />
        </mxCell>
        <mxCell id="ctGknOU3to6DTLFT-ZeR-74" value="All VLANs" style="edgeLabel;html=1;align=center;verticalAlign=middle;resizable=0;points=[];strokeColor=#BAC8D3;fontFamily=Helvetica;fontSize=20;fontColor=#FFFFFF;labelBackgroundColor=none;fillColor=#09555B;spacingTop=-26;fontStyle=1" vertex="1" connectable="0" parent="ctGknOU3to6DTLFT-ZeR-43">
          <mxGeometry x="0.033" y="4" relative="1" as="geometry">
            <mxPoint y="1" as="offset" />
          </mxGeometry>
        </mxCell>
        <mxCell id="ctGknOU3to6DTLFT-ZeR-44" value="&lt;font&gt;UniFi &amp;amp; XCP-ng&lt;/font&gt;" style="swimlane;fontStyle=1;childLayout=stackLayout;horizontal=1;startSize=30;horizontalStack=0;resizeParent=1;resizeParentMax=0;resizeLast=0;collapsible=1;marginBottom=0;whiteSpace=wrap;html=1;strokeColor=#BAC8D3;fontFamily=Helvetica;fontSize=17;fontColor=#FFFFFF;labelBackgroundColor=none;fillColor=#09555B;" vertex="1" parent="1">
          <mxGeometry x="-595" y="264" width="319" height="510" as="geometry" />
        </mxCell>
        <mxCell id="ctGknOU3to6DTLFT-ZeR-45" value="Management 192.168.86.1/24 VLAN Native (1)" style="text;strokeColor=none;fillColor=none;align=left;verticalAlign=middle;spacingLeft=4;spacingRight=4;overflow=hidden;points=[[0,0.5],[1,0.5]];portConstraint=eastwest;rotatable=0;whiteSpace=wrap;html=1;fontFamily=Helvetica;fontSize=13;fontColor=default;labelBackgroundColor=default;" vertex="1" parent="ctGknOU3to6DTLFT-ZeR-44">
          <mxGeometry y="30" width="319" height="30" as="geometry" />
        </mxCell>
        <mxCell id="ctGknOU3to6DTLFT-ZeR-46" value="Storage VLAN 20" style="text;strokeColor=none;fillColor=none;align=left;verticalAlign=middle;spacingLeft=4;spacingRight=4;overflow=hidden;points=[[0,0.5],[1,0.5]];portConstraint=eastwest;rotatable=0;whiteSpace=wrap;html=1;fontFamily=Helvetica;fontSize=13;fontColor=default;labelBackgroundColor=default;" vertex="1" parent="ctGknOU3to6DTLFT-ZeR-44">
          <mxGeometry y="60" width="319" height="30" as="geometry" />
        </mxCell>
        <mxCell id="ctGknOU3to6DTLFT-ZeR-47" value="Lab Default 10.69.100.1/24 VLAN 100" style="text;strokeColor=none;fillColor=none;align=left;verticalAlign=middle;spacingLeft=4;spacingRight=4;overflow=hidden;points=[[0,0.5],[1,0.5]];portConstraint=eastwest;rotatable=0;whiteSpace=wrap;html=1;fontFamily=Helvetica;fontSize=13;fontColor=default;labelBackgroundColor=default;" vertex="1" parent="ctGknOU3to6DTLFT-ZeR-44">
          <mxGeometry y="90" width="319" height="30" as="geometry" />
        </mxCell>
        <mxCell id="ctGknOU3to6DTLFT-ZeR-56" value="LAB101 VLAN 101" style="text;strokeColor=none;fillColor=none;align=left;verticalAlign=middle;spacingLeft=4;spacingRight=4;overflow=hidden;points=[[0,0.5],[1,0.5]];portConstraint=eastwest;rotatable=0;whiteSpace=wrap;html=1;fontFamily=Helvetica;fontSize=13;fontColor=default;labelBackgroundColor=default;" vertex="1" parent="ctGknOU3to6DTLFT-ZeR-44">
          <mxGeometry y="120" width="319" height="30" as="geometry" />
        </mxCell>
        <mxCell id="ctGknOU3to6DTLFT-ZeR-57" value="LAB102 VLAN 102" style="text;strokeColor=none;fillColor=none;align=left;verticalAlign=middle;spacingLeft=4;spacingRight=4;overflow=hidden;points=[[0,0.5],[1,0.5]];portConstraint=eastwest;rotatable=0;whiteSpace=wrap;html=1;fontFamily=Helvetica;fontSize=13;fontColor=default;labelBackgroundColor=default;" vertex="1" parent="ctGknOU3to6DTLFT-ZeR-44">
          <mxGeometry y="150" width="319" height="30" as="geometry" />
        </mxCell>
        <mxCell id="ctGknOU3to6DTLFT-ZeR-58" value="LAB103 VLAN 103" style="text;strokeColor=none;fillColor=none;align=left;verticalAlign=middle;spacingLeft=4;spacingRight=4;overflow=hidden;points=[[0,0.5],[1,0.5]];portConstraint=eastwest;rotatable=0;whiteSpace=wrap;html=1;fontFamily=Helvetica;fontSize=13;fontColor=default;labelBackgroundColor=default;" vertex="1" parent="ctGknOU3to6DTLFT-ZeR-44">
          <mxGeometry y="180" width="319" height="30" as="geometry" />
        </mxCell>
        <mxCell id="ctGknOU3to6DTLFT-ZeR-59" value="LAB104 VLAN 104" style="text;strokeColor=none;fillColor=none;align=left;verticalAlign=middle;spacingLeft=4;spacingRight=4;overflow=hidden;points=[[0,0.5],[1,0.5]];portConstraint=eastwest;rotatable=0;whiteSpace=wrap;html=1;fontFamily=Helvetica;fontSize=13;fontColor=default;labelBackgroundColor=default;" vertex="1" parent="ctGknOU3to6DTLFT-ZeR-44">
          <mxGeometry y="210" width="319" height="30" as="geometry" />
        </mxCell>
        <mxCell id="ctGknOU3to6DTLFT-ZeR-60" value="LAB105 VLAN 105" style="text;strokeColor=none;fillColor=none;align=left;verticalAlign=middle;spacingLeft=4;spacingRight=4;overflow=hidden;points=[[0,0.5],[1,0.5]];portConstraint=eastwest;rotatable=0;whiteSpace=wrap;html=1;fontFamily=Helvetica;fontSize=13;fontColor=default;labelBackgroundColor=default;" vertex="1" parent="ctGknOU3to6DTLFT-ZeR-44">
          <mxGeometry y="240" width="319" height="30" as="geometry" />
        </mxCell>
        <mxCell id="ctGknOU3to6DTLFT-ZeR-61" value="LAB106 VLAN 106" style="text;strokeColor=none;fillColor=none;align=left;verticalAlign=middle;spacingLeft=4;spacingRight=4;overflow=hidden;points=[[0,0.5],[1,0.5]];portConstraint=eastwest;rotatable=0;whiteSpace=wrap;html=1;fontFamily=Helvetica;fontSize=13;fontColor=default;labelBackgroundColor=default;" vertex="1" parent="ctGknOU3to6DTLFT-ZeR-44">
          <mxGeometry y="270" width="319" height="30" as="geometry" />
        </mxCell>
        <mxCell id="ctGknOU3to6DTLFT-ZeR-62" value="LAB107 VLAN 107" style="text;strokeColor=none;fillColor=none;align=left;verticalAlign=middle;spacingLeft=4;spacingRight=4;overflow=hidden;points=[[0,0.5],[1,0.5]];portConstraint=eastwest;rotatable=0;whiteSpace=wrap;html=1;fontFamily=Helvetica;fontSize=13;fontColor=default;labelBackgroundColor=default;" vertex="1" parent="ctGknOU3to6DTLFT-ZeR-44">
          <mxGeometry y="300" width="319" height="30" as="geometry" />
        </mxCell>
        <mxCell id="ctGknOU3to6DTLFT-ZeR-63" value="LAB108 VLAN 108" style="text;strokeColor=none;fillColor=none;align=left;verticalAlign=middle;spacingLeft=4;spacingRight=4;overflow=hidden;points=[[0,0.5],[1,0.5]];portConstraint=eastwest;rotatable=0;whiteSpace=wrap;html=1;fontFamily=Helvetica;fontSize=13;fontColor=default;labelBackgroundColor=default;" vertex="1" parent="ctGknOU3to6DTLFT-ZeR-44">
          <mxGeometry y="330" width="319" height="30" as="geometry" />
        </mxCell>
        <mxCell id="ctGknOU3to6DTLFT-ZeR-64" value="LAB109 VLAN 109" style="text;strokeColor=none;fillColor=none;align=left;verticalAlign=middle;spacingLeft=4;spacingRight=4;overflow=hidden;points=[[0,0.5],[1,0.5]];portConstraint=eastwest;rotatable=0;whiteSpace=wrap;html=1;fontFamily=Helvetica;fontSize=13;fontColor=default;labelBackgroundColor=default;" vertex="1" parent="ctGknOU3to6DTLFT-ZeR-44">
          <mxGeometry y="360" width="319" height="30" as="geometry" />
        </mxCell>
        <mxCell id="ctGknOU3to6DTLFT-ZeR-65" value="LAB110 VLAN 110" style="text;strokeColor=none;fillColor=none;align=left;verticalAlign=middle;spacingLeft=4;spacingRight=4;overflow=hidden;points=[[0,0.5],[1,0.5]];portConstraint=eastwest;rotatable=0;whiteSpace=wrap;html=1;fontFamily=Helvetica;fontSize=13;fontColor=default;labelBackgroundColor=default;" vertex="1" parent="ctGknOU3to6DTLFT-ZeR-44">
          <mxGeometry y="390" width="319" height="30" as="geometry" />
        </mxCell>
        <mxCell id="ctGknOU3to6DTLFT-ZeR-66" value="WANLAB1 VLAN 300" style="text;strokeColor=none;fillColor=none;align=left;verticalAlign=middle;spacingLeft=4;spacingRight=4;overflow=hidden;points=[[0,0.5],[1,0.5]];portConstraint=eastwest;rotatable=0;whiteSpace=wrap;html=1;fontFamily=Helvetica;fontSize=13;fontColor=default;labelBackgroundColor=default;" vertex="1" parent="ctGknOU3to6DTLFT-ZeR-44">
          <mxGeometry y="420" width="319" height="30" as="geometry" />
        </mxCell>
        <mxCell id="ctGknOU3to6DTLFT-ZeR-67" value="WANLAB2 VLAN 302" style="text;strokeColor=none;fillColor=none;align=left;verticalAlign=middle;spacingLeft=4;spacingRight=4;overflow=hidden;points=[[0,0.5],[1,0.5]];portConstraint=eastwest;rotatable=0;whiteSpace=wrap;html=1;fontFamily=Helvetica;fontSize=13;fontColor=default;labelBackgroundColor=default;" vertex="1" parent="ctGknOU3to6DTLFT-ZeR-44">
          <mxGeometry y="450" width="319" height="30" as="geometry" />
        </mxCell>
        <mxCell id="ctGknOU3to6DTLFT-ZeR-68" value="CGNAT-34-34 VLAN 3434" style="text;strokeColor=none;fillColor=none;align=left;verticalAlign=middle;spacingLeft=4;spacingRight=4;overflow=hidden;points=[[0,0.5],[1,0.5]];portConstraint=eastwest;rotatable=0;whiteSpace=wrap;html=1;fontFamily=Helvetica;fontSize=13;fontColor=default;labelBackgroundColor=default;" vertex="1" parent="ctGknOU3to6DTLFT-ZeR-44">
          <mxGeometry y="480" width="319" height="30" as="geometry" />
        </mxCell>
        <UserObject label="&lt;font style=&quot;font-size: 20px&quot; color=&quot;#80ff00&quot;&gt;&lt;b&gt;NAS / SAN Storage&lt;br&gt;&lt;/b&gt;&lt;/font&gt;" id="ctGknOU3to6DTLFT-ZeR-71">
          <mxCell style="verticalAlign=top;verticalLabelPosition=bottom;labelPosition=center;align=center;html=1;outlineConnect=0;gradientDirection=north;strokeWidth=2;shape=mxgraph.networks.server_storage;fillColor=#F45B69;strokeColor=#028090;fontColor=#E4FDE1;" vertex="1" parent="1">
            <mxGeometry x="-968" y="575" width="105" height="90" as="geometry" />
          </mxCell>
        </UserObject>
        <mxCell id="ctGknOU3to6DTLFT-ZeR-72" style="edgeStyle=orthogonalEdgeStyle;shape=connector;curved=0;rounded=1;orthogonalLoop=1;jettySize=auto;html=1;exitX=0.9;exitY=0.68;exitDx=0;exitDy=0;exitPerimeter=0;strokeColor=#FF9933;strokeWidth=5;align=center;verticalAlign=middle;fontFamily=Helvetica;fontSize=11;fontColor=default;labelBackgroundColor=default;endArrow=none;endFill=0;fillColor=#60a917;" edge="1" parent="1" source="ctGknOU3to6DTLFT-ZeR-7" target="ctGknOU3to6DTLFT-ZeR-71">
          <mxGeometry relative="1" as="geometry">
            <Array as="points">
              <mxPoint x="-738" y="606" />
            </Array>
          </mxGeometry>
        </mxCell>
        <mxCell id="ctGknOU3to6DTLFT-ZeR-73" value="VLAN 20" style="edgeLabel;html=1;align=center;verticalAlign=middle;resizable=0;points=[];strokeColor=#BAC8D3;fontFamily=Helvetica;fontSize=20;fontColor=#FFFFFF;labelBackgroundColor=none;fillColor=#09555B;rotation=-90;spacingRight=0;spacingTop=-30;fontStyle=1" vertex="1" connectable="0" parent="ctGknOU3to6DTLFT-ZeR-72">
          <mxGeometry x="-0.4028" y="1" relative="1" as="geometry">
            <mxPoint as="offset" />
          </mxGeometry>
        </mxCell>
        <mxCell id="ctGknOU3to6DTLFT-ZeR-76" style="edgeStyle=orthogonalEdgeStyle;shape=connector;curved=0;rounded=1;orthogonalLoop=1;jettySize=auto;html=1;entryX=0.79;entryY=0.65;entryDx=0;entryDy=0;entryPerimeter=0;strokeColor=#FF9933;strokeWidth=5;align=center;verticalAlign=middle;fontFamily=Helvetica;fontSize=11;fontColor=default;labelBackgroundColor=default;endArrow=none;endFill=0;fillColor=#60a917;" edge="1" parent="1" source="ctGknOU3to6DTLFT-ZeR-41" target="ctGknOU3to6DTLFT-ZeR-7">
          <mxGeometry relative="1" as="geometry">
            <Array as="points">
              <mxPoint x="-781" y="455" />
            </Array>
          </mxGeometry>
        </mxCell>
        <mxCell id="ctGknOU3to6DTLFT-ZeR-77" value="VLAN 20" style="edgeLabel;html=1;align=center;verticalAlign=middle;resizable=0;points=[];strokeColor=#FF9933;fontFamily=Helvetica;fontSize=20;fontColor=#FFFFFF;labelBackgroundColor=none;fillColor=#60a917;rounded=1;strokeWidth=5;rotation=-90;spacingTop=-30;fontStyle=1" vertex="1" connectable="0" parent="ctGknOU3to6DTLFT-ZeR-76">
          <mxGeometry x="0.3081" y="1" relative="1" as="geometry">
            <mxPoint as="offset" />
          </mxGeometry>
        </mxCell>
      </root>
    </mxGraphModel>
  </diagram>
  <diagram name="Virtual pfsense" id="ZvQSYUHdSJLZWgRAzExe">
    <mxGraphModel dx="2548" dy="1196" grid="0" gridSize="10" guides="1" tooltips="1" connect="1" arrows="1" fold="1" page="1" pageScale="1" pageWidth="1100" pageHeight="850" math="0" shadow="0">
      <root>
        <mxCell id="Xe_iNNLOO6JcA-pmjDCq-0" />
        <mxCell id="Xe_iNNLOO6JcA-pmjDCq-1" parent="Xe_iNNLOO6JcA-pmjDCq-0" />
        <mxCell id="Xe_iNNLOO6JcA-pmjDCq-2" value="" style="group" vertex="1" connectable="0" parent="Xe_iNNLOO6JcA-pmjDCq-1">
          <mxGeometry x="-1038" y="124" width="486" height="72" as="geometry" />
        </mxCell>
        <mxCell id="Xe_iNNLOO6JcA-pmjDCq-3" value="" style="aspect=fixed;perimeter=ellipsePerimeter;html=1;align=center;fontSize=12;verticalAlign=top;shadow=0;dashed=0;image;image=img/lib/cumulus/switch_bare_metal_empty.svg;rounded=0;sketch=0;hachureGap=4;fillColor=#F45B69;strokeColor=#028090;fontColor=#E4FDE1;labelBackgroundColor=#114B5F;connectable=0;" vertex="1" parent="Xe_iNNLOO6JcA-pmjDCq-2">
          <mxGeometry width="288" height="72" as="geometry" />
        </mxCell>
        <mxCell id="Xe_iNNLOO6JcA-pmjDCq-4" value="" style="shape=image;imageAspect=0;aspect=fixed;verticalLabelPosition=bottom;verticalAlign=top;rounded=0;labelBackgroundColor=none;sketch=0;hachureGap=4;fontSize=30;fontColor=#1A1A1A;strokeColor=#028090;fillColor=#F45B69;image=https://upload.wikimedia.org/wikipedia/commons/thumb/b/b9/PfSense_logo.png/1200px-PfSense_logo.png;" vertex="1" parent="Xe_iNNLOO6JcA-pmjDCq-2">
          <mxGeometry x="35.42056074766355" y="17.49532710280374" width="125.78467289719626" height="37.00934579439252" as="geometry" />
        </mxCell>
        <mxCell id="Xe_iNNLOO6JcA-pmjDCq-5" value="wan" style="text;strokeColor=none;fillColor=none;html=1;align=center;verticalAlign=middle;whiteSpace=wrap;rounded=0;hachureGap=4;fontColor=#FF0000;fontStyle=1" vertex="1" parent="Xe_iNNLOO6JcA-pmjDCq-2">
          <mxGeometry x="157.00093457943922" y="36.99644859813083" width="53.13084112149532" height="20.186915887850468" as="geometry" />
        </mxCell>
        <mxCell id="Xe_iNNLOO6JcA-pmjDCq-6" value="ice2" style="text;strokeColor=none;fillColor=none;html=1;align=center;verticalAlign=middle;whiteSpace=wrap;rounded=0;hachureGap=4;fontColor=#0000FF;fontStyle=1" vertex="1" parent="Xe_iNNLOO6JcA-pmjDCq-2">
          <mxGeometry x="191.00457943925235" y="12.996448598130833" width="53.13084112149532" height="20.186915887850468" as="geometry" />
        </mxCell>
        <mxCell id="Xe_iNNLOO6JcA-pmjDCq-7" style="vsdxID=5;fillColor=none;gradientColor=none;image;aspect=fixed;image=data:image/jpg,/9j/4AAQSkZJRgABAQAAAQABAAD/4gHYSUNDX1BST0ZJTEUAAQEAAAHIAAAAAAQwAABtbnRyUkdCIFhZWiAH4AABAAEAAAAAAABhY3NwAAAAAAAAAAAAAAAAAAAAAAAAAAAAAAAAAAAAAQAA9tYAAQAAAADTLQAAAAAAAAAAAAAAAAAAAAAAAAAAAAAAAAAAAAAAAAAAAAAAAAAAAAAAAAAAAAAAAAAAAAlkZXNjAAAA8AAAACRyWFlaAAABFAAAABRnWFlaAAABKAAAABRiWFlaAAABPAAAABR3dHB0AAABUAAAABRyVFJDAAABZAAAAChnVFJDAAABZAAAAChiVFJDAAABZAAAAChjcHJ0AAABjAAAADxtbHVjAAAAAAAAAAEAAAAMZW5VUwAAAAgAAAAcAHMAUgBHAEJYWVogAAAAAAAAb6IAADj1AAADkFhZWiAAAAAAAABimQAAt4UAABjaWFlaIAAAAAAAACSgAAAPhAAAts9YWVogAAAAAAAA9tYAAQAAAADTLXBhcmEAAAAAAAQAAAACZmYAAPKnAAANWQAAE9AAAApbAAAAAAAAAABtbHVjAAAAAAAAAAEAAAAMZW5VUwAAACAAAAAcAEcAbwBvAGcAbABlACAASQBuAGMALgAgADIAMAAxADb/2wBDAAMCAgICAgMCAgIDAwMDBAYEBAQEBAgGBgUGCQgKCgkICQkKDA8MCgsOCwkJDRENDg8QEBEQCgwSExIQEw8QEBD/2wBDAQMDAwQDBAgEBAgQCwkLEBAQEBAQEBAQEBAQEBAQEBAQEBAQEBAQEBAQEBAQEBAQEBAQEBAQEBAQEBAQEBAQEBD/wAARCABEAskDASIAAhEBAxEB/8QAHQAAAQQDAQEAAAAAAAAAAAAABwACBggBBQkEA//EAF8QAAECBQMCAgQJBwYICgYLAAECAwAEBQYRBxIhCDETQSJRYdIUFRcjMnGBkdEJM0JTY5KTFkNyoaKxGCUnUmKC4vAkJjZ1hZWys8HhGVRXc5TCN0ZHVVZldIOE0/H/xAAZAQEBAQEBAQAAAAAAAAAAAAAAAQIDBAX/xAAwEQABBAAGAgEDAwMFAQAAAAABAAIDEQQSITFBURNxYRQigQWR8CMysSQzUqHR8f/aAAwDAQACEQMRAD8AvAqqTu9QM053I+lGBVJwcGZc/ejyOqIcXnHCj/fAxqPU9070eoP0uqa1WhLzco4pp9pdTb3NrScFJxxkH+6Noi38aT3B+EufvGEKnO/+tOfvQHR1X9NH/tzs3/rJEZPVf00pxnXOzh5j/GSO0Wj0iMSanPec05+8YyKnPDj4U5+9AdHVh00Hk652bj/nNES+ydTtPNS5aYnNPr2o1wsyqwh9VPm0PeEo9goDkZ8sjmJRRTMVSfHeac/egRan07qmqlymb0p1Tt6jUMsISJSfpgedS6Ppq34OQfL1QUAM8nMRy8L7pNlpYXVUvJbfUEhxDS3ACT5hAJiEgCyqASaCEpoHXW2krXrpZgA7k0YYA/cjDdJ63lPKlfl6slT6Rktijp3DgHkbc9iD9sbTWjqh0v0ntozl0zbsz8MQQzJsS77bryQoBW0uNgejnJ58oEun35QzQOt3OqnJp1UpztSccdVOTTZcCVEDDYCAVc4AGB/5cop4p2CWJwc08g2P3C3I10RyvFEdom/EHXR3VrhZgI8hRP8AZjC6L1xN7Q5rlZSdx2p3UbGT6vo9zEzc1zs5hUsibFQYdnFbJdpVNmd7qsZwkbOfXAw1t6y9I9NESElc0pWnppbqJkSjUqtlxKRkpWfESMpJB7c8Ryix2FnIbFK1xIsUQbA0JHYB09rLAZGeVgtu1ja+r7W5ZpfW3MlSWNdbHcKT6QTSAcckeSfWCPsMfQ0LrmCs/LXZWP8AmU+7EK0c67NC7unBbNIlKrIzailDAfllOuzjqiTtSGwSTnJ54g1Oa42ay8iSdbqwmVtF1DHxVMKWUA8nAT2zGpcZBA7JLIGmrokDQbn18qNOd4jbq47Dk/jdQddI63Gxsc1wslKsFXNHxhI7n6PlDWaT1tTTYcl9c7JdRkgqRSMjj6kxBtYOujQy0K+aFVpWvzc2yw9LPeBLllUupWApCkuAHdgA+rnziT6P9aOi+pMmafbErVpabZ3YkUyK3XC2kDLhKARjkck5jbp42R+ZzgG1d3pXd7Uj3eO8+lb2toaH1yZyNZ7KH/Q54/sx8nKf1tS6VeLrhYiC3gq3UnAGTgZynzJieI1usx55+Ulma2/MS20vst0h8qayMjdxgcRXDUD8oXoJTrjm6Q7Ra9PpYdZzMNNhtLobydu1XpAbioEH1RmLFQTktieHEUdCDodQdOxt2t5XBgkr7TseD6KKzdL64H0Jcb1osZaFDKVIpBII+sJjJo3XQAQnWOyM4OM0hXf92PXpT1X6W6p0RuoWqxVdzKEmYlmqc4v4IVE7UqKRtycZ49cSOd6gLDkKXOV15VWVT6cHFTUymlPltpKPpknHlnmOb/1DCxvMb5WhwoEFwsE7Ai+eO+FmMGZxZGLI3A1I+SoY9Kdbku3vc1tsBIyUqKqYQNwGSOU+Q5j7Gk9dO0eHq/YqgfP4pV7sBCZ/KH9PkhX5hYta4phQnHXV7thbcWoBG7afLaOB7eYstaHUbp1elvt3PQHKm/TClW6ZTTXfDQUgFaScfo+eI6zYmLDAOmeGgmtSBqdhryeAsOkawW4gKSaXq1uptHqCNXbxotVn1OZk3aZLKYQ03t53g4yd3P1QLqhTOtlmYccY18slmWWtZZ8SkJHog8D6PkMZiQXl1LabW1Zs7dFUarK6WJdWx34rfbbf3AhKAtQAG4ggE8ZivdH/ACjWgVQuCnMTdqV6VaLqmVOPbHGmvEUApxSRyrAycCLFiI5wTE4OANGiDR5GnIXV8b4jTxV9o0Jt7rs/S1ys3H/Mo9yPp8QddASCNcbNPkc0Xy/cidDXPTdVvMXOirzypKabS60pVKmEZSrscqSBz9cadvqX0wlAlFx1GapLiwVpBknZhJTkhJy0knkDPbjMSHExYgF0Lw4A1oQdRxpyuTXteLbRUbVRuuJCktr11skLV2SaMM55x+j7IwxTOt2a3fBtd7Ge28K2UcHHqz6PEQTWLrw0BtCvSrEumr3A+kFLrkmwuWDKkE4QpLyQo/TJyMRt9CetfR/UVlyhUGi1uTnpfARL/A1TD0whKcqcJbHAGfP18RuSVkTS+R1Abk6BUuDRbtFKfiLrlB/+m2y1f9C/7MfNVM63WgvxddLGRsSVKJpH0QO5Po8ROk64WY9MuyUpL12YmmAkvMNUd8uNZ7bhjjOYrRqX1+aFW/dNQoyaHcE+rCkPTDIDIKjtC0lCxuBBbxz6ifVHOLFQznLE8OIo6EHQ6g+jx2t5XBgkr7TseD6KLqKR1vTSfEltcbIWgcEpo+RkdxwmHmg9cQ3FOtdmK8kg0c47f0YZo/1c6Y6o0H4ZalHrTa2OH5RmnLe+D5JCdykjGVYz643FT6r9H6Qh1ycrM8hMuCp4ilTBDQA53Hb5eqNMxEUj3RMeC5tWARYvaxxfFrAe0ktFWFolU/raSDnXOxBghJzSvMnAH0fPyj6JpPXE8hDjOtVjuNuAKChSCQR6wQnGICVa/KKaESNXfp6LWrsy3KzgcS8hSQh/YTt4PISdxVg+uLFWT1J6dXlazFzUJiqfFhaytxFMdLTBAypJUBg7exI44hNiIsOA6V4aCa1NanjXlRz2t1cQFol0frkSkuL1mshIHJJpBAAxz+jHncletlkNlzW+wEpUojKqYRnHcD0e/MbC6+rLRWkUecXUa7MuS5aWyrFOmEpcUpKhsCinAJwRntAAo/5RHQr46lkrtCttJL60kzC0rbQXFjc4Ugc7ccAf1nEdLWrR3FJ66NxxrDYxHq+KFe7DXad1zNYU5rFYaUAgZVSlAf1piXSWv9hT9GZuNuYnkUt9sPNTjlNmEtrQexBKex8ogGo/WTolQbednJ2pzs4UKS6zLNSTzSpjYQSApxG3HYkHyjlFiIpwTE8OANGiDR5Brn4WWva8W0gou3JO6szOn0vSLfvyjSF8Ll2Sqfdl/ElluZ9MoaOfRVzjvAyFu9dvb5crNxnnFFHb9yBPYn5QrQarXRLSrlEqtN8ZpuWbmJsF1EulAO3AQkqJJwOB93MWOqGu9mUiVTO1aamJFleAgzFOmk7yccAeHz3HEH4iKN7Y3vAc66F6mt6HNfCF7QQ0nUqDqo3XJLgGa14sloK4AVRkjP3pjKaX1uqmDKI15shTqRygUgbx2J42+oj7xEV1m609E7cpko5OOVCruBagZWVZcYWlC0keIfGbwRxgY55jx6J9c2it/wB1P0KUp8/SJ6ecLrLs42t8urUQPDQGkKUOBnt5R0c8MBc40AqSALKn3xB1zAH/AC4Wb7CaJ/sxkUHrm/8AbdZn2UX/AGYmdwa22lRHkSTc4J2eWkLbYSw+0VDPPLjafLJ+zEeij65aaVmiTNwSdbm0ycmlanlqpUyoJCBlXKUEHAHrjg7G4ZkQmdIAw7GxRvo7LcLHzn+kM3rX/CHqpHrZQ0XTrzYm0FKSr4pGNx4AJ294+zVG64nUoeRrfZK0LTuCk0bIUD2IO2AdXPygPT/btcmqTI0O4KtLS04l1M0kpQiZ2A7VbSkEA7udwzwIsLp51RacahWuxcNvStX+CobSH0tUt5xEqrbuLZUkYJA9XEdJsRFh255nho7JAH/a5ue1gtxAWrNE64UZcd1ustKQCSTRsBPt+jHnXJ9a7SELVrvYYCzgKVS8AqAyQPRiUXb1BabUq1Jmu1mYqzNFca2LnkU14IAWdowop8zxnBEVolfyjGh7dVlWjZlaKZZa2Uha0FvKlAFZGPIDAA8j7BiRYiKe/E8Oo0aINEbg1z8Ls+N8VZ21euvSO4ofXNuydaLJx7KMc/8AZhjtJ642ElbutVipQONy6QQOfbtiR0HqV05uKks1umO1RdOmElTc4aTM+CrBwcK29s8ZjTax9SOmFiWsuavFVVZYfyZZsyDrZmloAX4aStBHbHcdo5jHYZzxEJW5iSKsXY3Fb2ORwsxgytc5gsN3I1A99fla8yXW0HG2hrhYfiOpBQk0zlWc9ht57H7jH1+JeujKwdYrH7ZT/ilXf92A7Yv5QXQN24JSR+JKxJpdQ3LpmJoeKmXSkH0glKckk+r7MRZZrXSy1fB/hKqlKpnMCXU/SZpHikjICfQ5JBziOkmJihIbI8AnayBdb1fXKxmGYN5O3yoUqm9cbIBf1lsNO7hO6kkZ/sxsrOR1dsXVJJvDVeyp6lNOhU9KSlPKZhbXGQk4BB5HPtiNa79V2k+m0jKLulirTE4h0OsSCZRyXW4g7klzc4nGAR2znmIjpD136K3pdj1ElKXVKfOVBxTrTz7Kn1uOLUkBlAQkn7f9H6oR4mKWLzMeCzewQRXd7LcjXREtkFEb3pSOuq8p1IVeqyr2kOpNDoMihgpmGKjTxMLW7u+kFYOBjjEQVyidc7CS49rtZaEggblUYAc8d9kTms67WDbiUqr9QmZBahlKHadMblDtwAg+qAzq7136GW6wiiTD1Rq3jrIfTJsLYcYUghQCvFR5+z1RYp48QwSQuDmnYg2D6IXNrg4Zm6hTJqg9cbraXE662YtChlKk0UEEfux9BQOuZQwdb7N4/wDyXv8A2Ij2hnWlpLqUgWvbsvUZSZlElEvLPsuPOvpAKlKHhoIAHnnHfiCfW+oHTu3VeFWa2JZ/AyyqSmiv7Qlo47iJ9TF5fBnGerqxdbXW9XymdubJYvpQ92k9bsuEmY12shsKyBvowHl/Rj6Cg9cuM/LdZn/Uv+zAp1X/ACgGhEtVGKG5K1KtyzI8dE1IEtIKyCCkhxAVkc+QH1wXtFuq/TXWej/C6DUUyEyyD4slNNTC3WkA7UqKm2lJ5xxzmNSzRwMMkrg1o3JND91XODRbtF8PiPrnyP8ALXZWPP8AxL/sw74i65dh/wAtllkk8f4l7f2Yk1T6grDoswpVRni5JNKLb0zLNOqLbmQEpKFpSecnnyx7Y014dYegNoUF+sv3dNzDrbalNSopEy2p5YTkIC1ICAe3OcRsODhYKoK1jdK623llpvXWx1uJPpBFJyQM4OQE+viPoaH1zBXGtFlYPbNHPuwGrN/KQ6FG5PA/kzcEkKm/mYnHihxLQJyo7UgEgeocnHmeYsr/AIQWnKKUzXJxdck5GYQHGX5ijPJS4kp3DH1jkeuOcmIiic1kjwC7QAmrPx3+FC9rSAeVDjReudKSVa1WRkefxOe3t9GPmzTOuCZTlnWuxHUggFTdJJHr7hMavUnru0MsekPOqmavPzRSgpk0yDjC3G1nbvCljGBEF0W68tB6nXBalLotwUz4xWlQcmEiYK3uEoQlKBnKiY2XBozE6Kl1alFD4k66fPWSyPbmkq92GmkddLaAtWslijAyoqpKsDH+rE3rGvmndvI/x7N1ORUpG9KXaY8VKTnBICQc4MBrVnr60FtiSXRHU1etGaK5abYZl3JZxkbQeSvB5B8oxBiIsTGJYXhzTsQbB9EaKNe14zNohS4U3rmcaC2tYrDcz5ilKI+/bBB0pTr/AEx2eOsd7UGstqSj4GKXKKYU2rJ3FZIAI7YgOaGdbuj2pcwbTt+m1mRmWtxlZZxgvrf5UtZGzsByeYJ9b6h9MrecXLViqTstMpxlg0yYUvkAjhKT3BHnGfqoRN9PnGery2Lra63q+dlM7S7JYvrlRy6aV1lmuT85b+tdoyNHcmFmUamaQCtpok7EKUUnJx55jXooXXSpKVjXKzClQyCKKD/8kDjVn8oJoHTp9mgLkazW2WimZD8olUv4TySRtKVjJI9oI5gj6IdW+mmrtF8O15apMPyCQhcm5LrdcbZThKXFKSNvJ+3jtGpsRFhozLM8NaNyTQH5KOeGDM7QL6igdcu041ws0q9XxL/sxhykdbzG3xtdbKbK1YSFUYDJ9mU8xJa11J6XW+p1FUry2VsJUp1PwCZJQE5CirDfGMGK93/+UK0CNyfBJijVqomlOYlpyVcLbboO1WQlQ9g7gKGOCI214eA5psFW7FhGQ0HrkH0tbrMP/Qn+zGRQeuTjGttmH15onf8AsxsdO+qOwNTKA3cFvmaUggfCWxJTDnwZZG7YtSGynOMHgniPrXOqnSG3kurqd1MNhkArPwSb2pJ7Aq8LEYZPHI90bXAubuAdR7HH5QPDiQKsLTGk9b6XRLua5WOlxf0Umj4UfqG32H7o+iqD1y4ATrZZY4/+5Tz/AGYCbv5SPREXWaqq0K2udTiVDnjZbKUlQCgkjj6aufbFnbd1yse6rcaumi16TekX0koV4E2MkcEZLOODxnOISzxQAGVwbZoWasngfPwhcG70FD1UHrkByNa7MPHY0c9/3YaKH10gH/LTZP8A1Mfdgx29cEvcNIFYlgPDUVgEE4VjzGQD94ivNR68bAp1Rmqcu2KmTKPuMLUX2UglJIJwVZ8o6XXKupOykSqV1xpWGflssXxD+gaQcn6htjKqL10HP+WWyPLA+KDj/swH6z+US0QpVyIq87aFyCfSkHKFoUggJKRxux2J7Y8okNO/KQ6VVKcp8qi1q4n4xdQy0ohvAK1BIyN3thfyr+FPVUbrr7J1kscnI5+KVdv3Ya5TeuZkjfrPYaUngb6URn70w/Urq4tTTS637Uqtuzz70u026p1t5tKSFpyBhRB84Fd2/lDNHUeCzXLZrWG1L2hpSCDlODkjPkYZuLUo9IpqpXXYFejq9YmPM/FKvdg0WTNX9KWxIy9+1yVqFeSg/C5iRbLTC1ZONqTyBjEVPa/KYaTPSqZz+TlXDbhKQcDOR7IsxpnqDStUrHpd9URpxqSqrRdZS6MKABI5H2RQbRTQ1SeI4mnP3jCNUnfOZc/ejxk5znsIwTwYqi9Zqs73+EuY/pGMfGk3/wCtOfvmPGVZIyOPqjG72D+uCKKavzUxKabXnMyrqmnmqNPqQ4kkKSQyvBB9ccRrItqlXM7VTV6tNyaJCRM02JaTMy7MPF1CA2E5GB6ZUVE8bfaI7aay5+TC9sHk0Wof9yuOF9OqlSpLpmaXPvyjyk7CtlwoUUnyJB7cDiPXhRusu20W2va36bbVbTIUmqP1CUdlWZlDz8qZdwFacqQpsk4KVZGc4OM+caqcwlMtnzYSf6zG0lGq3XqrJsMS81Wq9VnENSzZBfcWonahKUnJUongAwV9XulXqN0RtSTvTVCxUtUKaUhlx1t9qYEq4vlLb3hkllRJIHlnjOeI9n2tGUnVcrJOijmmHT7dWqVAnLhps7IyMu2X25Rcy8kJfeYbDrqCASpOGzkEjBPEGn8mHOTbPUPPyLMy4mXmrbmy82FEJWUOs7SR2OMnH1mKtfGtWpDBl6TWJ1iSmgXA22+pI54IIHBPGPbFnfyZJx1HzHf/AJNT3/eMxzxFZKrYfvr/AOKx3ZN7/wDS6t7vbiBZrtkW9OhskO/Fz6mdv0g4EqKce3OIJ+T5wLddkzC6DMGU3+OJF8tbU7iVhKikAeZziPkvALaK9DTRtcZ9QtUb81Am25K965Mz/wAXuLSyHzy2PMfbEakpx2Qm2pqTXscZWFoWOCCOQYllS0a1hmqhMTrmnVwFTrilkmnuAHJ79o+A0Z1gTj/J7Xh//CX+EcooYoIxFE0NaOAAB+wWpHvlcXyEknk6o7Wdqtq7dOl13XrPXLUpyetr4P8AF0xkksKwSojHnsSSfYIrve2ot3amVZus3pWHahNtNhlLjquQgdhBz0wtzVehaN3/AGy7bVTlXqoGTLSrskfEfUQptWwEZPoqUOIDo0N1gCsjTuuj65NY/wDCOUWDw0Dg6KNrSBQoAUCbIFDQXr7UaTHH4maN6G37bLUWxcVUtGsylwUCdVJz8i4HZd9vhTax2IPriyFQ1q1pktE6dqqi6Kl8bzFSek/h6sKCpcHbt7YCdwI+sQChonrGCANPa3n/APSKgtz1q6tTfTbTbB/k3UlTMtV3lGn/AAP55DRUV7jxnaVKPMamweHxBuaNrjVagHTrXj4UZcbxKzRw2I3H5QBuS66zelfmrkuScVN1GdXvfeX3Wr1n2xubH1Fu3TupqrFnVh6mzq2iyp1nglB7j7Y+ydDtX0DcNPq0MeuWMO+RnWBIP/EKs+o4lzG3QxPj8LmgtqqrSuq2pZePJefW90adUdYtaLGoNs1+SuWqSU1cVOQ7UHlHl9ZQCkknz2qGPYYrS9OOzsy7OzDm995ZcWo85UTkxYXWC0NW74tCyaaxbdSn3KXTUNzTTcsNzDiUJQEqwODtQBj2QK0aE6xpGRp9Vxn1sRmLDQwEujYATV0ALrQbdDQdLZc8tDCdBsOB6Xo011Q1Aseb+LLLuGcpyao+0h9EuopLp3YA/r4+uCP1B6papWdctQsFm4J6Wo9QlEKelFfRd8ROHPaQVA59oMD2laO6z06qSc6mxqu2ZaYbeCvAzt2qBzj2Yz9kT7qGsDVW/wDUJytyFs1GqSyJRlpEw0yNhIBUocY/SUqMyYPDSuL3xtJJB1A3Gx9jjpI3OhJfGaJ0NaWPlAFt0YG0jj2QaNBtTdSU3FQ9OKJcU8mizc2ouyDKsIWggqcyB5YGTEKToVrAgA/yBqoz2+aH4xM9INM9X7O1KoFxzFpVKRl5SZ+emHGQUNtqSUqJ9mCY6ywxzCpGhwBvUXqNj7XMsDtHC1r9YdYNUJqerGmdduGdXRJSbLaJB3hKEoVlAx348oEyXCV5SMJxzxBa1H0i1fue+K1cCLMqk03OTbjiH0sgJWnPBH2RHhoRrEkYFiVMf6g/GJFDHACImhtmzQA1POnK6vkfKbeSfaLegmqept5VMWrVriqE7RKTT9yZZSvm2UpKUoz9WcCCR1MVKtUezzWqG862/LIl962/0WypQOfYScQKtA7C1Lse6p2Zr9uTtOkJyRUw4482NqlBSVJTn15EFjqMol0XJZaqNakm7OTE0hgOsNAFS20rUo9/UQO0SKCLDjLE0NBN6ADU7nRcmsawU0UqU1auT9eqLtTqjynpl45Ws91H1mNzZV/XRp7V/jy0Kw9TZ0tlovNYCth7jn1xtPkG1bT6RsieHnyUfjDvkN1cJ2iy53P1o/GNyRsmaY5AC07g6g+wjmhwpwsItXvq/rRaVk2zd8rclTlJyvtqM5Nk8v8AAUjJ+o5GPKK5z9Rfqk6/UJ18uzMy4p11auSpSjkk/bB4v2z9VLq05tG2G6LOTcxSEKTMS4CAWClISgHkfowNhoTqyPS/kTPf2PxjnFhoYHF0TA0mgaAGg0A06G3S6Z3Fgjv7RsOB6Cbp9q1qBpyiZkrKuKbpyaipPjpYOPEI4H98TvXy5r1te4mKS+uYlmp2nIW626PziiVJWT6+U4P1RC2tEtXWXm3k2XPgtqCgRs7jn1xPtdLR1O1EueSqspRZ2qNsSCGS6hCQEr3KUtPGOdyjGmwRRyOlY0BztyBqa2s80uQY1pLgNSgH4xUf74L2jerWp0nPUjTe3bgnUUmdnAhciyeHAo5WPXyM5iK/Ilqok/8AIqofup/GJHp5ptqtat8US4Ta8/JokZtDi5hTadraM4UTz2wTCaCLEANlaHAGxYB1Gx15HaOY1/8AcLXj1fu26Ja661bU6+tEqHshlYI2gjcD/a7+2BoFndkHiC/qZpfqpd171Wvy1qT84xNOgtPobTtW2EgJI57YAiNJ0K1aBwLFqX17B+MdVpFHQnVXVG8KnKWA/XZ+doshJL2SQ5QhKQEoGPrIA9pgNXZe9y1xa6TW5tbiJR5aUpWDuQQcEeztz9UFrQeyNUdPb7FZn7dnabLOyrjK33WhsKuFIHP+kBA9n9FtW5yempx2x6opbjqnFKLONxUScgRyigigBETQ0E3oK1POnKy1jWaNFKCy8wuVmG5hpe1bSgtJB7EHIiydmau6ualWZd1QuCvVGqpoUk2uUWeUsOYUokY89refqEB8aHasEEiw6rgfsYKOllnasWfZV7USZtuoyRrUmhEsy5LgqmHNriCE55J2rP3wfBFI9sjmgubdEgWL3o8XzSFrSQSNQgdc14Vy7Xmn63NrfWwjw0KJJITnOIba911qzK/KXJbU85Jz8ivxGXk90K9YiSJ0K1eVyNPazjOOZYxn5CdYNuRp7WSPZLExt7WyNLXiwd1SARRVrdAL+vbUSms3RfNTmZ+bdmHm2Zh4Yy2kDhOPIEmBJrXqbqLY8yzRbfrs9IUeryjniNNqw28dykr/AKsAwSem2kXXblsytDuqlzVPelZp8sMTLRbUEKAOfbzmBXrbZGoF71enC3qLM1CQkGVoQpGzCFqWSoZJB9UcfpMP4xDkGQbChQrahsF0ic6D/aOX1p/hV9UtSlEk5yYKOkOrOplCmpGwrTuCelpCqTqEOSksfzylkJP3jiNUnQrVU8fyOm/r3I/GNpaGk+rVt3XSa+i1J6X+ATbT/jegfDCVAk9/VG5oIsQ3JM0OHRAP+VycxrxThYW8101R1OlapP6dVOtz7dDU0w43IOn0NikJUlQHqyciAlvXuBJMGvVfTrVO+r2mK/KW7OVCWWwwzLzCQkJLbbaUAd/LGIiI0I1ZUMiy5370fjFihjhBEbQLNmhVns/Pyur5HyUXkmu0Q9B9ZNWapUabppJV+ccoEuy4v4A0kbUoT6X1gZwe8QbV3VfUe8qnNWze1enJxmjz77bLEwSSwpKigj68DB+qJRpDp/qfYF7y9fqFvTlNlQy4y9MLCCkJUOx5OMnERq6NJtWa7ctWrb9oT7y5+dfmluhCQFlayrcOfPOY5MwWGjf5GRtDrJsAXZ3N9nk7lZYTG0tZoDvXPvtDhiYdl30PtKwttQUk+0RZnTHWjWXUKn1tdTuGo1BNAp/iSJSn8w/tVtIx57UK7+owGhonqmf/AKlVH9wfjBJ0dtjVCx5K5ZWYoc/TvjSS2S6XGh88+AsJSM+eFq49salw0M7mvkYHFt0SASL3rq+a3WcozBxGo2PSE9+6m3nqTOMTt41p+ovyyPCacdOSlPq+qNLQK/VbYrErXqNNrlp2TcDrLqDgoWOxHtiW/IVq4olf8hKnyfNsD/xhHQnVwjixKmcepsfjG2Qxxs8TGgN2oDT9tlt7nSkuebJ3tFpnVHVW7dHK3fdZrFRn5yRmW0NzjhJ8NsLQFY9QyvB+sRXq4biqlz1Jyq1Z8vTLvK1nuo+s+2DvQrV1Tpeh9esM2/UG5uemQW5EsDxHGSttSyPPGWx90DD5DNWyNyrBq+O/5gxY42QtDIwABsBoP2WQ0NFNC0tkX5c+nlaTcFp1R6nz6EKbS+0cKCVdx9sHPUDUjUkaVWrfM/UZ5c/VH3fhE67u+dByUDP1J4+qBKvQ7VtI40/rJ8+JcmClelr6qV7Ri0rKbtiqTMzSnVKmJNEofEYSkKDZUAMjhR794nhj8nlyjNVXWtdXvSgaAc1aqvk5Ouz0y7NTP03VFRx2yYl2m2r2oOl78z/IWuv012fCW3S0ASsA8Dn2w86H6uj6WntbH1yioy1orq9LzDbzentd3NqCkkSSzyD9USaGPEMMUzQ5p3BFg/go5geMrhYV0piaqM3py4/UluqnnnZVUwXOFlw7SrdnzJJilupd0XRMVyq21V5h7wpKfdQGHP5spUQB9wAi5k0/PnTsvVFK0TanZVUwCnaQ56JUCPLB8oqldmj2rdw3RVa7/Jx2Z+Hzjsx4vjsjeFKJCsbuMiNtAaKC0eghQlxba0uD6STmLIaQapas6gy1SolSrVQqtPpNNKZaX7paVtKUY9uAQIGK9BNWtm42i8QfU8170T/Rm0NT9Ppyrrm6TMU0T0p4bJUpshx8Z2DufWYxJBFK5rntBLdQSAa9dLJY0kEjZBW4rorNxuINXmC8tkbEqI5A9WfVHhpNWnqHUperU2YWzNSrgdacTwUKHII9oibq0G1dWtSjZ0zyo/zjfJ/ej5u6D6toPpWXNk+xTZ/+aOhAIoq1YRRoOo2qV16UXTelVq9RqExT/DQ1NuKKvCQlbe/B9XpjP1wBLgr9TuWfXU6rMF6ZcxvcPdR9Zg5WnaOqFE0juayF0WcYm6qQWJMhGXUFbZcxz6mx+7A0+Q7Vkpz/ACIn+eeyfxjMcbIm5IwABwNAoGtaKaKCj1o3ncdiVluv2xU3pCfaSpKH2lEKSFDBwfaION1X9qWdIaNfdSn59c5UZ9W+edJPiI9II59XzZx/RgWL0Q1Y/wDwRUCfYlP4wTq9a+qtW0WolhigTr8zTZve5JJaT4jbYLhQT7PnFffE8TPJ5cozVV1rXV9JlF5q1QCqdQm6pOuz84rc88orWQO5MSCw9Tb105mZh6za5M016cSG3VMrKSpIPA++Nr8hWrx5/kFUz9TY/GMDQnWBtwKFgVYkHPos5/8AGLJGyVpZIAQeDqELQ4UdQiPrbdt80GnWs5NPzTbtVpKlTKnd3zy93pZ55Ppc/XFfXXFuLU4vuo5MWJ1ntLVW+pC0mJW2qjUVUynKamA1L8svqI3JVjsfRTxAtVodq8SB8nlayfVLGNABooLVUtppLrLqfZq2LMsq4JuTlKtOoDsuwMl1ayEceeSOOIk3URel3U69atacw8+1JPMy6/AcBA2qbSoKA+skxF7V0h1hoty0uss2FW2VyU4zMB0yaiEFKwdx48sZiZ68WHqrfWo89cFPtGq1KUUxLsMTDEqSgpQ0kYBA5wcxyZh4onukYwBztyALNbWea+VlrGtJIGp3QDWoZBBOfMn1xYPpy1j1Ombjt7TGWr83/JtDxL0m2PR8PlSsnvjPJgar0P1fOAdO65k9v+Br/CCBoFpxqjaGqVGqdTsyryEkpxTMy+/JLDaW1JIOVEYH1wmghxAAlaHUbFgGiNiL5HaGNrqzC6XXHSJzdp5KAq8nI4vatXYXr5uOTFIp6PDqs0A6lo7zhxQ5OY7PaPj/ACeSoV3JcjmXf+iWgS7lrdWm9cag7PGffeeprdvqbCllwlTIfKylPmkLIIHBIjqdgtjcqqc3PvTaU+Isnw0hCfqiTWLWZkXTQkuhDiE1CVQEkepxOCIsMdO+jhUsspRqGVAZCRX6YT24/mY1tpaE6IOVClT0trwtmpCZaeaprtBdVhzeFJZU8FbT2CSsDHnEsK0tv+UBuIU/Xedpxpcm/vpcmvxnUEuDKPIg+yKozM+/MNBpRIQklSQBwCe8Xw6wtLNM7v1kfrN3atqtueXT5RAkhRXZv0AjhW9CgOeePLECuj6X9LrEiiWq81dtSm2wUOTUpX6fLNPkHhaGnGStsEY9FRJECQCgBIVaqfU5lptDeUlDW4gEevgx2j6LHw/0zWS7gJzJr4Hl84qObk1ohoRVqnNP0zVaYtWQCkiXk6ix8avqG0blqelUpbGVZwnGQBzHTXpXoklbehVsUOmVhNVlJRhaGZxDSmw+jeohQQrlOQexigglQggaotkj1wwq9XHshbsDOTxDVHz4yO8dFlOKiB2hviD/ADTDQT7ORGM/X90EUT1iXjTO9ceVGqHf/wByuOGKJ99IGPD/AIafwjuXrFg6Z3qO/wDiaof9yuOKVgylJm6m4ipJlFuBCPAbmiPDOVjecEgKUEZ2pJ8ycHGI9mDvUBYdoLK2ul+ocxpnqZamqTMgid+IJ5iZXLkABZbOCn1AlPIPri33VF19af6p6LVbTex5CszM7cwYbmVVCXQ0iTaS6HFYwSXHMpACvtikVyrk5KsLTSky7aFtIVMMML8RhDv6SUnJBA48zgkgHiPE/MllDC5eXaaUtvcVJTyDkjjPbtHsIDrJXOhpok/MOyjTEoNhU2klYKQraSe3PnFqvyaM0691HPoc2YFtTxG1AH84zAe03p2lc5Z087d7kj8PLi/GcfmSh9psD0SyncMknnICiTwRjiC3+TPCB1ITISSU/wAm57bnvjxGe8YxAPju9CEjILiK2/mi6qBR7n+6BjrLVJejoZn5tC3GZeVdeUlHdQTzBLyAfKBB1AuNop/z6SWkyD6lgD6ScHI+6PkP2XpbuqhVHrs0ZfW605bVfBSdp+ba8v8AWjSTXWlo28CG7dr49WWm/eik9S8D46mltMlDBfXsSfJOTgRsJdUooDDbZ+sCMhoCZrV5ba6h9PritW4bwp9GqyZO20NuTKHEI3qC1YG3n1+uIm71m6Ur4FCrpSfW2370DzR+aoTWhGrTE5JLccVLSyjsGBj0gn7nCk/ZFcJQpbdy4jg+uJSEq4zvWDpcpWUUStgf+7b96JM9r9ZMtp2xqT8U1U02Yn104I2oDgcSnOcZxjBiljBYVwGmz9kGuszdDV0cycm3JLM4i5n07wMJDhwrPf8AzOO0NlAVPT1f6YntQa2Sf9Bv3o87nVppmvJTb1aB/ot/jFSZNSEcOJB9hjZpW0pB2sIxjviNUpauNdWvVm2fR6DWKjRamtqvynwyXCAjKUdsKye8RY9WenKuPiCs8dvRb/GIH1EzlGnNNNLE0ynuNOpooBURxgABX3qBP2wDpRxCOCnJ9RiAKq10t1VaePvtsJt+sBTq0oHDeMk/XEk1C19sjTy5HLXrNDqj0yy029vZ2bSlaQodz6jFRKU/LoqUk5MSqVNJmWlLSByQFAkfdBO6wn6ZNawuOUqTWyhNOlS5kfSJRkH7EFI+yCcIiq6r9NlDKberWfaG/wAY2lpdRlkXdclOtmnUKqNTFTfTLtqc2bUlXYnBiocu6kJ+gFZgj6AzUnL60We5OyhdaNRQnaO+4ghJ+xWD9kCERruDqZsiiVmdok1Qqop6ReWwso2bSUnGRz7I1Q6qbGBJFAq3sGEfjAI1iclXNU7lep8splj4xdAQR2IVz/XmIyy6kpA8MGAS1b+wta7b1FraqHSqZPS76Wlv739u3CcccH2xNdWr6plhUdqu1WUemWUJbZ2slO7KlKweYrt0rvSKb8qDExJlbr1LcDC/JCgtJJ+7Igv9UfwVGl025NMl5x1xltkgfQWHFHd+7kQ5ThQF7qZsd0EJt+qjjzKPxjznqQsnGU0KqDBz+h+MVxbyk7VJOfbHpAB/Q9kVRWnrmsVt0G3qLX5ulTqpesha2UJ27kbSAc8+2I0rqMs1R3CjVJPs9DH98aPWSeoM3oxps1TKWtiaTLrC1+vaAF/erBgItn9Ep59sEVhx1D2cshAo9S5OOyPxjeXpqrbtkVNml1KmzzrrsuiaSUBONqxwOT7IrNLhCZhpS0bkpWlSh6xnmC91YTdFn7/pz1Cpzsq38UMFaVe0qKR9iSB9kEW//wAIaylZJpFUGeeAj8Y9dE1wtSuVmTo0rTKgl2deQygrCMBSjjJ59sVuaORjbE20cfp0pqpa0zVpEzUoips+I0kcqyrA/rwYIjHX9cbRt2sTlBnKZUFvSbhaWpsJ2lQ8xkxr/wDCIsxJOymVPB9aUfjAq1vVJr1SuBdNllMsJmdu0j9IJAUftOTEMaVkcoEEVq7G1ftm9K8mh06Rnm3vCW/udCQMJGT2MaqY6lLHU4ttVHqgwSDwjg/fEP6V3KO1qcv44kFzCF058NhP6JGCT+6FD7YD1SLSqlNOSzSm2VvLU2k+SdxwPugisSjqNspscUyp8+W1H4xKba1ptq5aPW6xKyE+lmhsoffSsJBUlRIwnnv6J7xUlJJHCINmh81b8vpfqgxVKa49NLkWFtOJHCU7Xhjv/nlB+yCKVDqXsgggU6qeQJ2J/GPvL9T9kscmnVVRA/zEfjFXfTQcbT9sOClK4CBBFfPSe+KXfzKK9SWH2WEOrZKXgAokAZPB7cwM9QNTqFY1VbptRp8066+34yVNYKQCojzPsjf9LLtOTp5JmWlVomGZyYEys/pq4wR/qkCBD1OOyT1bojUtJqRMtyay+5j6YLh2/cMxOUW2/wAIG1ykJFKngP6Kfxj607XK3qlUZanMUydDk04lpJKU4BUceuK9JUR3iTabzEhLX/b03VJMzMo1UWFPMp/TTvGRFRGu5NYrftiszFDn5GccflsBSkBJScgEY59sasa+WsU4VTZ/6wlP4xBtfXqbNam1B6jyC5ZlDEshxJ5y6GkhavtMDxG/t4cEVk7W1YoF41qXoEhIzbT7oUQtaU4GBnyMaqa1wtaUm35J+QqBXLurbJSlOCUkg+fsiJdOD9OldU5RyrU9Uy2uWfQ2hPG1wo4V/fEFvVyWeu+uTNPllMSrtSmVsNkfQQXVbU/YIIjONe7R2gfF9RyP9BP4xurY1OoV0s1J+RlJxIpcv8KdDgAykeQwe8VlCleYzBp6eZmgStFvlqs0tcw8ulhxpY/RQEuBST9ZKD9kEW2Tr7aJOTIVEn+gn8YenqAtNIAMhUQnucJT+MV9UFpVjaRz2xC9JXo4PPEEVp5LVi35qzpu8USU4JSRfTLrQUJ3lSiACOcecaT/AAiLMUrcKfU8nz2J/GNDbT9vp6Y7jlpimLVUPhyUId8t6nGShXfySFj/AFoCPpA42kQRWPR1HWe33kan9exPH9cSWrawW/SLYpV1Py86qVq6nEspSgb0lJwc8xUvapXogGDjqa9QHen/AE/bp9LWzOBawtwnIUUhQcP2qIMEUoT1J2YBj4FVP3E/jHpR1O2SMD4FVck/q0/jFXcLz2P3R9JTYJplT6FLbS4krT6055EEXQOozrc/p65OICkpmXpZxORyAraRn74rrVtb6BT6jM01ykzpclXlsqUkpwopJGf6osS8mWeshkSEutEo87LLaQTylvCSlP3RRvUNbExfNfmZCTMvLOVKYU03j6Cd5wIgVKKY17tsAf4qn/b9H8Y39o6nUa7XZ5uTkJppUnKqmVlzaQUp7gAHvFaju9UGnpsm6LKOXSKxR1Tivi0uJOcYQkK3p+3KfuiqLYHXy2FEf4rn8d+Ang/fDjr7aw5+K5849ifxgEOhSVHDZAycAjyj54UeMEkwRWZp+p9DqVq1O62pOaRLU1aEuIIG5RUpI45x+lGiTr9a4706oY/op/GNdY03QGuna85Wbo63Z4vJSh/ySpTjGw/ZtX+9AVWVA424+yCI/wD+EFaqBxTagcHzSn8YkMzqtQpK0pO7piTnDKzz6mG20hO8KTnk84xxFXSFK4AJg23hO26/06WjLyNIW1PInFJdePZa0l3xFfaFI/dgqt5/hDWjgYkKkCO3oI/GPojqPtROAafUfpeSE/jFdFbjztxCaT86gqSVJChu+qCitbcusVBtNumOVGUnliqyonGg2EkpQeADk94056krM2jMhVMj1oT+MRXqNmrfmmLKNBpTkoBRitYV5oUv0B38sK++AooKI7GCuytFSupK0JidZkm5Gp+JMOJbTlCcZUcev2xu7s10tOyrhmbeqsnUFzUqE7y0gbDuSFAjJ9sVf0/XT2L5oL1YlVzEkioy5mG091o8QZA+yJx1KOU53V6sKpkmtloNyyFJV/nhlG4/fBEV2+qWwm1bzI1jOc8Np96Jdp11F2Xd90yNt06QqSZqdWUNqebTsScZyefZFJlg5JCSIK3S+aenWGjiosLWXPETLkHGx3YdqohCArsdo2vxNPZUq81ORy5vKRmJG7bnmEO2zUUzU5M7WFVlpTwPiKI2NNuhxS8/oYOTxgx1C0cV/wAQGEjB2uO4jirqHSq8dQrgnJORnARV5pbbjbKuCHlEEED+uBFgKjcqeS1h380rc5Yd0gDuPiKb/wD643lr0Sfmbtt+tqnKJLS7E3LuuqVVpfxOFgnLRXvSeMbNuc+WYCz+oGpMqotP3pcDavNKp95J/wC1HxtNiZVclFmXwvK6iwdygcqy6CVZ8+YzlVBV3erS36jP66rrMoaI40xISaVMzlXl5VSiG+QUrcSscHgj7IAJsy86nMPP0mxK8/LOLUWjI0yZmWCAcfNupSoODj6QJz64kv5QCl1Sc6hJt+UkX3kGkU8b0MqUM+F6wIr8ze2olDYRT2Lsrsiyyna2yicebSgeoJBAEUtBKBxARklrLuWoSr1OepsvTZmTdCXEVOcap76QRuGWX1IUQdw9LGMcR1D6Y2hL6IWxKl5lxTMr4SlNOJcRuSSDhScgjPmDHEebn6zXXXKrWp+anX143TEy4pxascAblZPAjsx0VpKOmiygfKTV/wBtUGtoo42EcQoZ4JHEYJ55xwIbkDzHshpOByeI6rCeVBJPMM3n1Q1WCcnvGNw9avugi8VyUmUuKm1Sg1BKvgtSZelHthwrY4ClWD68GOfdT/JZ3N8PmPijVekmRLijL/CZB0O7M8Be04zjvjiOh7qgX3CefTP98N3Z44jTXuZ/aoudI/JY3z2+Vag//AvfjH2e/Jb3y6hlI1VoI8JGzPwJ7nkn1+2Lm3dZ2odYq03M0S7USUmpTTkuz4ziCD6AUFYBG0bCcDuVnkd401V0w1Imbfq0i5frtScmZuVcYYW+4wgyzb2VsKWn0klbaUAqHchXkqNfUSAbplCqP/6LC+T/APatQf8A4F78YO/Sf0UJ6d7pqF8V68G63V5iTVT5ZEqwpplllakqWo7iSpR2JHkBz64OmllAuS1rOYpN1z/wue+ETDwAeW+mXaW4pTbAcV6SwhJA3H+7ES7I7iIZXuFEpQX1GR55zAs1ppjtWLEimXmnG5iUdZWWWyopCuDg4Izg+cFAK4z6oRV57uf745OGYUtA0bXODqM6M7ckbRlXdE6VdNRqKXCudZm20uKWnA27AltJzuJzzjEV5szpN13qVxSchVtP6zS5Na9zs0/KkIQkc458z2HtIjs9U5VdQkXpJEyplTqdviJ5KefrH98eSm0RMjOzNRem3Zh991RSpajhtBAATjt2SOY8eBwbsFAIHSOkq/ueQXGze4AGnGmy3NJ5XZqA9Kn8j0w6c0Khzdr0lu7VSNwpl2qutbDe5KG1hZKMN4ByCOx4MV66jOj6sSE/JvaM21cVWkA0hC0PMBTod53k4QnCcYx7cx1Z3HyV39seGqSTlQQwlE/MSpZfQ/logb9pztVkfRMcsP8Ap7sM5rjM91AinEEGzdnQajYfCzG/xw+Gr1uzv6vpcjNE+kXUqqXnKfKTadbotCYcBmnBL4cWggghGQee3lFr19NGlaqW1YaWLvFuMzS6lv8ABT4pmSgIAz4eNuB6u8W8olHbo0qEGYcmJhefFeUTlZKirgeQyoxsSs4HOI3icE7EvziV7dKppAHvY6/ylIz45RKda4Ox9rkHrj0k6hSV6zbmmtmV6qUVxZ+CKMvlaGhgJCyABuzny7YiRdOvSRWJusOTes9Br1LpQStssMM4eUsAFCuUq9HOc/VHUOtUeYqTomJerzEqoS7rAQjlJK+yiPWP98R6qZIS9LlUyksVFKeVKUrJUrzPJjtJhzJB4c5GlZgfu932pJ/Uvi+lT2odOmkFdl5em1akXc5J0KX+C0kJG1RQcqJX82cncQPLgRS28ek7WuSuKbboVjVafk925D7cudqs84HA7du3eOzpXnvGhqlvPVCcemBWZltmYWx4jCfohLZyQnngk4/8454bBnDOc7yOddf3G6oVp73PZXR0mZjWUNOeT7PK55dPnSLSU0aZmdaqbcUrMOhtyUlpRghbawTvC/QPkEkc+cFC+unPT286NXKw5Trl/lVMS62aepbRDCdiAhkqHhnjAyfri68s01KMol2RhDY2pGScD6zH1DhPt+2OUv6cZXmTyvFkGg6gK4ArY89rMLvC9z6uxVHUD18rifO9KWvEtUHmJTTutPS6HSlDvwc+mnPfHti2GifS7Z9p2pJ1y9KTcbl4SD6pmVMu0oNJxhTYI2dweFcxd1VqOqdIcrk2thcw2842SclKOQnOe2cf194kMqy1KS7cpLkoaaSG0DJOAOwyeY9GJw31TQ3O5tEH7TRNcH4PIXJzc1an8Ln7qv0q2XXLDnp20aLc6rwm1CZeU8glpSiSpxKR4fc8BPP2xVmm9Juv8xPy8tOad1mVl3XUocdUwcNpJAKjj1DmO1Uyn4Qw6xvUgOIUjcngjIxkRpG7V+eaM5VZiZZbLqlNZKQorwB554APnz7OcsNhvpmludzrJP3G6vgfA4C9EkvlIOUChWgr+FU9srpusqyLZp1SkKRcTt3tyYZm3ChSpdSz9PaNg4wOI8l16TzV/wBNFKqlJrbUs28pwBEmtCipJVgYUnkc57Re8LO0ekTjzhbsD6XP1ww2F+nBGdzrJP3G9+B8DgLzsbkFWT7XH3VjpF1Olq98Jsi1KtU5J4kNASytzTYxgL9EekTntEk6eOkWvTFwuz2tNr3BIUlpKkeBLS6g86opylQO08A8GOptRpLs/ONTjVXnJUshPoNKG1e3f9IH+n/ZEOolKbo0miXS+466pKfGdWo5WoeePLuY6TReeMx2RfINEeiq9uYUqKXL01WvWptikydIuhih0lBbkApglxW8grKjs9Y44EVevfpK1olLgfRQLIqtRlSdwfRLqCSTngZA7DHl3zHZwrwcBX3xHqrbUzPTEy+xXZxgTDSmy1nKEhW0HHPqSfv8vOxReJgZZNCrOpPs9qgUKXOvp06RqUzR5+c1vt25WZp/aZWVk2ilTZGQrf6BzkYI5iWXX00yd0t1CoqpddbqIYMvTw4ydiUoRhrf6Hr74i/0nKsU6XEvLb9gJPpKKiSe5zH3K1d9xGI5R4bxzPmzuOatCbAr/iOL57WWtyuJs6/zRcU6t0oa8SlTmGKdp7WZqXQ4Q28JU4cHrHHY+UWe0b6TrSo1lS9QvqSuVF2S6xMy6JdkhpCgNyEqGzuDweYvSu1HvhK3FV6cWy4+08pkq4ARuISDnjJI+7zjesNNyzLcsyMNNJCUjdnAHtMMVhfqmhudzaIP2mia4Px2EezOBqR6XOPUjpRcrtPqNRoMtWVVedc8ZaHpb0CDkrCfQznsBFcZTpO17enmmHtOK0ywt1KFOGX+gkn6R+ocx2nnGlzUm/Kof8NTzakBYGdpIxnGefviPy1oFsy7c5Wpual2C4otrUfSUoJA5znAAPn5+UemltVDtLpjsqz7Tp8/IU65VXg1KfB5l3w/+D7lDaspGwcYPECDV7o5q7VAac09ptan3mtynmHZX01q42BGEjPnnmOoAWM98mPJVpJyqSSpNucUwStKt6QSeDnHBHf6482Gw30zSMznWSfuN78D4HAWWNyCtT7XHC0+kjXOer8pK1iwavISpXuW+5LnanHPPB74xFx6l0yadU2jLpNnUW6Jb43aQxVFuNbzsSARtBTjO7I+oxbmm238EnW5ycqL02WGW2mgVFO0pySojPOSf/8AeMb4Kz2V3+2EuF8srJczhlvQEgG/+Q5rjpQttwd0uTWsnR5qBLvsTNgW1VqpLpShAaMrh0KIytSsAAJBAA+uNfoj0i6jzV7Sjupli12QoTKkqmgljat1s8KCCQfSHB7euOsNwUV6uNNMt1SZkQjflbHCzlOBg54x9RjNNoiJGemai9NuzEw+6tYUokBCCANoHbskfdHaSPyMLLIsVY0P4Pa0RYpVDe0eo9h7pLT61rhRSjl5wTDCnV+IeONozjAHlGpX0+WddFvTk9d9o3Sq5RLuMySmUKQyg7T4ZKdh/SOTF6gvgEEws9vS59UeN2ADoG4fyPFVrmOY127c3yumHk+nqgDpWuq4qV7pF1zlKtMy1MsCsTss2vDb6ZZQDntHA4zFlNCek616PZ/wnVK2Lodr4cS/KolGVJQ0NgOxXofSC885IxF8GLMmGwpt+45x5tyZbmHEHgYTuO1OScAkg/ZElZbal2G5dnKW2khCU5JwBHfFYb6qPxlzm7atNH9xx2uL2ZxVkelQTUPpas65bGnJmkW/c7V5z+wqddbUWEHPpADZ22jAHripbfSdr6Z9LLmnFaRLl0JLnwc5CM4z93Mdqp9lc3JPyjb/AISnmygOYyUkjvjI/viPytnqZdl0Ttbm5uXYLq/CWSCVKxjnOcAZHt47ecw+G+mDgHOdZJ+43V8DoDgL0SS+Ug5QKFaCv4VTKw+mOxbSsiRnqlQrlevKUaKXXmmlBgndjIGwcbPI+cQXqA6XrQm7Yll6Q065HKilbj883ONKUXjt9FKB4Y53FX2R0r34wB/5x4a3IO1anuSKJ52TUsgh5vO5OD5ciPOz9OySiYSv3JouJGoqq6HA4WInCJjmAXm5OpHrpcW7Z6X9X52uycrVrNq0hKuL9N9yVXtRjkZ4PHHqi56OnzSKjSci3b1JupLk+lMrWlFtRIZKfT2ZRjO4ccdieIuJTrbVJTaJubqj84WW222ErURsKc5Ueee/nnHt8t3vOe/H18R2xGE+oe15e5uW9AaBscjmuOlzy/cH9ft+Vy06jelNnxZKc0RoNfnJdttLb0tNMlTynFEkqGEJwkAD7TED0g6WL/mb1knNQbTrNPo7DiXJlQl1AuNbgFpSdpwrByOPKOuVfpDtbZZabqTsp4KyslAJKxjG3hQ45/uhtLo3wCcmqg/OOzExMOrKVKUfQbOMJx24CRzG4cN4YBBncdKsm3e77XWV/mcXUBfA0H4VLbm6e9MTL/yZtGn3NKUaYPwiaW8ypay6g+jjKOBjGfqismrXStqHJXAt+yreqVXkH3FhkNyqt7bScbd+Ej0jk/dHYIL9pzHjrEg5V5Bci3POyqlLSoPNH004UDxz+I9h7RrD4f6eIRBxdXLjZPs8rm1oa0NXKrp66Ua9OXMia1btquU+jI3omWm5ZSXVAoJQUkpPG7v2g43b022VVAxbtJk7nRRaZlUkSwFLJWMrzuR23duIvRSJNVKpsrTlTj82ZZsNl94guOY/SVjjMe0LOPpH++M/Tf1/PmdtVX9u93Xfz0pl+7Nf/i4u3h0p60U6uus0myqpUpdY8UPsSi9mTn0ew7QaunXpLpTlFnZvWq3rlln3SFSsvLS+1aCCQrdlJPIwQcx0fumgPXJKsy7VZmqcWnC54kvncrjG3v29f/h3jct5bQlPiEkJAJPnjzhicP8AVRGLMW3y00fwUe3O3LdelRWq2jVqdSm6HK0GsFtDqAzmScUfCRtAKlJTgHA8+5gU6o9NYq1Cdcsul1xueWpx59uYl3Fl7gKCUDwxg78857R1EDhxkExneRjCz9WY7htClu1xLoPS5rHO1mUlqtaFTkZRbmHJlUospaHkSNvbOIt2jp10stqiS7tru3hMVacYRK1L4TKKDQQpPzhRhoc7u3si8FIt9+l1idqq65NzKZvOJdZPhtZVn0eT/v6u0borJAys4+uOEuGMz2PzuGU3QNA++wsFtkG9lyc1o6WaoqSYmdNqXWJ3wUpCpZ2VX4illWFK+gBtCcefeIbpV0rahTl5yQvu2qtSqU2tK3nRLKJUjIC0p9E+ltJI47iOyT25xtbSXVp3pKdyVcjI7j2xp7aoL1uSzsq5W52olxQUHJo5WABj6v6hwB9cd3NLgRdLRVJbg6ctLpCXVbtnKuk0qfHizi5iWJWHEHLYT82ODxniK26zdLV7ytcM3YlCqlUkHVlDKPgqvEabCRyv0RyVFUdgy4RwMx4a1IuVelTVNTUH5JUw2W/HYOHG8+YJ/wB/745YeA4eMRlxdXLtSfeyjRlFbrk5089LtVdutM7rBbtZkKK1uQ+yiXWl1wFB2lB2nsoDI9UHS5OnvTyoKFv0WUuSVoUmsPSgLClL3qHzmdyO2e32xeyjyLlJpjVPcnXJpbZUS6vIKiVE85J9frj2b1Z3BX9cZ+l/1H1GZ21Vf273dbX89KZQHZv/AIuMV+dLerMjXnE2/a9Qqsq6PF8ZmVVtSST6P0RyABnjzgu9OHSXS35edmtb6bcMi06j5iWlZcpcS6Fd1ZQfRKe3MdLa/Sna5KNyqKxO08tupd8SVUkKVj9E5B4j1Sba5WUYlVTLjvhNpb8RZypeBjJ9pjWIhOIiMYcW3y00R6KObmFKgd59N9vV5iZFL+PEuU6WXJUkPS+UlCSfDLh2e05x6oqlW+l/WySq0zJyli1acl23NqZlqVVsWPWOO0dsUuf6Rz9caW4LefrsxJTDVfn5L4Gvf4bChsd5B9Idz245x7DHRrMjQ27paXPzRHpEs1FlrntUF3JKV1DviyUvKy+AlOwFIXlsnd4mR37YhupnS5M3dKVGtUkVAVmeKCUPSwDYA4VztznAGOe8dIfEJVnJGfUYcFn/AD/P1xxiwxikfIXk5jsToPgaaBZa3KSb3XEVHTFrqqdSw7prXks+JtLnwNX0c4Kvu5i5GlXS7ZtnWrSbgrFMr7l6yG5zDTQEuV5ITxsBxsPIznOYuzM289MXLL3H8eTyEMICDJ5HgKwFDOO+fSyc57DtG63YzhUMThfqQ0Z3Nog/aauuD2DyOUe3PWpHpRDSiUfk7HZYmGHGnCt0lCklJGfYY5y6p9MGs89XKo7aulFyrL0886iYaqCFNOJUtRylOQRnIjqYFnvnn1mFnGOfszHctulsGlxjn+j7qeqLoce0hru5CAkqKUnPtOD3jeWr0mdRJrVEmKhpRXWpOTmGVKX4QGwJWCVEEg+UdbTRXTXBWfjSYCByZb9Anbt9f+/9cbMqBx6RhlS1z96sdDNUb21Bm6zaOnNy1NC6bKNom5KcQ20HEtgFJbJBJHnFZZ/pF6np0oQ9o/cThSVELU2FEg+s5js5kRqa9R3KwGkN1F2V8IknYCdwPkcEffEya2rmtce5fpI6kRKokXNI7gDbSypeGMEk9u/1R1F6YLZrVmaH2zbVfpz1Pn5GXLb0u+natB3HgiCluSnGBGCrHOcRoNpQm04nAzkQxXfKjjiIRekhqtN3laczY9epElbku+6q45ebZ3vTLRxtDZxx+l5jkg8xlVP1ICnCKzLrT4wKCAlIDXq7Zz3/AN+1JpRTUnAxDdy/XHmp7cyxJNtT0wp94FW5ZIyeTjtjyxHo3H/O/rgiE6tTLiCyfCkjkn+aV70ZGp1xcDwZHn9kr3oUKMWgThqZcIH5mS7/AKpXvRkam3EB+akv4SvehQopROTqXcKiAWpLn9mr3od8pdxZ/Nyff9UfehQolosjUq4cHDUkOf1R96H/ACl3Ec/NyfH7I/jChRbRIak3ER9CT/hH8YwrUq4u2yU/hH8YUKFokrUu4v1cnx+yP4w1WpVw7iPCk/4SvehQoFFj5S7i5HhyfbP5tXvQz5TbiOfmpLuP5tXvQoUAUS+Uu4SR8zJfwle9DVam3CFDDMl2/VK96FChaJh1OuIEHwZL+Er3ob8pdw4z4Ulz+yV70KFC0STqbcQ58GS/hK96Hp1OuL9VJcj9Ur3oUKFonJ1MuHb+Zkv4Svehw1MuIj81Jfwle9ChQtE4amXDn81Jfw1e9CGplxYB8OT4P6pXvQoUVE5Opdw7QfCku/6pXvQ46l3Fz83J8fsj+MKFEtEhqVcRH0JPg4/NH8YR1KuLONknwcfmj70KFAIkdS7iwT4cnwf1R96GL1LuEEgNSXb9UfehQolosfKXcRJBak+B+rV70Y+Uy4inPhSXB/VK96FCi2iadTLh/UyXb9Ur3owrU24gc+DJdv1SvehQollE06nXFtz4Mj2/VK96Pn8ptxA8MyX8JXvQoUAUTk6mXDkfMyXl/NK96HJ1OuIjBaku36pXvQoULRPGplxbR81Jc5/mle9GRqZcWQPCkvP+aPvQoUW0WU6mXEQVeFJZAz+aV70O+Uu4v1cn5/zR96FCiWicNS7hAGGpP+Er3oz8pdxf5knx+yP4woULRZGpVxHgok/4R/GF8pVxK4Lcn2/VH3oUKFlE06mXF+rku4H5o+9DVal3EM4akue/zR96FCi2ix8plxdvDk+P2avehvym3Fx81Jdv1SvehQoWiXymXCefBkuP2SvehqtS7hSSQzJfwle9ChQBRMVqdcWT8zJdv1Svehp1NuIHhqS5x/NK96FCiWUWRqbcQBPgyXb9Ur3ocNTrix+Zke36pXvQoULROTqZcO0fMyXr/NK96HDUy4jj5qS/hK96FChZRORqZcKjy1Jd/wBWr3oQ1MuL6Xhyfft4R96FChaJ3yl3DgENSX8I+9DjqXcWPzcnx+yPvQoUAUSGplxnPoSfH7I+9GflKuJWCUSfI/VH8YUKFosHUq4T3bk/4R96Gq1LuJOcNSXP7I+9ChQsomq1MuIA/NSfH7NXvQ0amXEUg+FJd/1SvehQotosHU24gT8zI8fsle9GDqbcQJIakuP2SvehQoWiYdTriwfmZL+Er3oYdTLiB/NSXP7JXvQoUQIl8ptxJzhmS/hK96PqNTbiII8GS9f5pXvQoUUInJ1MuEpA8GS/hK96MjUy4j3akv4avehQoWiyNS7hJ/NSXAz+bV70Z+U24/RPhyXPH5o+9ChQRPGpVwhIw1J8H9UfejJ1LuLGdkn3x+aP4woUSyiR1LuLJOyT4OPzR/GF8pVwnOW5P+EfehQoqLB1MuI925Lv+qPvQ1WpdwhRAakh/wDtH3oUKJaJfKXcJKvm5Pj9mr3ob8plxbc+FJcfsle9ChQsomK1MuIHPgyX8JXvRgam3FuPzUl/CV70KFEJRMOptwnI8CR7fqle9C+U24f1Ej/CV70KFGgUX//Z;strokeColor=none;points=[[0.1,0.35,0],[0.13,0.35,0],[0.17,0.35,0],[0.2,0.35,0],[0.23,0.35,0],[0.26,0.35,0],[0.1,0.65,0],[0.13,0.65,0],[0.17,0.65,0],[0.2,0.65,0],[0.23,0.65,0],[0.26,0.65,0],[0.3,0.35,0],[0.33,0.35,0],[0.37,0.35,0],[0.4,0.35,0],[0.43,0.35,0],[0.43,0.65,0],[0.4,0.65,0],[0.37,0.65,0],[0.33,0.65,0],[0.3,0.65,0],[0.46,0.35,0],[0.5,0.35,0],[0.53,0.35,0],[0.57,0.35,0],[0.6,0.35,0],[0.5,0.65,0],[0.46,0.65,0],[0.53,0.65,0],[0.57,0.65,0],[0.6,0.65,0],[0.63,0.35,0],[0.63,0.65,0],[0.66,0.65,0],[0.66,0.35,0],[0.7,0.35,0],[0.7,0.65,0],[0.73,0.35,0],[0.73,0.65,0],[0.76,0.35,0],[0.76,0.65,0],[0.79,0.35,0],[0.83,0.35,0],[0.86,0.35,0],[0.86,0.65,0],[0.83,0.65,0],[0.79,0.65,0],[0.9,0.3,0],[0.94,0.31,0],[0.94,0.68,0],[0.9,0.68,0]];labelBackgroundColor=none;rounded=0;html=1;whiteSpace=wrap;metaEdit=1;" vertex="1" parent="Xe_iNNLOO6JcA-pmjDCq-1">
          <mxGeometry x="-1089" y="261" width="390" height="37" as="geometry" />
        </mxCell>
        <mxCell id="Xe_iNNLOO6JcA-pmjDCq-8" value="&lt;div style=&quot;&quot;&gt;&lt;font style=&quot;font-family: Calibri; direction: ltr; letter-spacing: 0px; line-height: 120%; opacity: 1;&quot;&gt;&lt;font style=&quot;font-size: 17px;&quot; color=&quot;#ffffff&quot;&gt;&lt;b&gt;UniFi Switch&lt;/b&gt;&lt;/font&gt;&lt;br&gt;&lt;/font&gt;&lt;/div&gt;" style="text;vsdxID=5;fillColor=none;gradientColor=none;aspect=fixed;strokeColor=none;points=[[0.1,0.35,0],[0.13,0.35,0],[0.17,0.35,0],[0.2,0.35,0],[0.23,0.35,0],[0.26,0.35,0],[0.1,0.65,0],[0.13,0.65,0],[0.17,0.65,0],[0.2,0.65,0],[0.23,0.65,0],[0.26,0.65,0],[0.3,0.35,0],[0.33,0.35,0],[0.37,0.35,0],[0.4,0.35,0],[0.43,0.35,0],[0.43,0.65,0],[0.4,0.65,0],[0.37,0.65,0],[0.33,0.65,0],[0.3,0.65,0],[0.46,0.35,0],[0.5,0.35,0],[0.53,0.35,0],[0.57,0.35,0],[0.6,0.35,0],[0.5,0.65,0],[0.46,0.65,0],[0.53,0.65,0],[0.57,0.65,0],[0.6,0.65,0],[0.63,0.35,0],[0.63,0.65,0],[0.66,0.65,0],[0.66,0.35,0],[0.7,0.35,0],[0.7,0.65,0],[0.73,0.35,0],[0.73,0.65,0],[0.76,0.35,0],[0.76,0.65,0],[0.79,0.35,0],[0.83,0.35,0],[0.86,0.35,0],[0.86,0.65,0],[0.83,0.65,0],[0.79,0.65,0],[0.9,0.3,0],[0.94,0.31,0],[0.94,0.68,0],[0.9,0.68,0]];labelBackgroundColor=none;rounded=0;html=1;whiteSpace=wrap;verticalAlign=top;align=center;;html=1;" vertex="1" parent="Xe_iNNLOO6JcA-pmjDCq-7">
          <mxGeometry y="37" width="390" as="geometry" />
        </mxCell>
        <mxCell id="Xe_iNNLOO6JcA-pmjDCq-9" value="" style="shape=image;verticalLabelPosition=bottom;verticalAlign=top;imageAspect=0;image=data:image/png,iVBORw0KGgoAAAANSUhEUgAAAPoAAACvCAYAAADUr8N5AAAAAXNSR0IArs4c6QAAGc9JREFUeF7tnX3sZUdZx7/bdtvt9m37st0tQUJINcSUioQYNMQ02BBFxWoIfxg1aIgIhSBWJKLGICGtaJEaCgKKCiIFG2MMUay1EqwNaWpFaJoGK2G3L/v+/tvtbre79X7untmevfu7Z+bMmXPOnHOeJ7n5bXtn5sw8M987z3le18jIOGAcGD0H1ox+hbZA44BxQAZ0OwQpOLBZ0k9J+l5J/y7pa5KOpBjYxkjDAQN6Gj5OcZRXSnqjpJ+W9OoFBhyVdL+kf5H0FUmPTJFBOa3ZgJ7TbuQ9l3Wzm/p1BbC5vV9cY7rbC8AD/Hsl7a7R15om4IABPQETRzyEE8m5tW+UtD7BWk/OJIGHJd1T3PgPSHouwbg2RAUHDOh2PBY5gEjOjf0zkl4l6ZyWWbQi6T5J/1zc9o+3/LxJDm9An+S2n7FoRPIbCmDXFclPD3Teeedp7dq1OnbsmE6e5NKOJoDubnt+APghMGrIAQN6QwYOtPvVxa2NSP76GJF8zZo1Ov/887Vu3br559xzzz3NiuPHj88Bz+fZZ5/V888/H8umZyV9vbjtAf83JDX6FYmdyND7GdCHvoPh87++JJKjJa8tkp9zzjlzUF9wwQXzv4DdR4AcsAP6o0eP6rnnGr2Oo8QD8P9aKPdQ8hkFcMC/UwGDWJMsOYBI/qMlkfwlMbNEJHe3Njd4Uzpx4sTp2z6BmP/NAvi836PUw6xntAoHDOjjOhZOJP/JQiS/uO7yqkTyumOFtHe3vRPzQ/osaYODzlcLTT63/mMNxhpdVwP68LfUieS8b/9QVyJ5G2xDiQfwEfEBPrd/A9pauu1R6u1vMNbguxrQh7eFyM9OS/4GSS+NWUJqkTxmDr4+vM87pR5/Gyj1UOA9WFLq8e9JKfUM6L7Tlsf3Vy1oyWuL5CwDZRqiOR+05HxQrPHhu5yprNQD9Gj2G9DewnbvXHSfbDDWILoa0PPdputKWvIokRxAh96CgP2iiy6aK96GQIj5TpOfQKnH+zw++QB/lAE5BvR8TjUieVlLHi2SA/DYGw/N+oYNG4RoPyRKaLsfZUCOAb3f04xIzns2irQfl1RbJC9ryQHnwYMHo0HuWIEYf/nll89F+iESUkz53b6h7X4UATkG9O5P8veXwjtfE6sld04r7v0aDfXu3bubaqpPc4MfEG72Cy+8sHsOJX4ivHGafLT6DVx0BxuQY0BPfKhWGc6J5Nza+JK/LOaRVVpyDi4gX3ZzEU/Kg3npR4Tgnt4haUvxYvrfSyYE2K+88sq5q+uYqOypF/uKU/BjMAE5BvR2TjB4QhQnAgxf8kvrPqYsknNrV70z7927d35jLdJlkt4h6c2S1lZMgAwRt0v631XaIMZfffXV2Wvl6/LXtXdKPSfqN7TdZxuQY0CPPSFn90Mk5+Lk5v6RVCK5b3oc0D179pzVDLHhTknf4xug+P7YLCj8dwtD82IXtPGXXcbPxvgpoVIvq4AcA3r82UUtXdaSJxfJQ6a2a9eus5RvGyXdJWlTyAClNryA3izpPxb6IV1wq5cj1GoOPcjmiW33vQbkGNDrHcErFrTktUVyHuecVLBZNzFj8U6+c+fOs1ZwxwysP1ZvXadb75P0E6sEgV966aW6+OLaRoHIWeTZbcgBOQZ0/5l6eclxpTOR3D8taWVlZW5OK9MPSvpcSOeKNp+WxI9FmVDIXXUVqgcjxwHE/LI2vwFnWg/IMaCfvTtOJHda8mtjNrALX3LezXlHL9NHCu1fzJxdH1TJvJPwklmmzZs3j1Yp14Rf9HUBOc5br6FS77tFWi3Cb5ME5BjQT+0wIrnTkvO3V5E89NBt3779LJswGvQNoQNUtPvFmclg0ezGjT42U1sCVq06RG4BOVMG+veVHFde25WWPNXBQlG0bdu2M4bDPv5fiR5wS+H4XR4Ob7kxONAkYlHwMImVelEBOVMCOiI5gEYkp/BAI5HcKdSCdztxQ0TDHTtwe3mByM1M0vQU9EFJX1wYCBMbpjajZhzoIyBn7EBHJMdhBccVRPIoqTaVlrzZ8Tiz92pAv6ZIppbiOQb0FFwMGyOh7R6vKSyrv7z45DECHZHcOa5wg9cOw8IbbNGXPGzLumtlQO+O110+KUFADuWvXjFGoDuRnDxpiOQAvTY5LXnfInnoxA3ooZwadjtnu8eMFxiQMyqgI4KXfckR0WtTOS95E8eV2g9O0MGAnoCJAxwiIJnm4IGO8sxV7xytSB5y9jDdHDlyZO4wUyZ7Rw/h3jja4JbM5bRlCzGIZ9DggE4Ss7KWfBIi+bJjyLvbM888Mwf3snBUA/o4QFy1CvRHl1xyidavXz8/D48++ugggY6jStlxZXIi+WqbDLAJRfVlSjGgjxPo/Mhze2PeLGf9GRrQEcmdlhzPy1FqyWOPIO9kuLqGJHk0oMdyOc9+TjwnoGg1j8TcgY5ITnCIc1whaKQ28QvnTGAwIaQOWO2H9NwBhRthqKGpjwzoPW9Ywse7JJ1VocE5At2J5ICbZIgmkgccitWCVqq6GdADmJpxEy4rQpe5wUPy7OcCdBIxIJLjlYZSrXbisSE4rrR1blYzn/meZUD3cSjP7wE4MQQAvI5k2hfQyyI5ACe1Um2agkgewhQ2cd8+0kCEkwE9nFc5tATUJPOITejRJdARyfEldyJ5VGaCITuutHVgVksq4XuWAd3HoTy+L5vImsyobaBTQcQ5rqAlry2Su3cR3keGUPeryWbE9sUhZv/+egVAyRH3b7EPXOj3BzOR7EsL/8+i1+KZi9Vk7dq1cxNZqpj+1EBHJKfQgNOSR4nkaA8BNp+xasnjj8HZPYloQuNeh4hQ+tQsjvyH63RapS3JqW6apYpezEZ3xRVXDKY2W0MWJOvuTGQAHKCnpBRAJwsgjismkqfcmZpjkfjR5ySzOCTJJ94q6VeKQg11Hvl8IRHcJok6RIu0adOmyWWCrcO/cluXlx+At5U9NwXQ/0fS9XUX6URyZ98OMRHUfcaU2i/L2R7CA6J+flbSjUU437LCSieKii3/Oavkcrek/1syOHt7zTVoAYx8HECDDsDraNB9Y672fQqgf6uo4ON9vonkXhY1anDgwAEdPny40RiI9EAU8KM95b8Jh+FDYfCQSuNTKuIQw2wuNWcii+kf06d1oJuWPGZb4vtgZmNT+yJ+zDdu3BjkxNHXHPt6LgDHPNZHiq1WgA64iZhBmWYieffHCnPboUOHgnzeU85urIUWm/AInjgTWZ/JMlsBetm43/a7R5NNGHNfFHMUbFitoGIb6+YwUzqZH3ejUxzAoQsPthxqx7cCdLfRiHEuHtY2vx8OAHje27G1h0S1xczSvW+2pTGOmVNffeAxwEbBllMmolaB7piNTTCXX7a+DkDfz+UAcruz4Wjom4KePeX2BuQ5Heg++ewAnuMPXidAd8x30TZ2MPo8jqeejZMN8evc+HwIjCHEdTHMFZGcD4cXcPNBB5PjYe6Lq+ij6gaZdD3XToHuFofWEZHeFHVdb3f487jxTb+ynF/wxp3jcK7217IXoLPcsqnBDlR/B8CeXI8DfZrI6s30zNa9Ab2ssEPs6dP00ISB1nf8HHAmMs7pUK0KvQPdHRPe+5bluxr/UbIV5soBp0hOFUXW1zqzAbop7Po6Avbc1TgAsHMzkTXZqeyAzmKcogN3QVPYNdle61uXA4jmAHxs5y5LoLvNMYVd3WNq7WM44CIpu4gii5lfij5ZA90t0LkSDlURkmKjbIz0HBiaiawJBwYBdLdAPI+wvw9dMdJkw6xvcw4M1UTWZOWDArpbqPlWN9nyafZdVqpoKtwYJNCdws6lvzWHm6kc1/rr9JUqqj/iMHsMFuhlhR3ifB/B/MPc8unMemwmsiY7N3iglxV2ixUkmzDG+g6TA3VLFQ1zlfVnPRqglxV2eNilTpdbn7XWo0sOxJYq6nKOfT5rdEB3zCR0EJHewin7PF7tP7tpqaL2Z5jHE0YLdFPY5XHA2poFP+AoY/lBN/JzYNRAd8u3lFb+gzCEFq5UkWUrqr9bkwC6Y4ultKp/QHLogXju9s50L3E7MimglxV2Y4pMitv6/Ht1Uaoofy6kmeEkge5YZymt0hyiNkbpqlRRG3PPccxJA50Nwe8ZwKPYMQ+7fo8o/HeJFvudyfiePnmglxV2ltKqnwM+xSCTrjltQF/guKW06uYIcnvzsR/XbvhtQF/CZ8tB394BJL8AylALN26Px4sjG9AreG0prdIdRGzgAJv6bFbAIx1fQ0cyoAdwylJaBTCpoknOpYqarWw4vQ3oNfbKUlqFM2sKedjCudF/SwN6xB6Ywm4506aUhy3i6PTWxYDegPWW0uoF5hFPgA0cfwSjvDhAMc0nnnhC+/fvX5zYI5Jesfg/1yyZ/rckXZfX0rqbzZQVdmMoVdTdSen+SShAd+7cqaeffvqsKrnFbAzodbcFhd2UUlqNpVRR3X0eSvuVlRVt3bpViOwV9E1JP2A3esSuOhsxmuYxkuVhy3tXqXX/1FNPaffu3b6J3ifp7ZK+bUD3sarie4A+ppRWYy1V1GCLs+u6Z88ePfnkkwLsFbRT0i2S/mZZG3tHj9jaIae0sjxsERveQxfEc8R0xPUKOinpU5J+W9JZWrlyPwN65CaW85oNIULOTGSRG91xt5MnT2rbtm3asWOHULxV0MOS3ibpoZApGtBDuFTRJveUVhZF1nCDO+yOqQyTGaazCjoo6fckfUwSN3oQGdCD2ORvlFtKK36ALCe+f99yaAGwEdMPHDjgm86XJL1b0nZfw8XvDeh1OeZp73zA+wrysCiyxBva4nCI5ojoiOqI7BX0eKFNvzd2Ogb0WM55+nWd0spMZC1tZEvDBtrEj0q6VdKHJfHvaDKgR7PO37FthZ2VKvLvQW4tMJNhLsNs5iFub2zi3OaNyYDemIX+AXhfTpl1xUxkfp7n2AKHFxxfPDZx3r95D+d9PBkZ0JOx0j9QU4WdlSry8zjHFjVs4mjS0aijWU9KBvSk7AwbrG5KK+dzb6WKwvibSysUbASfEITisYljC8cmjm28FTKgt8JW/6AuDTJBMwB5kaxUkZ+HObfYt2/f/F3cYxPHmw2vNrzbgm3iMes2oMdwLWGfxZRW/AA4E5mVKkrI6I6GOnbs2NzpJcAmjl86/un4qbdOBvTWWRz2AMC9adMmbdy40cpCh7Esq1ZIYNu3b59/PDbxxyTdLIlIs87IgN4Zq/0Puvbaa+febEbD4sChQ4fmnm1Hj1aauvnyQ4VNvNLHtY3VG9Db4GrkmAb0SMb11O348ePz9/C9e/f6ZvBPkt4l6Tu+hm19b0Bvi7MR4xrQI5jWU5ddu3bNbeInTpyomsGTkt4zS8t2d0/TPP1YA3rfO1B6vgE9o81YMpUjR47MxfTDhw9XTZYsEc4mXhlQ3tWKlwH97yS9qatJ2HNOccCAnu9J4ObGJs5N7rGJP1C4rpK7LRtaBnQMux+Q9H6qEGcz25FPxICe5wZjE8dkxjt5BfGi/j5Jn2nbJh7DpWVAd2PdKOlzkjbHDG596nHAgF6PX223xiaOmH7woNcj9bOFTdybvbHtOS8b3wd0+gHyz0t6XV+TnMpzDeh57DR2cOLEA2zijxauq/fnMfPlswgBOr0R3xHjEedNlG9pVw3oLTG2xrDc3tzi3OYVdKTAwkdnuOjcJl5jOaebhgLddbihuN1fFPMw61PNAQN6fyeE92/ew3kf99CXC8+2rb6GOX1fF+jM/aoC7K/PaSFjmIsBvftdRIOOJh2NuscmDrBxevnH7mfZ/IkxQHdP/a3Cpe+85tOwEeCAAb3bc4AtHDEd23gFYRP/SCGqVzbsdvb1ntYE6DzptcXt/pJ6j7XWq3HAgN7NueDmxquNm9xDKNlI50ThwkFTU6Cz+CsKE9wbBs2JDCZvQG9/E/BLxz/dYxPHTPZeSX/V/oy6eUIKoLuZ/oakP5Rkonzk3hnQIxkX0I3IMsR0Is089OeF44s3UsU3UE7fpwQ663qNpC/MfglfmtMihzIXA3r6ncIm7uLEPa6ruKwipuPCOjpKDXQYtEHSX0q6aXTcanlBBvS0DCbLCyYzj02coJPfn72C/qmkypKlaWfX7WhtAN2t4J2Sbpd0frdLGu7TDOhp9o48bbyHB9jE/75IrUw46aipTaDDuFdL+qKkl42ai4kWZ0BvxkhnE0ej7knn9N3C6YWEEJOgtoEOEy+V9BcW9uo/TwZ0P4+WtcAmvmXLFpFDvYJwV/1jSR9sWuIofqb99OwC6G5lvybpTySt62ep+T/VgF5/j6h6wg1OFRQPfbVQtpGccXLUJdBh7islkdTi2slxOmDBBvQAJpWaUL+Md3FPiSPSKZNWmfTKk6WugQ6jL5b0SUk/P1muL1m4AT3sRNQoceRs4hRKmDT1AXTH8LdKumOW/nb9pHegtHgDevVJQMFGLXFixT028W8UceIP2tk6xYE+gc7zrytE+ZfbhlhQS9UZwCaOZ5unxBGpYChS+PEx28RjsNI30JkzN/qdkt4Ss4Ax9bEb/ezdBNg4vezf75W+KTNMauWnx3QmUq0lB6C7tfxSAXje4SdJBvQXth3RHBEdUd1jE3+8sInfM8lDE7jonIDOlBHh0coj0k+ODOintnxlZWUupgfYxG+TdOvUbOIxwMgN6E6Ux97+qzELGnKfqQMdMxnmMsxmHrq3sIlzmxsFcCBHoLtpY377ROFZF7CU4TeZMtBxeMHxxWMT3168h981/N3udgU5Ax1O4FiDKI+jzehpikCvYRNHk45G3auVG/1BiVhg7kBnSbjMEgX3joj1DarLlICOgo2EjDt37vTZxB8qbOIPD2ozM5vsEIDuWEYtOIJjCJIZJU0F6JjKMJl5bOLc3L8zKyDyZzmWOBraARwS0OEtmWsQ5Ql/HR2NHegkgADgOL946G8L/3TeyY0ScGBoQGfJJLIgN92vJ1h/VkOMFeg1bOLfLrTp92W1MSOYzBCB7thOqipSVpG6ahQ0RqCTjBGbOMkZK4gvPzTzkvzwUEocDe3ADRno8Jp88mSwISnl4GlMQK9hE/9K4dn2ncFvYMYLGDrQYS3ppfGO+s2M+Rw0tbEAncII2MQ9JY7wSX/3zAvy7iDmWKNGHBgD0B0DKCBBLXcKSgyShg50ShshppPWqYLItPqxwiZOBlajDjgwJqDDrhcXeeUpFTU4GirQubmxiXOTe+LEv14o24gXN+qQA2MDuhPlSf5HEchB1XIfItBJqYzJzFPiCJv4+2Y/xGR8Odnh+bZHFRwYI9Dd5lLW+fNFmedBbPiQgI5NHDH94EFyPVTSZwubuDd7o28g+z6eA2MGOlx5UQH2G+JZ1F3PIQAd0dyVOPLEiT9aiOlf646D9qRlHBg70Fk34vsHZvbZ9+cuyucO9ECbODXEeXWipjh51I0y4MAUgO7YzK1OAcjNGfB91SnkCnTev4kTp+Swh74s6V2ztGBUQjHKiANTAjpsB+R/PauYyft7dpQj0IkuQ6PusYlvLWzi/5AdU21Ccw5MDehOlEeMp4JmVrXccwI6NnFKHPG3grCJf7R4NTKbeMY/KlMEutsObO24z6Kwy4JyALqziXOTe+j+Qtn2iK+hfd8/B6YMdLh/VSHK41XXO/UNdN7BeRf32MQxk2ET/0zvDLMJBHNg6kB3jMK5huipXkX5voBOZBlOLwE2ccANyM0mHgyxPBoa0F/YByLgEOWJiOuFugY6dnBnE/e4riKev22mxHygF8bYQxtzwIB+JgsJiCHG/Y2NORsxQJdA5/bGsw0PtwpCwYYPAgo3FG9GA+WAAX31jSN7zR91Lcp3AXTevxHT8VH3EKYywkgxnRkNnAMG9OUbSF468tORp64TahPoiOZElwXYxHF2wekF5xejkXDAgF69kaSpIvPsz3Wx320BnfhwxHSPTRx3VdxWEdUr8z51wQt7RloOGNDD+PnOIrc8iSlbo9RAxyZOphducg8ReIKy7TFfQ/t+mBwwoIfv26sKrTzVY1qhlECnfhk2cU+JI7xi3iuJUFKjEXPAgF5vcyke8WlJb67XLax1CqBjE0dMJ9Ksgkj+QBIIbOJW4ihsewbdyoAet31Uer2jKBcVN8IqvZoAHZs4tcSpKe6xiZPGCTH9wWQTt4Gy54ABPX6Lri9EeWq6J6FYoFP5BJNZgE2cIoUkZjSbeJIdG84gBvRme3WxpE9KosRzY6oLdGqXAXBqmXmIlMrYxEmxbDRBDhjQ02z6WyTdOas0sr7JcKFARzR3ceKedE4URbh5VuCCIglGE+aAAT3d5l9XZLDhbxSFAH1lZWWubKOueAVhE7+tKGxhNvGo3RhXJwN62v3kRudm54avTVVAx0yGTXz3bm/gGAUK3z57naBgoZFxYM4BA3o7B+EXJH1CEu/wwbQM6IE2cUoM3yKJksNGxoEzOGBAb+9AoI0n7BXtfBAtAh3xHDEdcb2CsIl/vChx5NXKBU3EGo2OAwb0drd0XWFvx+7uJQf0Gjbxhwub+EPewa3BpDlgQO9m+/Gkw6MOz7qlBNDRqGMyw3RWQdzc2MS5ya3EUTd7OOinGNC72z585BHl8ZlfldatWydcWD10l6T3SOKd3Mg4EMQBA3oQm5I1Ivrt9lnONaLh6hJadGzi99btaO2NAwb0fs4A8e3EuRPv7iOu+FsLu7iVOPJxy75flQMG9P4OBplryGBDJptldE9xiz/e3zTtyWPggAG9310kvTS56chRVyZ80vFNx0fdyDjQmAMG9MYsTDLATYUoj1be2cS9hceTPNkGmQQHDOj5bDP55Ek3Tby4kXEgKQcM6EnZaYMZB/LkwP8DeB50N0G/2hUAAAAASUVORK5CYII=;strokeColor=#BAC8D3;fontFamily=Helvetica;fontSize=11;fontColor=default;labelBackgroundColor=default;fillColor=#09555B;" vertex="1" parent="Xe_iNNLOO6JcA-pmjDCq-1">
          <mxGeometry x="-960" y="12" width="132" height="85" as="geometry" />
        </mxCell>
        <mxCell id="Xe_iNNLOO6JcA-pmjDCq-10" style="edgeStyle=orthogonalEdgeStyle;shape=connector;curved=0;rounded=1;orthogonalLoop=1;jettySize=auto;html=1;strokeColor=#FF0000;strokeWidth=5;align=center;verticalAlign=middle;fontFamily=Helvetica;fontSize=11;fontColor=default;labelBackgroundColor=default;endArrow=none;endFill=0;fillColor=#a20025;" edge="1" parent="Xe_iNNLOO6JcA-pmjDCq-1" source="Xe_iNNLOO6JcA-pmjDCq-11">
          <mxGeometry relative="1" as="geometry">
            <mxPoint x="-852" y="157.33333333333337" as="targetPoint" />
          </mxGeometry>
        </mxCell>
        <mxCell id="Xe_iNNLOO6JcA-pmjDCq-11" value="The Internet" style="text;html=1;align=center;verticalAlign=middle;whiteSpace=wrap;rounded=0;fontFamily=Helvetica;fontSize=17;fontColor=#FFFFFF;labelBackgroundColor=none;fontStyle=1" vertex="1" parent="Xe_iNNLOO6JcA-pmjDCq-1">
          <mxGeometry x="-937" y="42" width="60" height="31" as="geometry" />
        </mxCell>
        <mxCell id="Xe_iNNLOO6JcA-pmjDCq-12" style="edgeStyle=orthogonalEdgeStyle;shape=connector;curved=0;rounded=1;orthogonalLoop=1;jettySize=auto;html=1;entryX=0.1;entryY=0.35;entryDx=0;entryDy=0;entryPerimeter=0;strokeColor=#62ff00;strokeWidth=5;align=center;verticalAlign=middle;fontFamily=Helvetica;fontSize=11;fontColor=default;labelBackgroundColor=default;endArrow=none;endFill=0;fillColor=#60a917;" edge="1" parent="Xe_iNNLOO6JcA-pmjDCq-1" source="Xe_iNNLOO6JcA-pmjDCq-6" target="Xe_iNNLOO6JcA-pmjDCq-7">
          <mxGeometry relative="1" as="geometry">
            <Array as="points">
              <mxPoint x="-820" y="227" />
              <mxPoint x="-1050" y="227" />
            </Array>
          </mxGeometry>
        </mxCell>
        <mxCell id="Xe_iNNLOO6JcA-pmjDCq-13" value="All VLANs" style="edgeLabel;html=1;align=center;verticalAlign=middle;resizable=0;points=[];strokeColor=#BAC8D3;fontFamily=Helvetica;fontSize=20;fontColor=#FFFFFF;labelBackgroundColor=none;fillColor=#09555B;fontStyle=1;spacingTop=-27;" vertex="1" connectable="0" parent="Xe_iNNLOO6JcA-pmjDCq-12">
          <mxGeometry x="0.1822" y="1" relative="1" as="geometry">
            <mxPoint as="offset" />
          </mxGeometry>
        </mxCell>
        <mxCell id="Xe_iNNLOO6JcA-pmjDCq-18" value="&lt;b style=&quot;color: rgb(128, 255, 0); font-size: 20px;&quot;&gt;XCP-NG Host(s)&lt;/b&gt;" style="verticalAlign=top;verticalLabelPosition=bottom;labelPosition=center;align=center;html=1;outlineConnect=0;gradientDirection=north;strokeWidth=2;shape=mxgraph.networks.server;fillColor=#F45B69;strokeColor=#028090;fontColor=#E4FDE1;" vertex="1" parent="Xe_iNNLOO6JcA-pmjDCq-1">
          <mxGeometry x="-974" y="405" width="90" height="100" as="geometry" />
        </mxCell>
        <mxCell id="Xe_iNNLOO6JcA-pmjDCq-19" value="" style="shape=image;imageAspect=0;aspect=fixed;verticalLabelPosition=bottom;verticalAlign=top;image=https://xcp-ng.org/assets/img/mainlogo.png;fillColor=#F45B69;strokeColor=#028090;fontColor=#E4FDE1;" vertex="1" parent="Xe_iNNLOO6JcA-pmjDCq-1">
          <mxGeometry x="-952.75" y="431.25" width="47.5" height="47.5" as="geometry" />
        </mxCell>
        <mxCell id="Xe_iNNLOO6JcA-pmjDCq-20" style="edgeStyle=orthogonalEdgeStyle;shape=connector;curved=0;rounded=1;orthogonalLoop=1;jettySize=auto;html=1;exitX=0.1;exitY=0.65;exitDx=0;exitDy=0;exitPerimeter=0;strokeColor=#62ff00;strokeWidth=5;align=center;verticalAlign=middle;fontFamily=Helvetica;fontSize=11;fontColor=default;labelBackgroundColor=default;endArrow=none;endFill=0;fillColor=#60a917;" edge="1" parent="Xe_iNNLOO6JcA-pmjDCq-1" source="Xe_iNNLOO6JcA-pmjDCq-7" target="Xe_iNNLOO6JcA-pmjDCq-18">
          <mxGeometry relative="1" as="geometry" />
        </mxCell>
        <mxCell id="Xe_iNNLOO6JcA-pmjDCq-21" value="All VLANs" style="edgeLabel;html=1;align=center;verticalAlign=middle;resizable=0;points=[];strokeColor=#BAC8D3;fontFamily=Helvetica;fontSize=20;fontColor=#FFFFFF;labelBackgroundColor=none;fillColor=#09555B;spacingTop=-26;fontStyle=1" vertex="1" connectable="0" parent="Xe_iNNLOO6JcA-pmjDCq-20">
          <mxGeometry x="0.033" y="4" relative="1" as="geometry">
            <mxPoint y="1" as="offset" />
          </mxGeometry>
        </mxCell>
        <mxCell id="lj9n_J-MqQY-TelTE86V-0" value="pfsense VM" style="swimlane;whiteSpace=wrap;html=1;strokeColor=#FFFFFF;fontFamily=Helvetica;fontSize=17;fontColor=#FFFFFF;labelBackgroundColor=none;fillColor=#09555B;align=center;verticalAlign=middle;fontStyle=1;gradientColor=none;" vertex="1" parent="Xe_iNNLOO6JcA-pmjDCq-1">
          <mxGeometry x="-769" y="419" width="326" height="249" as="geometry" />
        </mxCell>
        <mxCell id="C-mF1Z7LZHC6h_rY8R3b-5" value="" style="group" vertex="1" connectable="0" parent="lj9n_J-MqQY-TelTE86V-0">
          <mxGeometry x="28.5" y="37" width="144" height="36" as="geometry" />
        </mxCell>
        <mxCell id="C-mF1Z7LZHC6h_rY8R3b-1" value="" style="aspect=fixed;perimeter=ellipsePerimeter;html=1;align=center;fontSize=12;verticalAlign=top;shadow=0;dashed=0;image;image=img/lib/cumulus/switch_bare_metal_empty.svg;rounded=0;sketch=0;hachureGap=4;fillColor=#F45B69;strokeColor=#028090;fontColor=#E4FDE1;labelBackgroundColor=#114B5F;connectable=0;" vertex="1" parent="C-mF1Z7LZHC6h_rY8R3b-5">
          <mxGeometry width="144" height="36" as="geometry" />
        </mxCell>
        <mxCell id="C-mF1Z7LZHC6h_rY8R3b-2" value="" style="shape=image;imageAspect=0;aspect=fixed;verticalLabelPosition=bottom;verticalAlign=top;rounded=0;labelBackgroundColor=none;sketch=0;hachureGap=4;fontSize=30;fontColor=#1A1A1A;strokeColor=#028090;fillColor=#F45B69;image=https://upload.wikimedia.org/wikipedia/commons/thumb/b/b9/PfSense_logo.png/1200px-PfSense_logo.png;" vertex="1" parent="C-mF1Z7LZHC6h_rY8R3b-5">
          <mxGeometry x="23" y="11.25" width="45.9" height="13.5" as="geometry" />
        </mxCell>
        <mxCell id="oyBjPbTBiOyCDSS3Ipil-0" value="&lt;font style=&quot;font-size: 16px;&quot;&gt;&lt;b style=&quot;&quot;&gt;&lt;font style=&quot;&quot; color=&quot;#ffffff&quot;&gt;VIF#0 &lt;/font&gt;&lt;font style=&quot;&quot; color=&quot;#ff0000&quot;&gt;XN0&lt;/font&gt;&lt;font style=&quot;&quot; color=&quot;#ffffff&quot;&gt;&amp;nbsp;&lt;/font&gt;&lt;/b&gt;&lt;b style=&quot;&quot;&gt;&lt;font style=&quot;&quot; color=&quot;#ffffff&quot;&gt;WAN&amp;nbsp;&amp;nbsp;&lt;/font&gt;&lt;font style=&quot;&quot; color=&quot;#80ff00&quot;&gt;CGNAT3434&amp;nbsp;&lt;/font&gt;&lt;/b&gt;&lt;/font&gt;" style="text;strokeColor=none;fillColor=none;align=left;verticalAlign=middle;spacingLeft=4;spacingRight=4;overflow=hidden;points=[[0,0.5],[1,0.5]];portConstraint=eastwest;rotatable=0;whiteSpace=wrap;html=1;fontFamily=Helvetica;fontSize=13;fontColor=default;labelBackgroundColor=#09555B;" vertex="1" parent="lj9n_J-MqQY-TelTE86V-0">
          <mxGeometry x="3.5" y="77" width="319" height="30" as="geometry" />
        </mxCell>
        <mxCell id="oyBjPbTBiOyCDSS3Ipil-2" value="&lt;font style=&quot;font-size: 16px;&quot;&gt;&lt;b style=&quot;&quot;&gt;&lt;font style=&quot;&quot; color=&quot;#ffffff&quot;&gt;VIF#1 &lt;/font&gt;&lt;font style=&quot;&quot; color=&quot;#ff0000&quot;&gt;XN1&lt;/font&gt;&lt;font style=&quot;&quot; color=&quot;#ffffff&quot;&gt;&amp;nbsp;&lt;/font&gt;&lt;/b&gt;&lt;b style=&quot;&quot;&gt;&lt;font style=&quot;&quot; color=&quot;#ffffff&quot;&gt;LAB101&amp;nbsp; &amp;nbsp;&lt;/font&gt;&lt;font style=&quot;&quot; color=&quot;#80ff00&quot;&gt;LAB 101&lt;/font&gt;&lt;/b&gt;&lt;/font&gt;" style="text;strokeColor=none;fillColor=none;align=left;verticalAlign=middle;spacingLeft=4;spacingRight=4;overflow=hidden;points=[[0,0.5],[1,0.5]];portConstraint=eastwest;rotatable=0;whiteSpace=wrap;html=1;fontFamily=Helvetica;fontSize=13;fontColor=default;labelBackgroundColor=#09555B;" vertex="1" parent="lj9n_J-MqQY-TelTE86V-0">
          <mxGeometry x="3.5" y="104" width="319" height="30" as="geometry" />
        </mxCell>
        <mxCell id="oyBjPbTBiOyCDSS3Ipil-3" value="&lt;font style=&quot;font-size: 16px;&quot;&gt;&lt;b style=&quot;&quot;&gt;&lt;font style=&quot;&quot; color=&quot;#ffffff&quot;&gt;VIF#2 &lt;/font&gt;&lt;font style=&quot;&quot; color=&quot;#ff0000&quot;&gt;XN2&amp;nbsp;&lt;/font&gt;&lt;/b&gt;&lt;b style=&quot;&quot;&gt;&lt;font style=&quot;&quot; color=&quot;#ffffff&quot;&gt;LAB102&amp;nbsp; &amp;nbsp;&lt;/font&gt;&lt;font style=&quot;&quot; color=&quot;#80ff00&quot;&gt;LAB 102&lt;/font&gt;&lt;/b&gt;&lt;/font&gt;" style="text;strokeColor=none;fillColor=none;align=left;verticalAlign=middle;spacingLeft=4;spacingRight=4;overflow=hidden;points=[[0,0.5],[1,0.5]];portConstraint=eastwest;rotatable=0;whiteSpace=wrap;html=1;fontFamily=Helvetica;fontSize=13;fontColor=default;labelBackgroundColor=#09555B;" vertex="1" parent="lj9n_J-MqQY-TelTE86V-0">
          <mxGeometry x="3.5" y="131" width="319" height="30" as="geometry" />
        </mxCell>
        <mxCell id="oyBjPbTBiOyCDSS3Ipil-4" value="&lt;font style=&quot;font-size: 16px;&quot;&gt;&lt;b style=&quot;&quot;&gt;&lt;font style=&quot;&quot; color=&quot;#ffffff&quot;&gt;VIF#3 &lt;/font&gt;&lt;font style=&quot;&quot; color=&quot;#ff0000&quot;&gt;XN3&amp;nbsp;&lt;/font&gt;&lt;/b&gt;&lt;b style=&quot;&quot;&gt;&lt;font style=&quot;&quot; color=&quot;#ffffff&quot;&gt;LAB103&amp;nbsp; &amp;nbsp;&lt;/font&gt;&lt;font style=&quot;&quot; color=&quot;#80ff00&quot;&gt;LAB 103&lt;/font&gt;&lt;/b&gt;&lt;/font&gt;" style="text;strokeColor=none;fillColor=none;align=left;verticalAlign=middle;spacingLeft=4;spacingRight=4;overflow=hidden;points=[[0,0.5],[1,0.5]];portConstraint=eastwest;rotatable=0;whiteSpace=wrap;html=1;fontFamily=Helvetica;fontSize=13;fontColor=default;labelBackgroundColor=#09555B;" vertex="1" parent="lj9n_J-MqQY-TelTE86V-0">
          <mxGeometry x="3.5" y="158" width="319" height="30" as="geometry" />
        </mxCell>
        <mxCell id="oyBjPbTBiOyCDSS3Ipil-5" value="&lt;font style=&quot;font-size: 16px;&quot;&gt;&lt;b style=&quot;&quot;&gt;&lt;font style=&quot;&quot; color=&quot;#ffffff&quot;&gt;VIF#4 &lt;/font&gt;&lt;font style=&quot;&quot; color=&quot;#ff0000&quot;&gt;XN4&amp;nbsp;&lt;/font&gt;&lt;/b&gt;&lt;b style=&quot;&quot;&gt;&lt;font style=&quot;&quot; color=&quot;#ffffff&quot;&gt;WANLAB1&amp;nbsp; &amp;nbsp;&lt;/font&gt;&lt;font style=&quot;&quot; color=&quot;#80ff00&quot;&gt;WANLAB1&lt;/font&gt;&lt;/b&gt;&lt;/font&gt;" style="text;strokeColor=none;fillColor=none;align=left;verticalAlign=middle;spacingLeft=4;spacingRight=4;overflow=hidden;points=[[0,0.5],[1,0.5]];portConstraint=eastwest;rotatable=0;whiteSpace=wrap;html=1;fontFamily=Helvetica;fontSize=13;fontColor=default;labelBackgroundColor=#09555B;" vertex="1" parent="lj9n_J-MqQY-TelTE86V-0">
          <mxGeometry x="3.5" y="185" width="319" height="30" as="geometry" />
        </mxCell>
        <mxCell id="oyBjPbTBiOyCDSS3Ipil-6" value="&lt;font style=&quot;font-size: 16px;&quot;&gt;&lt;b style=&quot;&quot;&gt;&lt;font style=&quot;&quot; color=&quot;#ffffff&quot;&gt;VIF#5 &lt;/font&gt;&lt;font style=&quot;&quot; color=&quot;#ff0000&quot;&gt;XN5&amp;nbsp;&lt;/font&gt;&lt;/b&gt;&lt;b style=&quot;&quot;&gt;&lt;font style=&quot;&quot; color=&quot;#ffffff&quot;&gt;WANLAB2&amp;nbsp; &amp;nbsp;&lt;/font&gt;&lt;font style=&quot;&quot; color=&quot;#80ff00&quot;&gt;WANLAB2&lt;/font&gt;&lt;/b&gt;&lt;/font&gt;" style="text;strokeColor=none;fillColor=none;align=left;verticalAlign=middle;spacingLeft=4;spacingRight=4;overflow=hidden;points=[[0,0.5],[1,0.5]];portConstraint=eastwest;rotatable=0;whiteSpace=wrap;html=1;fontFamily=Helvetica;fontSize=13;fontColor=default;labelBackgroundColor=#09555B;" vertex="1" parent="lj9n_J-MqQY-TelTE86V-0">
          <mxGeometry x="3.5" y="211" width="319" height="30" as="geometry" />
        </mxCell>
        <mxCell id="zM6NyNM3y6Noj7LGzsRK-1" value="" style="shape=flexArrow;endArrow=classic;html=1;rounded=1;strokeColor=#FFFFFF;strokeWidth=2;align=center;verticalAlign=middle;fontFamily=Helvetica;fontSize=11;fontColor=default;labelBackgroundColor=default;edgeStyle=orthogonalEdgeStyle;curved=0;fillColor=#60a917;entryX=0;entryY=0.5;entryDx=0;entryDy=0;" edge="1" parent="Xe_iNNLOO6JcA-pmjDCq-1" source="Xe_iNNLOO6JcA-pmjDCq-18" target="lj9n_J-MqQY-TelTE86V-0">
          <mxGeometry width="50" height="50" relative="1" as="geometry">
            <mxPoint x="-648" y="511" as="sourcePoint" />
            <mxPoint x="-757" y="457" as="targetPoint" />
          </mxGeometry>
        </mxCell>
      </root>
    </mxGraphModel>
  </diagram>
  <diagram name="pfsense and VMs" id="59l4hgqYd5ZdBnbKAsZx">
    <mxGraphModel dx="2272" dy="969" grid="0" gridSize="10" guides="1" tooltips="1" connect="1" arrows="1" fold="1" page="1" pageScale="1" pageWidth="1100" pageHeight="850" math="0" shadow="0">
      <root>
        <mxCell id="olQ4QFfJ9eWp8q7BxKvW-0" />
        <mxCell id="olQ4QFfJ9eWp8q7BxKvW-1" parent="olQ4QFfJ9eWp8q7BxKvW-0" />
        <mxCell id="olQ4QFfJ9eWp8q7BxKvW-7" style="vsdxID=5;fillColor=none;gradientColor=none;image;aspect=fixed;image=data:image/jpg,/9j/4AAQSkZJRgABAQAAAQABAAD/4gHYSUNDX1BST0ZJTEUAAQEAAAHIAAAAAAQwAABtbnRyUkdCIFhZWiAH4AABAAEAAAAAAABhY3NwAAAAAAAAAAAAAAAAAAAAAAAAAAAAAAAAAAAAAQAA9tYAAQAAAADTLQAAAAAAAAAAAAAAAAAAAAAAAAAAAAAAAAAAAAAAAAAAAAAAAAAAAAAAAAAAAAAAAAAAAAlkZXNjAAAA8AAAACRyWFlaAAABFAAAABRnWFlaAAABKAAAABRiWFlaAAABPAAAABR3dHB0AAABUAAAABRyVFJDAAABZAAAAChnVFJDAAABZAAAAChiVFJDAAABZAAAAChjcHJ0AAABjAAAADxtbHVjAAAAAAAAAAEAAAAMZW5VUwAAAAgAAAAcAHMAUgBHAEJYWVogAAAAAAAAb6IAADj1AAADkFhZWiAAAAAAAABimQAAt4UAABjaWFlaIAAAAAAAACSgAAAPhAAAts9YWVogAAAAAAAA9tYAAQAAAADTLXBhcmEAAAAAAAQAAAACZmYAAPKnAAANWQAAE9AAAApbAAAAAAAAAABtbHVjAAAAAAAAAAEAAAAMZW5VUwAAACAAAAAcAEcAbwBvAGcAbABlACAASQBuAGMALgAgADIAMAAxADb/2wBDAAMCAgICAgMCAgIDAwMDBAYEBAQEBAgGBgUGCQgKCgkICQkKDA8MCgsOCwkJDRENDg8QEBEQCgwSExIQEw8QEBD/2wBDAQMDAwQDBAgEBAgQCwkLEBAQEBAQEBAQEBAQEBAQEBAQEBAQEBAQEBAQEBAQEBAQEBAQEBAQEBAQEBAQEBAQEBD/wAARCABEAskDASIAAhEBAxEB/8QAHQAAAQQDAQEAAAAAAAAAAAAABwACBggBBQkEA//EAF8QAAECBQMCAgQJBwYICgYLAAECAwAEBQYRBxIhCDETQSJRYdIUFRcjMnGBkdEJM0JTY5KTFkNyoaKxGCUnUmKC4vAkJjZ1hZWys8HhGVRXc5TCN0ZHVVZldIOE0/H/xAAZAQEBAQEBAQAAAAAAAAAAAAAAAQIDBAX/xAAwEQABBAAGAgEDAwMFAQAAAAABAAIDEQQSITFBURNxYRQigQWR8CMysSQzUqHR8f/aAAwDAQACEQMRAD8AvAqqTu9QM053I+lGBVJwcGZc/ejyOqIcXnHCj/fAxqPU9070eoP0uqa1WhLzco4pp9pdTb3NrScFJxxkH+6Noi38aT3B+EufvGEKnO/+tOfvQHR1X9NH/tzs3/rJEZPVf00pxnXOzh5j/GSO0Wj0iMSanPec05+8YyKnPDj4U5+9AdHVh00Hk652bj/nNES+ydTtPNS5aYnNPr2o1wsyqwh9VPm0PeEo9goDkZ8sjmJRRTMVSfHeac/egRan07qmqlymb0p1Tt6jUMsISJSfpgedS6Ppq34OQfL1QUAM8nMRy8L7pNlpYXVUvJbfUEhxDS3ACT5hAJiEgCyqASaCEpoHXW2krXrpZgA7k0YYA/cjDdJ63lPKlfl6slT6Rktijp3DgHkbc9iD9sbTWjqh0v0ntozl0zbsz8MQQzJsS77bryQoBW0uNgejnJ58oEun35QzQOt3OqnJp1UpztSccdVOTTZcCVEDDYCAVc4AGB/5cop4p2CWJwc08g2P3C3I10RyvFEdom/EHXR3VrhZgI8hRP8AZjC6L1xN7Q5rlZSdx2p3UbGT6vo9zEzc1zs5hUsibFQYdnFbJdpVNmd7qsZwkbOfXAw1t6y9I9NESElc0pWnppbqJkSjUqtlxKRkpWfESMpJB7c8Ryix2FnIbFK1xIsUQbA0JHYB09rLAZGeVgtu1ja+r7W5ZpfW3MlSWNdbHcKT6QTSAcckeSfWCPsMfQ0LrmCs/LXZWP8AmU+7EK0c67NC7unBbNIlKrIzailDAfllOuzjqiTtSGwSTnJ54g1Oa42ay8iSdbqwmVtF1DHxVMKWUA8nAT2zGpcZBA7JLIGmrokDQbn18qNOd4jbq47Dk/jdQddI63Gxsc1wslKsFXNHxhI7n6PlDWaT1tTTYcl9c7JdRkgqRSMjj6kxBtYOujQy0K+aFVpWvzc2yw9LPeBLllUupWApCkuAHdgA+rnziT6P9aOi+pMmafbErVpabZ3YkUyK3XC2kDLhKARjkck5jbp42R+ZzgG1d3pXd7Uj3eO8+lb2toaH1yZyNZ7KH/Q54/sx8nKf1tS6VeLrhYiC3gq3UnAGTgZynzJieI1usx55+Ulma2/MS20vst0h8qayMjdxgcRXDUD8oXoJTrjm6Q7Ra9PpYdZzMNNhtLobydu1XpAbioEH1RmLFQTktieHEUdCDodQdOxt2t5XBgkr7TseD6KKzdL64H0Jcb1osZaFDKVIpBII+sJjJo3XQAQnWOyM4OM0hXf92PXpT1X6W6p0RuoWqxVdzKEmYlmqc4v4IVE7UqKRtycZ49cSOd6gLDkKXOV15VWVT6cHFTUymlPltpKPpknHlnmOb/1DCxvMb5WhwoEFwsE7Ai+eO+FmMGZxZGLI3A1I+SoY9Kdbku3vc1tsBIyUqKqYQNwGSOU+Q5j7Gk9dO0eHq/YqgfP4pV7sBCZ/KH9PkhX5hYta4phQnHXV7thbcWoBG7afLaOB7eYstaHUbp1elvt3PQHKm/TClW6ZTTXfDQUgFaScfo+eI6zYmLDAOmeGgmtSBqdhryeAsOkawW4gKSaXq1uptHqCNXbxotVn1OZk3aZLKYQ03t53g4yd3P1QLqhTOtlmYccY18slmWWtZZ8SkJHog8D6PkMZiQXl1LabW1Zs7dFUarK6WJdWx34rfbbf3AhKAtQAG4ggE8ZivdH/ACjWgVQuCnMTdqV6VaLqmVOPbHGmvEUApxSRyrAycCLFiI5wTE4OANGiDR5GnIXV8b4jTxV9o0Jt7rs/S1ys3H/Mo9yPp8QddASCNcbNPkc0Xy/cidDXPTdVvMXOirzypKabS60pVKmEZSrscqSBz9cadvqX0wlAlFx1GapLiwVpBknZhJTkhJy0knkDPbjMSHExYgF0Lw4A1oQdRxpyuTXteLbRUbVRuuJCktr11skLV2SaMM55x+j7IwxTOt2a3fBtd7Ge28K2UcHHqz6PEQTWLrw0BtCvSrEumr3A+kFLrkmwuWDKkE4QpLyQo/TJyMRt9CetfR/UVlyhUGi1uTnpfARL/A1TD0whKcqcJbHAGfP18RuSVkTS+R1Abk6BUuDRbtFKfiLrlB/+m2y1f9C/7MfNVM63WgvxddLGRsSVKJpH0QO5Po8ROk64WY9MuyUpL12YmmAkvMNUd8uNZ7bhjjOYrRqX1+aFW/dNQoyaHcE+rCkPTDIDIKjtC0lCxuBBbxz6ifVHOLFQznLE8OIo6EHQ6g+jx2t5XBgkr7TseD6KLqKR1vTSfEltcbIWgcEpo+RkdxwmHmg9cQ3FOtdmK8kg0c47f0YZo/1c6Y6o0H4ZalHrTa2OH5RmnLe+D5JCdykjGVYz643FT6r9H6Qh1ycrM8hMuCp4ilTBDQA53Hb5eqNMxEUj3RMeC5tWARYvaxxfFrAe0ktFWFolU/raSDnXOxBghJzSvMnAH0fPyj6JpPXE8hDjOtVjuNuAKChSCQR6wQnGICVa/KKaESNXfp6LWrsy3KzgcS8hSQh/YTt4PISdxVg+uLFWT1J6dXlazFzUJiqfFhaytxFMdLTBAypJUBg7exI44hNiIsOA6V4aCa1NanjXlRz2t1cQFol0frkSkuL1mshIHJJpBAAxz+jHncletlkNlzW+wEpUojKqYRnHcD0e/MbC6+rLRWkUecXUa7MuS5aWyrFOmEpcUpKhsCinAJwRntAAo/5RHQr46lkrtCttJL60kzC0rbQXFjc4Ugc7ccAf1nEdLWrR3FJ66NxxrDYxHq+KFe7DXad1zNYU5rFYaUAgZVSlAf1piXSWv9hT9GZuNuYnkUt9sPNTjlNmEtrQexBKex8ogGo/WTolQbednJ2pzs4UKS6zLNSTzSpjYQSApxG3HYkHyjlFiIpwTE8OANGiDR5Brn4WWva8W0gou3JO6szOn0vSLfvyjSF8Ll2Sqfdl/ElluZ9MoaOfRVzjvAyFu9dvb5crNxnnFFHb9yBPYn5QrQarXRLSrlEqtN8ZpuWbmJsF1EulAO3AQkqJJwOB93MWOqGu9mUiVTO1aamJFleAgzFOmk7yccAeHz3HEH4iKN7Y3vAc66F6mt6HNfCF7QQ0nUqDqo3XJLgGa14sloK4AVRkjP3pjKaX1uqmDKI15shTqRygUgbx2J42+oj7xEV1m609E7cpko5OOVCruBagZWVZcYWlC0keIfGbwRxgY55jx6J9c2it/wB1P0KUp8/SJ6ecLrLs42t8urUQPDQGkKUOBnt5R0c8MBc40AqSALKn3xB1zAH/AC4Wb7CaJ/sxkUHrm/8AbdZn2UX/AGYmdwa22lRHkSTc4J2eWkLbYSw+0VDPPLjafLJ+zEeij65aaVmiTNwSdbm0ycmlanlqpUyoJCBlXKUEHAHrjg7G4ZkQmdIAw7GxRvo7LcLHzn+kM3rX/CHqpHrZQ0XTrzYm0FKSr4pGNx4AJ294+zVG64nUoeRrfZK0LTuCk0bIUD2IO2AdXPygPT/btcmqTI0O4KtLS04l1M0kpQiZ2A7VbSkEA7udwzwIsLp51RacahWuxcNvStX+CobSH0tUt5xEqrbuLZUkYJA9XEdJsRFh255nho7JAH/a5ue1gtxAWrNE64UZcd1ustKQCSTRsBPt+jHnXJ9a7SELVrvYYCzgKVS8AqAyQPRiUXb1BabUq1Jmu1mYqzNFca2LnkU14IAWdowop8zxnBEVolfyjGh7dVlWjZlaKZZa2Uha0FvKlAFZGPIDAA8j7BiRYiKe/E8Oo0aINEbg1z8Ls+N8VZ21euvSO4ofXNuydaLJx7KMc/8AZhjtJ642ElbutVipQONy6QQOfbtiR0HqV05uKks1umO1RdOmElTc4aTM+CrBwcK29s8ZjTax9SOmFiWsuavFVVZYfyZZsyDrZmloAX4aStBHbHcdo5jHYZzxEJW5iSKsXY3Fb2ORwsxgytc5gsN3I1A99fla8yXW0HG2hrhYfiOpBQk0zlWc9ht57H7jH1+JeujKwdYrH7ZT/ilXf92A7Yv5QXQN24JSR+JKxJpdQ3LpmJoeKmXSkH0glKckk+r7MRZZrXSy1fB/hKqlKpnMCXU/SZpHikjICfQ5JBziOkmJihIbI8AnayBdb1fXKxmGYN5O3yoUqm9cbIBf1lsNO7hO6kkZ/sxsrOR1dsXVJJvDVeyp6lNOhU9KSlPKZhbXGQk4BB5HPtiNa79V2k+m0jKLulirTE4h0OsSCZRyXW4g7klzc4nGAR2znmIjpD136K3pdj1ElKXVKfOVBxTrTz7Kn1uOLUkBlAQkn7f9H6oR4mKWLzMeCzewQRXd7LcjXREtkFEb3pSOuq8p1IVeqyr2kOpNDoMihgpmGKjTxMLW7u+kFYOBjjEQVyidc7CS49rtZaEggblUYAc8d9kTms67WDbiUqr9QmZBahlKHadMblDtwAg+qAzq7136GW6wiiTD1Rq3jrIfTJsLYcYUghQCvFR5+z1RYp48QwSQuDmnYg2D6IXNrg4Zm6hTJqg9cbraXE662YtChlKk0UEEfux9BQOuZQwdb7N4/wDyXv8A2Ij2hnWlpLqUgWvbsvUZSZlElEvLPsuPOvpAKlKHhoIAHnnHfiCfW+oHTu3VeFWa2JZ/AyyqSmiv7Qlo47iJ9TF5fBnGerqxdbXW9XymdubJYvpQ92k9bsuEmY12shsKyBvowHl/Rj6Cg9cuM/LdZn/Uv+zAp1X/ACgGhEtVGKG5K1KtyzI8dE1IEtIKyCCkhxAVkc+QH1wXtFuq/TXWej/C6DUUyEyyD4slNNTC3WkA7UqKm2lJ5xxzmNSzRwMMkrg1o3JND91XODRbtF8PiPrnyP8ALXZWPP8AxL/sw74i65dh/wAtllkk8f4l7f2Yk1T6grDoswpVRni5JNKLb0zLNOqLbmQEpKFpSecnnyx7Y014dYegNoUF+sv3dNzDrbalNSopEy2p5YTkIC1ICAe3OcRsODhYKoK1jdK623llpvXWx1uJPpBFJyQM4OQE+viPoaH1zBXGtFlYPbNHPuwGrN/KQ6FG5PA/kzcEkKm/mYnHihxLQJyo7UgEgeocnHmeYsr/AIQWnKKUzXJxdck5GYQHGX5ijPJS4kp3DH1jkeuOcmIiic1kjwC7QAmrPx3+FC9rSAeVDjReudKSVa1WRkefxOe3t9GPmzTOuCZTlnWuxHUggFTdJJHr7hMavUnru0MsekPOqmavPzRSgpk0yDjC3G1nbvCljGBEF0W68tB6nXBalLotwUz4xWlQcmEiYK3uEoQlKBnKiY2XBozE6Kl1alFD4k66fPWSyPbmkq92GmkddLaAtWslijAyoqpKsDH+rE3rGvmndvI/x7N1ORUpG9KXaY8VKTnBICQc4MBrVnr60FtiSXRHU1etGaK5abYZl3JZxkbQeSvB5B8oxBiIsTGJYXhzTsQbB9EaKNe14zNohS4U3rmcaC2tYrDcz5ilKI+/bBB0pTr/AEx2eOsd7UGstqSj4GKXKKYU2rJ3FZIAI7YgOaGdbuj2pcwbTt+m1mRmWtxlZZxgvrf5UtZGzsByeYJ9b6h9MrecXLViqTstMpxlg0yYUvkAjhKT3BHnGfqoRN9PnGery2Lra63q+dlM7S7JYvrlRy6aV1lmuT85b+tdoyNHcmFmUamaQCtpok7EKUUnJx55jXooXXSpKVjXKzClQyCKKD/8kDjVn8oJoHTp9mgLkazW2WimZD8olUv4TySRtKVjJI9oI5gj6IdW+mmrtF8O15apMPyCQhcm5LrdcbZThKXFKSNvJ+3jtGpsRFhozLM8NaNyTQH5KOeGDM7QL6igdcu041ws0q9XxL/sxhykdbzG3xtdbKbK1YSFUYDJ9mU8xJa11J6XW+p1FUry2VsJUp1PwCZJQE5CirDfGMGK93/+UK0CNyfBJijVqomlOYlpyVcLbboO1WQlQ9g7gKGOCI214eA5psFW7FhGQ0HrkH0tbrMP/Qn+zGRQeuTjGttmH15onf8AsxsdO+qOwNTKA3cFvmaUggfCWxJTDnwZZG7YtSGynOMHgniPrXOqnSG3kurqd1MNhkArPwSb2pJ7Aq8LEYZPHI90bXAubuAdR7HH5QPDiQKsLTGk9b6XRLua5WOlxf0Umj4UfqG32H7o+iqD1y4ATrZZY4/+5Tz/AGYCbv5SPREXWaqq0K2udTiVDnjZbKUlQCgkjj6aufbFnbd1yse6rcaumi16TekX0koV4E2MkcEZLOODxnOISzxQAGVwbZoWasngfPwhcG70FD1UHrkByNa7MPHY0c9/3YaKH10gH/LTZP8A1Mfdgx29cEvcNIFYlgPDUVgEE4VjzGQD94ivNR68bAp1Rmqcu2KmTKPuMLUX2UglJIJwVZ8o6XXKupOykSqV1xpWGflssXxD+gaQcn6htjKqL10HP+WWyPLA+KDj/swH6z+US0QpVyIq87aFyCfSkHKFoUggJKRxux2J7Y8okNO/KQ6VVKcp8qi1q4n4xdQy0ohvAK1BIyN3thfyr+FPVUbrr7J1kscnI5+KVdv3Ya5TeuZkjfrPYaUngb6URn70w/Urq4tTTS637Uqtuzz70u026p1t5tKSFpyBhRB84Fd2/lDNHUeCzXLZrWG1L2hpSCDlODkjPkYZuLUo9IpqpXXYFejq9YmPM/FKvdg0WTNX9KWxIy9+1yVqFeSg/C5iRbLTC1ZONqTyBjEVPa/KYaTPSqZz+TlXDbhKQcDOR7IsxpnqDStUrHpd9URpxqSqrRdZS6MKABI5H2RQbRTQ1SeI4mnP3jCNUnfOZc/ejxk5znsIwTwYqi9Zqs73+EuY/pGMfGk3/wCtOfvmPGVZIyOPqjG72D+uCKKavzUxKabXnMyrqmnmqNPqQ4kkKSQyvBB9ccRrItqlXM7VTV6tNyaJCRM02JaTMy7MPF1CA2E5GB6ZUVE8bfaI7aay5+TC9sHk0Wof9yuOF9OqlSpLpmaXPvyjyk7CtlwoUUnyJB7cDiPXhRusu20W2va36bbVbTIUmqP1CUdlWZlDz8qZdwFacqQpsk4KVZGc4OM+caqcwlMtnzYSf6zG0lGq3XqrJsMS81Wq9VnENSzZBfcWonahKUnJUongAwV9XulXqN0RtSTvTVCxUtUKaUhlx1t9qYEq4vlLb3hkllRJIHlnjOeI9n2tGUnVcrJOijmmHT7dWqVAnLhps7IyMu2X25Rcy8kJfeYbDrqCASpOGzkEjBPEGn8mHOTbPUPPyLMy4mXmrbmy82FEJWUOs7SR2OMnH1mKtfGtWpDBl6TWJ1iSmgXA22+pI54IIHBPGPbFnfyZJx1HzHf/AJNT3/eMxzxFZKrYfvr/AOKx3ZN7/wDS6t7vbiBZrtkW9OhskO/Fz6mdv0g4EqKce3OIJ+T5wLddkzC6DMGU3+OJF8tbU7iVhKikAeZziPkvALaK9DTRtcZ9QtUb81Am25K965Mz/wAXuLSyHzy2PMfbEakpx2Qm2pqTXscZWFoWOCCOQYllS0a1hmqhMTrmnVwFTrilkmnuAHJ79o+A0Z1gTj/J7Xh//CX+EcooYoIxFE0NaOAAB+wWpHvlcXyEknk6o7Wdqtq7dOl13XrPXLUpyetr4P8AF0xkksKwSojHnsSSfYIrve2ot3amVZus3pWHahNtNhlLjquQgdhBz0wtzVehaN3/AGy7bVTlXqoGTLSrskfEfUQptWwEZPoqUOIDo0N1gCsjTuuj65NY/wDCOUWDw0Dg6KNrSBQoAUCbIFDQXr7UaTHH4maN6G37bLUWxcVUtGsylwUCdVJz8i4HZd9vhTax2IPriyFQ1q1pktE6dqqi6Kl8bzFSek/h6sKCpcHbt7YCdwI+sQChonrGCANPa3n/APSKgtz1q6tTfTbTbB/k3UlTMtV3lGn/AAP55DRUV7jxnaVKPMamweHxBuaNrjVagHTrXj4UZcbxKzRw2I3H5QBuS66zelfmrkuScVN1GdXvfeX3Wr1n2xubH1Fu3TupqrFnVh6mzq2iyp1nglB7j7Y+ydDtX0DcNPq0MeuWMO+RnWBIP/EKs+o4lzG3QxPj8LmgtqqrSuq2pZePJefW90adUdYtaLGoNs1+SuWqSU1cVOQ7UHlHl9ZQCkknz2qGPYYrS9OOzsy7OzDm995ZcWo85UTkxYXWC0NW74tCyaaxbdSn3KXTUNzTTcsNzDiUJQEqwODtQBj2QK0aE6xpGRp9Vxn1sRmLDQwEujYATV0ALrQbdDQdLZc8tDCdBsOB6Xo011Q1Aseb+LLLuGcpyao+0h9EuopLp3YA/r4+uCP1B6papWdctQsFm4J6Wo9QlEKelFfRd8ROHPaQVA59oMD2laO6z06qSc6mxqu2ZaYbeCvAzt2qBzj2Yz9kT7qGsDVW/wDUJytyFs1GqSyJRlpEw0yNhIBUocY/SUqMyYPDSuL3xtJJB1A3Gx9jjpI3OhJfGaJ0NaWPlAFt0YG0jj2QaNBtTdSU3FQ9OKJcU8mizc2ouyDKsIWggqcyB5YGTEKToVrAgA/yBqoz2+aH4xM9INM9X7O1KoFxzFpVKRl5SZ+emHGQUNtqSUqJ9mCY6ywxzCpGhwBvUXqNj7XMsDtHC1r9YdYNUJqerGmdduGdXRJSbLaJB3hKEoVlAx348oEyXCV5SMJxzxBa1H0i1fue+K1cCLMqk03OTbjiH0sgJWnPBH2RHhoRrEkYFiVMf6g/GJFDHACImhtmzQA1POnK6vkfKbeSfaLegmqept5VMWrVriqE7RKTT9yZZSvm2UpKUoz9WcCCR1MVKtUezzWqG862/LIl962/0WypQOfYScQKtA7C1Lse6p2Zr9uTtOkJyRUw4482NqlBSVJTn15EFjqMol0XJZaqNakm7OTE0hgOsNAFS20rUo9/UQO0SKCLDjLE0NBN6ADU7nRcmsawU0UqU1auT9eqLtTqjynpl45Ws91H1mNzZV/XRp7V/jy0Kw9TZ0tlovNYCth7jn1xtPkG1bT6RsieHnyUfjDvkN1cJ2iy53P1o/GNyRsmaY5AC07g6g+wjmhwpwsItXvq/rRaVk2zd8rclTlJyvtqM5Nk8v8AAUjJ+o5GPKK5z9Rfqk6/UJ18uzMy4p11auSpSjkk/bB4v2z9VLq05tG2G6LOTcxSEKTMS4CAWClISgHkfowNhoTqyPS/kTPf2PxjnFhoYHF0TA0mgaAGg0A06G3S6Z3Fgjv7RsOB6Cbp9q1qBpyiZkrKuKbpyaipPjpYOPEI4H98TvXy5r1te4mKS+uYlmp2nIW626PziiVJWT6+U4P1RC2tEtXWXm3k2XPgtqCgRs7jn1xPtdLR1O1EueSqspRZ2qNsSCGS6hCQEr3KUtPGOdyjGmwRRyOlY0BztyBqa2s80uQY1pLgNSgH4xUf74L2jerWp0nPUjTe3bgnUUmdnAhciyeHAo5WPXyM5iK/Ilqok/8AIqofup/GJHp5ptqtat8US4Ta8/JokZtDi5hTadraM4UTz2wTCaCLEANlaHAGxYB1Gx15HaOY1/8AcLXj1fu26Ja661bU6+tEqHshlYI2gjcD/a7+2BoFndkHiC/qZpfqpd171Wvy1qT84xNOgtPobTtW2EgJI57YAiNJ0K1aBwLFqX17B+MdVpFHQnVXVG8KnKWA/XZ+doshJL2SQ5QhKQEoGPrIA9pgNXZe9y1xa6TW5tbiJR5aUpWDuQQcEeztz9UFrQeyNUdPb7FZn7dnabLOyrjK33WhsKuFIHP+kBA9n9FtW5yempx2x6opbjqnFKLONxUScgRyigigBETQ0E3oK1POnKy1jWaNFKCy8wuVmG5hpe1bSgtJB7EHIiydmau6ualWZd1QuCvVGqpoUk2uUWeUsOYUokY89refqEB8aHasEEiw6rgfsYKOllnasWfZV7USZtuoyRrUmhEsy5LgqmHNriCE55J2rP3wfBFI9sjmgubdEgWL3o8XzSFrSQSNQgdc14Vy7Xmn63NrfWwjw0KJJITnOIba911qzK/KXJbU85Jz8ivxGXk90K9YiSJ0K1eVyNPazjOOZYxn5CdYNuRp7WSPZLExt7WyNLXiwd1SARRVrdAL+vbUSms3RfNTmZ+bdmHm2Zh4Yy2kDhOPIEmBJrXqbqLY8yzRbfrs9IUeryjniNNqw28dykr/AKsAwSem2kXXblsytDuqlzVPelZp8sMTLRbUEKAOfbzmBXrbZGoF71enC3qLM1CQkGVoQpGzCFqWSoZJB9UcfpMP4xDkGQbChQrahsF0ic6D/aOX1p/hV9UtSlEk5yYKOkOrOplCmpGwrTuCelpCqTqEOSksfzylkJP3jiNUnQrVU8fyOm/r3I/GNpaGk+rVt3XSa+i1J6X+ATbT/jegfDCVAk9/VG5oIsQ3JM0OHRAP+VycxrxThYW8101R1OlapP6dVOtz7dDU0w43IOn0NikJUlQHqyciAlvXuBJMGvVfTrVO+r2mK/KW7OVCWWwwzLzCQkJLbbaUAd/LGIiI0I1ZUMiy5370fjFihjhBEbQLNmhVns/Pyur5HyUXkmu0Q9B9ZNWapUabppJV+ccoEuy4v4A0kbUoT6X1gZwe8QbV3VfUe8qnNWze1enJxmjz77bLEwSSwpKigj68DB+qJRpDp/qfYF7y9fqFvTlNlQy4y9MLCCkJUOx5OMnERq6NJtWa7ctWrb9oT7y5+dfmluhCQFlayrcOfPOY5MwWGjf5GRtDrJsAXZ3N9nk7lZYTG0tZoDvXPvtDhiYdl30PtKwttQUk+0RZnTHWjWXUKn1tdTuGo1BNAp/iSJSn8w/tVtIx57UK7+owGhonqmf/AKlVH9wfjBJ0dtjVCx5K5ZWYoc/TvjSS2S6XGh88+AsJSM+eFq49salw0M7mvkYHFt0SASL3rq+a3WcozBxGo2PSE9+6m3nqTOMTt41p+ovyyPCacdOSlPq+qNLQK/VbYrErXqNNrlp2TcDrLqDgoWOxHtiW/IVq4olf8hKnyfNsD/xhHQnVwjixKmcepsfjG2Qxxs8TGgN2oDT9tlt7nSkuebJ3tFpnVHVW7dHK3fdZrFRn5yRmW0NzjhJ8NsLQFY9QyvB+sRXq4biqlz1Jyq1Z8vTLvK1nuo+s+2DvQrV1Tpeh9esM2/UG5uemQW5EsDxHGSttSyPPGWx90DD5DNWyNyrBq+O/5gxY42QtDIwABsBoP2WQ0NFNC0tkX5c+nlaTcFp1R6nz6EKbS+0cKCVdx9sHPUDUjUkaVWrfM/UZ5c/VH3fhE67u+dByUDP1J4+qBKvQ7VtI40/rJ8+JcmClelr6qV7Ri0rKbtiqTMzSnVKmJNEofEYSkKDZUAMjhR794nhj8nlyjNVXWtdXvSgaAc1aqvk5Ouz0y7NTP03VFRx2yYl2m2r2oOl78z/IWuv012fCW3S0ASsA8Dn2w86H6uj6WntbH1yioy1orq9LzDbzentd3NqCkkSSzyD9USaGPEMMUzQ5p3BFg/go5geMrhYV0piaqM3py4/UluqnnnZVUwXOFlw7SrdnzJJilupd0XRMVyq21V5h7wpKfdQGHP5spUQB9wAi5k0/PnTsvVFK0TanZVUwCnaQ56JUCPLB8oqldmj2rdw3RVa7/Jx2Z+Hzjsx4vjsjeFKJCsbuMiNtAaKC0eghQlxba0uD6STmLIaQapas6gy1SolSrVQqtPpNNKZaX7paVtKUY9uAQIGK9BNWtm42i8QfU8170T/Rm0NT9Ppyrrm6TMU0T0p4bJUpshx8Z2DufWYxJBFK5rntBLdQSAa9dLJY0kEjZBW4rorNxuINXmC8tkbEqI5A9WfVHhpNWnqHUperU2YWzNSrgdacTwUKHII9oibq0G1dWtSjZ0zyo/zjfJ/ej5u6D6toPpWXNk+xTZ/+aOhAIoq1YRRoOo2qV16UXTelVq9RqExT/DQ1NuKKvCQlbe/B9XpjP1wBLgr9TuWfXU6rMF6ZcxvcPdR9Zg5WnaOqFE0juayF0WcYm6qQWJMhGXUFbZcxz6mx+7A0+Q7Vkpz/ACIn+eeyfxjMcbIm5IwABwNAoGtaKaKCj1o3ncdiVluv2xU3pCfaSpKH2lEKSFDBwfaION1X9qWdIaNfdSn59c5UZ9W+edJPiI9II59XzZx/RgWL0Q1Y/wDwRUCfYlP4wTq9a+qtW0WolhigTr8zTZve5JJaT4jbYLhQT7PnFffE8TPJ5cozVV1rXV9JlF5q1QCqdQm6pOuz84rc88orWQO5MSCw9Tb105mZh6za5M016cSG3VMrKSpIPA++Nr8hWrx5/kFUz9TY/GMDQnWBtwKFgVYkHPos5/8AGLJGyVpZIAQeDqELQ4UdQiPrbdt80GnWs5NPzTbtVpKlTKnd3zy93pZ55Ppc/XFfXXFuLU4vuo5MWJ1ntLVW+pC0mJW2qjUVUynKamA1L8svqI3JVjsfRTxAtVodq8SB8nlayfVLGNABooLVUtppLrLqfZq2LMsq4JuTlKtOoDsuwMl1ayEceeSOOIk3URel3U69atacw8+1JPMy6/AcBA2qbSoKA+skxF7V0h1hoty0uss2FW2VyU4zMB0yaiEFKwdx48sZiZ68WHqrfWo89cFPtGq1KUUxLsMTDEqSgpQ0kYBA5wcxyZh4onukYwBztyALNbWea+VlrGtJIGp3QDWoZBBOfMn1xYPpy1j1Ombjt7TGWr83/JtDxL0m2PR8PlSsnvjPJgar0P1fOAdO65k9v+Br/CCBoFpxqjaGqVGqdTsyryEkpxTMy+/JLDaW1JIOVEYH1wmghxAAlaHUbFgGiNiL5HaGNrqzC6XXHSJzdp5KAq8nI4vatXYXr5uOTFIp6PDqs0A6lo7zhxQ5OY7PaPj/ACeSoV3JcjmXf+iWgS7lrdWm9cag7PGffeeprdvqbCllwlTIfKylPmkLIIHBIjqdgtjcqqc3PvTaU+Isnw0hCfqiTWLWZkXTQkuhDiE1CVQEkepxOCIsMdO+jhUsspRqGVAZCRX6YT24/mY1tpaE6IOVClT0trwtmpCZaeaprtBdVhzeFJZU8FbT2CSsDHnEsK0tv+UBuIU/Xedpxpcm/vpcmvxnUEuDKPIg+yKozM+/MNBpRIQklSQBwCe8Xw6wtLNM7v1kfrN3atqtueXT5RAkhRXZv0AjhW9CgOeePLECuj6X9LrEiiWq81dtSm2wUOTUpX6fLNPkHhaGnGStsEY9FRJECQCgBIVaqfU5lptDeUlDW4gEevgx2j6LHw/0zWS7gJzJr4Hl84qObk1ohoRVqnNP0zVaYtWQCkiXk6ix8avqG0blqelUpbGVZwnGQBzHTXpXoklbehVsUOmVhNVlJRhaGZxDSmw+jeohQQrlOQexigglQggaotkj1wwq9XHshbsDOTxDVHz4yO8dFlOKiB2hviD/ADTDQT7ORGM/X90EUT1iXjTO9ceVGqHf/wByuOGKJ99IGPD/AIafwjuXrFg6Z3qO/wDiaof9yuOKVgylJm6m4ipJlFuBCPAbmiPDOVjecEgKUEZ2pJ8ycHGI9mDvUBYdoLK2ul+ocxpnqZamqTMgid+IJ5iZXLkABZbOCn1AlPIPri33VF19af6p6LVbTex5CszM7cwYbmVVCXQ0iTaS6HFYwSXHMpACvtikVyrk5KsLTSky7aFtIVMMML8RhDv6SUnJBA48zgkgHiPE/MllDC5eXaaUtvcVJTyDkjjPbtHsIDrJXOhpok/MOyjTEoNhU2klYKQraSe3PnFqvyaM0691HPoc2YFtTxG1AH84zAe03p2lc5Z087d7kj8PLi/GcfmSh9psD0SyncMknnICiTwRjiC3+TPCB1ITISSU/wAm57bnvjxGe8YxAPju9CEjILiK2/mi6qBR7n+6BjrLVJejoZn5tC3GZeVdeUlHdQTzBLyAfKBB1AuNop/z6SWkyD6lgD6ScHI+6PkP2XpbuqhVHrs0ZfW605bVfBSdp+ba8v8AWjSTXWlo28CG7dr49WWm/eik9S8D46mltMlDBfXsSfJOTgRsJdUooDDbZ+sCMhoCZrV5ba6h9PritW4bwp9GqyZO20NuTKHEI3qC1YG3n1+uIm71m6Ur4FCrpSfW2370DzR+aoTWhGrTE5JLccVLSyjsGBj0gn7nCk/ZFcJQpbdy4jg+uJSEq4zvWDpcpWUUStgf+7b96JM9r9ZMtp2xqT8U1U02Yn104I2oDgcSnOcZxjBiljBYVwGmz9kGuszdDV0cycm3JLM4i5n07wMJDhwrPf8AzOO0NlAVPT1f6YntQa2Sf9Bv3o87nVppmvJTb1aB/ot/jFSZNSEcOJB9hjZpW0pB2sIxjviNUpauNdWvVm2fR6DWKjRamtqvynwyXCAjKUdsKye8RY9WenKuPiCs8dvRb/GIH1EzlGnNNNLE0ynuNOpooBURxgABX3qBP2wDpRxCOCnJ9RiAKq10t1VaePvtsJt+sBTq0oHDeMk/XEk1C19sjTy5HLXrNDqj0yy029vZ2bSlaQodz6jFRKU/LoqUk5MSqVNJmWlLSByQFAkfdBO6wn6ZNawuOUqTWyhNOlS5kfSJRkH7EFI+yCcIiq6r9NlDKberWfaG/wAY2lpdRlkXdclOtmnUKqNTFTfTLtqc2bUlXYnBiocu6kJ+gFZgj6AzUnL60We5OyhdaNRQnaO+4ghJ+xWD9kCERruDqZsiiVmdok1Qqop6ReWwso2bSUnGRz7I1Q6qbGBJFAq3sGEfjAI1iclXNU7lep8splj4xdAQR2IVz/XmIyy6kpA8MGAS1b+wta7b1FraqHSqZPS76Wlv739u3CcccH2xNdWr6plhUdqu1WUemWUJbZ2slO7KlKweYrt0rvSKb8qDExJlbr1LcDC/JCgtJJ+7Igv9UfwVGl025NMl5x1xltkgfQWHFHd+7kQ5ThQF7qZsd0EJt+qjjzKPxjznqQsnGU0KqDBz+h+MVxbyk7VJOfbHpAB/Q9kVRWnrmsVt0G3qLX5ulTqpesha2UJ27kbSAc8+2I0rqMs1R3CjVJPs9DH98aPWSeoM3oxps1TKWtiaTLrC1+vaAF/erBgItn9Ep59sEVhx1D2cshAo9S5OOyPxjeXpqrbtkVNml1KmzzrrsuiaSUBONqxwOT7IrNLhCZhpS0bkpWlSh6xnmC91YTdFn7/pz1Cpzsq38UMFaVe0qKR9iSB9kEW//wAIaylZJpFUGeeAj8Y9dE1wtSuVmTo0rTKgl2deQygrCMBSjjJ59sVuaORjbE20cfp0pqpa0zVpEzUoips+I0kcqyrA/rwYIjHX9cbRt2sTlBnKZUFvSbhaWpsJ2lQ8xkxr/wDCIsxJOymVPB9aUfjAq1vVJr1SuBdNllMsJmdu0j9IJAUftOTEMaVkcoEEVq7G1ftm9K8mh06Rnm3vCW/udCQMJGT2MaqY6lLHU4ttVHqgwSDwjg/fEP6V3KO1qcv44kFzCF058NhP6JGCT+6FD7YD1SLSqlNOSzSm2VvLU2k+SdxwPugisSjqNspscUyp8+W1H4xKba1ptq5aPW6xKyE+lmhsoffSsJBUlRIwnnv6J7xUlJJHCINmh81b8vpfqgxVKa49NLkWFtOJHCU7Xhjv/nlB+yCKVDqXsgggU6qeQJ2J/GPvL9T9kscmnVVRA/zEfjFXfTQcbT9sOClK4CBBFfPSe+KXfzKK9SWH2WEOrZKXgAokAZPB7cwM9QNTqFY1VbptRp8066+34yVNYKQCojzPsjf9LLtOTp5JmWlVomGZyYEys/pq4wR/qkCBD1OOyT1bojUtJqRMtyay+5j6YLh2/cMxOUW2/wAIG1ykJFKngP6Kfxj607XK3qlUZanMUydDk04lpJKU4BUceuK9JUR3iTabzEhLX/b03VJMzMo1UWFPMp/TTvGRFRGu5NYrftiszFDn5GccflsBSkBJScgEY59sasa+WsU4VTZ/6wlP4xBtfXqbNam1B6jyC5ZlDEshxJ5y6GkhavtMDxG/t4cEVk7W1YoF41qXoEhIzbT7oUQtaU4GBnyMaqa1wtaUm35J+QqBXLurbJSlOCUkg+fsiJdOD9OldU5RyrU9Uy2uWfQ2hPG1wo4V/fEFvVyWeu+uTNPllMSrtSmVsNkfQQXVbU/YIIjONe7R2gfF9RyP9BP4xurY1OoV0s1J+RlJxIpcv8KdDgAykeQwe8VlCleYzBp6eZmgStFvlqs0tcw8ulhxpY/RQEuBST9ZKD9kEW2Tr7aJOTIVEn+gn8YenqAtNIAMhUQnucJT+MV9UFpVjaRz2xC9JXo4PPEEVp5LVi35qzpu8USU4JSRfTLrQUJ3lSiACOcecaT/AAiLMUrcKfU8nz2J/GNDbT9vp6Y7jlpimLVUPhyUId8t6nGShXfySFj/AFoCPpA42kQRWPR1HWe33kan9exPH9cSWrawW/SLYpV1Py86qVq6nEspSgb0lJwc8xUvapXogGDjqa9QHen/AE/bp9LWzOBawtwnIUUhQcP2qIMEUoT1J2YBj4FVP3E/jHpR1O2SMD4FVck/q0/jFXcLz2P3R9JTYJplT6FLbS4krT6055EEXQOozrc/p65OICkpmXpZxORyAraRn74rrVtb6BT6jM01ykzpclXlsqUkpwopJGf6osS8mWeshkSEutEo87LLaQTylvCSlP3RRvUNbExfNfmZCTMvLOVKYU03j6Cd5wIgVKKY17tsAf4qn/b9H8Y39o6nUa7XZ5uTkJppUnKqmVlzaQUp7gAHvFaju9UGnpsm6LKOXSKxR1Tivi0uJOcYQkK3p+3KfuiqLYHXy2FEf4rn8d+Ang/fDjr7aw5+K5849ifxgEOhSVHDZAycAjyj54UeMEkwRWZp+p9DqVq1O62pOaRLU1aEuIIG5RUpI45x+lGiTr9a4706oY/op/GNdY03QGuna85Wbo63Z4vJSh/ySpTjGw/ZtX+9AVWVA424+yCI/wD+EFaqBxTagcHzSn8YkMzqtQpK0pO7piTnDKzz6mG20hO8KTnk84xxFXSFK4AJg23hO26/06WjLyNIW1PInFJdePZa0l3xFfaFI/dgqt5/hDWjgYkKkCO3oI/GPojqPtROAafUfpeSE/jFdFbjztxCaT86gqSVJChu+qCitbcusVBtNumOVGUnliqyonGg2EkpQeADk94056krM2jMhVMj1oT+MRXqNmrfmmLKNBpTkoBRitYV5oUv0B38sK++AooKI7GCuytFSupK0JidZkm5Gp+JMOJbTlCcZUcev2xu7s10tOyrhmbeqsnUFzUqE7y0gbDuSFAjJ9sVf0/XT2L5oL1YlVzEkioy5mG091o8QZA+yJx1KOU53V6sKpkmtloNyyFJV/nhlG4/fBEV2+qWwm1bzI1jOc8Np96Jdp11F2Xd90yNt06QqSZqdWUNqebTsScZyefZFJlg5JCSIK3S+aenWGjiosLWXPETLkHGx3YdqohCArsdo2vxNPZUq81ORy5vKRmJG7bnmEO2zUUzU5M7WFVlpTwPiKI2NNuhxS8/oYOTxgx1C0cV/wAQGEjB2uO4jirqHSq8dQrgnJORnARV5pbbjbKuCHlEEED+uBFgKjcqeS1h380rc5Yd0gDuPiKb/wD643lr0Sfmbtt+tqnKJLS7E3LuuqVVpfxOFgnLRXvSeMbNuc+WYCz+oGpMqotP3pcDavNKp95J/wC1HxtNiZVclFmXwvK6iwdygcqy6CVZ8+YzlVBV3erS36jP66rrMoaI40xISaVMzlXl5VSiG+QUrcSscHgj7IAJsy86nMPP0mxK8/LOLUWjI0yZmWCAcfNupSoODj6QJz64kv5QCl1Sc6hJt+UkX3kGkU8b0MqUM+F6wIr8ze2olDYRT2Lsrsiyyna2yicebSgeoJBAEUtBKBxARklrLuWoSr1OepsvTZmTdCXEVOcap76QRuGWX1IUQdw9LGMcR1D6Y2hL6IWxKl5lxTMr4SlNOJcRuSSDhScgjPmDHEebn6zXXXKrWp+anX143TEy4pxascAblZPAjsx0VpKOmiygfKTV/wBtUGtoo42EcQoZ4JHEYJ55xwIbkDzHshpOByeI6rCeVBJPMM3n1Q1WCcnvGNw9avugi8VyUmUuKm1Sg1BKvgtSZelHthwrY4ClWD68GOfdT/JZ3N8PmPijVekmRLijL/CZB0O7M8Be04zjvjiOh7qgX3CefTP98N3Z44jTXuZ/aoudI/JY3z2+Vag//AvfjH2e/Jb3y6hlI1VoI8JGzPwJ7nkn1+2Lm3dZ2odYq03M0S7USUmpTTkuz4ziCD6AUFYBG0bCcDuVnkd401V0w1Imbfq0i5frtScmZuVcYYW+4wgyzb2VsKWn0klbaUAqHchXkqNfUSAbplCqP/6LC+T/APatQf8A4F78YO/Sf0UJ6d7pqF8V68G63V5iTVT5ZEqwpplllakqWo7iSpR2JHkBz64OmllAuS1rOYpN1z/wue+ETDwAeW+mXaW4pTbAcV6SwhJA3H+7ES7I7iIZXuFEpQX1GR55zAs1ppjtWLEimXmnG5iUdZWWWyopCuDg4Izg+cFAK4z6oRV57uf745OGYUtA0bXODqM6M7ckbRlXdE6VdNRqKXCudZm20uKWnA27AltJzuJzzjEV5szpN13qVxSchVtP6zS5Na9zs0/KkIQkc458z2HtIjs9U5VdQkXpJEyplTqdviJ5KefrH98eSm0RMjOzNRem3Zh991RSpajhtBAATjt2SOY8eBwbsFAIHSOkq/ueQXGze4AGnGmy3NJ5XZqA9Kn8j0w6c0Khzdr0lu7VSNwpl2qutbDe5KG1hZKMN4ByCOx4MV66jOj6sSE/JvaM21cVWkA0hC0PMBTod53k4QnCcYx7cx1Z3HyV39seGqSTlQQwlE/MSpZfQ/logb9pztVkfRMcsP8Ap7sM5rjM91AinEEGzdnQajYfCzG/xw+Gr1uzv6vpcjNE+kXUqqXnKfKTadbotCYcBmnBL4cWggghGQee3lFr19NGlaqW1YaWLvFuMzS6lv8ABT4pmSgIAz4eNuB6u8W8olHbo0qEGYcmJhefFeUTlZKirgeQyoxsSs4HOI3icE7EvziV7dKppAHvY6/ylIz45RKda4Ox9rkHrj0k6hSV6zbmmtmV6qUVxZ+CKMvlaGhgJCyABuzny7YiRdOvSRWJusOTes9Br1LpQStssMM4eUsAFCuUq9HOc/VHUOtUeYqTomJerzEqoS7rAQjlJK+yiPWP98R6qZIS9LlUyksVFKeVKUrJUrzPJjtJhzJB4c5GlZgfu932pJ/Uvi+lT2odOmkFdl5em1akXc5J0KX+C0kJG1RQcqJX82cncQPLgRS28ek7WuSuKbboVjVafk925D7cudqs84HA7du3eOzpXnvGhqlvPVCcemBWZltmYWx4jCfohLZyQnngk4/8454bBnDOc7yOddf3G6oVp73PZXR0mZjWUNOeT7PK55dPnSLSU0aZmdaqbcUrMOhtyUlpRghbawTvC/QPkEkc+cFC+unPT286NXKw5Trl/lVMS62aepbRDCdiAhkqHhnjAyfri68s01KMol2RhDY2pGScD6zH1DhPt+2OUv6cZXmTyvFkGg6gK4ArY89rMLvC9z6uxVHUD18rifO9KWvEtUHmJTTutPS6HSlDvwc+mnPfHti2GifS7Z9p2pJ1y9KTcbl4SD6pmVMu0oNJxhTYI2dweFcxd1VqOqdIcrk2thcw2842SclKOQnOe2cf194kMqy1KS7cpLkoaaSG0DJOAOwyeY9GJw31TQ3O5tEH7TRNcH4PIXJzc1an8Ln7qv0q2XXLDnp20aLc6rwm1CZeU8glpSiSpxKR4fc8BPP2xVmm9Juv8xPy8tOad1mVl3XUocdUwcNpJAKjj1DmO1Uyn4Qw6xvUgOIUjcngjIxkRpG7V+eaM5VZiZZbLqlNZKQorwB554APnz7OcsNhvpmludzrJP3G6vgfA4C9EkvlIOUChWgr+FU9srpusqyLZp1SkKRcTt3tyYZm3ChSpdSz9PaNg4wOI8l16TzV/wBNFKqlJrbUs28pwBEmtCipJVgYUnkc57Re8LO0ekTjzhbsD6XP1ww2F+nBGdzrJP3G9+B8DgLzsbkFWT7XH3VjpF1Olq98Jsi1KtU5J4kNASytzTYxgL9EekTntEk6eOkWvTFwuz2tNr3BIUlpKkeBLS6g86opylQO08A8GOptRpLs/ONTjVXnJUshPoNKG1e3f9IH+n/ZEOolKbo0miXS+466pKfGdWo5WoeePLuY6TReeMx2RfINEeiq9uYUqKXL01WvWptikydIuhih0lBbkApglxW8grKjs9Y44EVevfpK1olLgfRQLIqtRlSdwfRLqCSTngZA7DHl3zHZwrwcBX3xHqrbUzPTEy+xXZxgTDSmy1nKEhW0HHPqSfv8vOxReJgZZNCrOpPs9qgUKXOvp06RqUzR5+c1vt25WZp/aZWVk2ilTZGQrf6BzkYI5iWXX00yd0t1CoqpddbqIYMvTw4ydiUoRhrf6Hr74i/0nKsU6XEvLb9gJPpKKiSe5zH3K1d9xGI5R4bxzPmzuOatCbAr/iOL57WWtyuJs6/zRcU6t0oa8SlTmGKdp7WZqXQ4Q28JU4cHrHHY+UWe0b6TrSo1lS9QvqSuVF2S6xMy6JdkhpCgNyEqGzuDweYvSu1HvhK3FV6cWy4+08pkq4ARuISDnjJI+7zjesNNyzLcsyMNNJCUjdnAHtMMVhfqmhudzaIP2mia4Px2EezOBqR6XOPUjpRcrtPqNRoMtWVVedc8ZaHpb0CDkrCfQznsBFcZTpO17enmmHtOK0ywt1KFOGX+gkn6R+ocx2nnGlzUm/Kof8NTzakBYGdpIxnGefviPy1oFsy7c5Wpual2C4otrUfSUoJA5znAAPn5+UemltVDtLpjsqz7Tp8/IU65VXg1KfB5l3w/+D7lDaspGwcYPECDV7o5q7VAac09ptan3mtynmHZX01q42BGEjPnnmOoAWM98mPJVpJyqSSpNucUwStKt6QSeDnHBHf6482Gw30zSMznWSfuN78D4HAWWNyCtT7XHC0+kjXOer8pK1iwavISpXuW+5LnanHPPB74xFx6l0yadU2jLpNnUW6Jb43aQxVFuNbzsSARtBTjO7I+oxbmm238EnW5ycqL02WGW2mgVFO0pySojPOSf/8AeMb4Kz2V3+2EuF8srJczhlvQEgG/+Q5rjpQttwd0uTWsnR5qBLvsTNgW1VqpLpShAaMrh0KIytSsAAJBAA+uNfoj0i6jzV7Sjupli12QoTKkqmgljat1s8KCCQfSHB7euOsNwUV6uNNMt1SZkQjflbHCzlOBg54x9RjNNoiJGemai9NuzEw+6tYUokBCCANoHbskfdHaSPyMLLIsVY0P4Pa0RYpVDe0eo9h7pLT61rhRSjl5wTDCnV+IeONozjAHlGpX0+WddFvTk9d9o3Sq5RLuMySmUKQyg7T4ZKdh/SOTF6gvgEEws9vS59UeN2ADoG4fyPFVrmOY127c3yumHk+nqgDpWuq4qV7pF1zlKtMy1MsCsTss2vDb6ZZQDntHA4zFlNCek616PZ/wnVK2Lodr4cS/KolGVJQ0NgOxXofSC885IxF8GLMmGwpt+45x5tyZbmHEHgYTuO1OScAkg/ZElZbal2G5dnKW2khCU5JwBHfFYb6qPxlzm7atNH9xx2uL2ZxVkelQTUPpas65bGnJmkW/c7V5z+wqddbUWEHPpADZ22jAHripbfSdr6Z9LLmnFaRLl0JLnwc5CM4z93Mdqp9lc3JPyjb/AISnmygOYyUkjvjI/viPytnqZdl0Ttbm5uXYLq/CWSCVKxjnOcAZHt47ecw+G+mDgHOdZJ+43V8DoDgL0SS+Ug5QKFaCv4VTKw+mOxbSsiRnqlQrlevKUaKXXmmlBgndjIGwcbPI+cQXqA6XrQm7Yll6Q065HKilbj883ONKUXjt9FKB4Y53FX2R0r34wB/5x4a3IO1anuSKJ52TUsgh5vO5OD5ciPOz9OySiYSv3JouJGoqq6HA4WInCJjmAXm5OpHrpcW7Z6X9X52uycrVrNq0hKuL9N9yVXtRjkZ4PHHqi56OnzSKjSci3b1JupLk+lMrWlFtRIZKfT2ZRjO4ccdieIuJTrbVJTaJubqj84WW222ErURsKc5Ueee/nnHt8t3vOe/H18R2xGE+oe15e5uW9AaBscjmuOlzy/cH9ft+Vy06jelNnxZKc0RoNfnJdttLb0tNMlTynFEkqGEJwkAD7TED0g6WL/mb1knNQbTrNPo7DiXJlQl1AuNbgFpSdpwrByOPKOuVfpDtbZZabqTsp4KyslAJKxjG3hQ45/uhtLo3wCcmqg/OOzExMOrKVKUfQbOMJx24CRzG4cN4YBBncdKsm3e77XWV/mcXUBfA0H4VLbm6e9MTL/yZtGn3NKUaYPwiaW8ypay6g+jjKOBjGfqismrXStqHJXAt+yreqVXkH3FhkNyqt7bScbd+Ej0jk/dHYIL9pzHjrEg5V5Bci3POyqlLSoPNH004UDxz+I9h7RrD4f6eIRBxdXLjZPs8rm1oa0NXKrp66Ua9OXMia1btquU+jI3omWm5ZSXVAoJQUkpPG7v2g43b022VVAxbtJk7nRRaZlUkSwFLJWMrzuR23duIvRSJNVKpsrTlTj82ZZsNl94guOY/SVjjMe0LOPpH++M/Tf1/PmdtVX9u93Xfz0pl+7Nf/i4u3h0p60U6uus0myqpUpdY8UPsSi9mTn0ew7QaunXpLpTlFnZvWq3rlln3SFSsvLS+1aCCQrdlJPIwQcx0fumgPXJKsy7VZmqcWnC54kvncrjG3v29f/h3jct5bQlPiEkJAJPnjzhicP8AVRGLMW3y00fwUe3O3LdelRWq2jVqdSm6HK0GsFtDqAzmScUfCRtAKlJTgHA8+5gU6o9NYq1Cdcsul1xueWpx59uYl3Fl7gKCUDwxg78857R1EDhxkExneRjCz9WY7htClu1xLoPS5rHO1mUlqtaFTkZRbmHJlUospaHkSNvbOIt2jp10stqiS7tru3hMVacYRK1L4TKKDQQpPzhRhoc7u3si8FIt9+l1idqq65NzKZvOJdZPhtZVn0eT/v6u0borJAys4+uOEuGMz2PzuGU3QNA++wsFtkG9lyc1o6WaoqSYmdNqXWJ3wUpCpZ2VX4illWFK+gBtCcefeIbpV0rahTl5yQvu2qtSqU2tK3nRLKJUjIC0p9E+ltJI47iOyT25xtbSXVp3pKdyVcjI7j2xp7aoL1uSzsq5W52olxQUHJo5WABj6v6hwB9cd3NLgRdLRVJbg6ctLpCXVbtnKuk0qfHizi5iWJWHEHLYT82ODxniK26zdLV7ytcM3YlCqlUkHVlDKPgqvEabCRyv0RyVFUdgy4RwMx4a1IuVelTVNTUH5JUw2W/HYOHG8+YJ/wB/745YeA4eMRlxdXLtSfeyjRlFbrk5089LtVdutM7rBbtZkKK1uQ+yiXWl1wFB2lB2nsoDI9UHS5OnvTyoKFv0WUuSVoUmsPSgLClL3qHzmdyO2e32xeyjyLlJpjVPcnXJpbZUS6vIKiVE85J9frj2b1Z3BX9cZ+l/1H1GZ21Vf273dbX89KZQHZv/AIuMV+dLerMjXnE2/a9Qqsq6PF8ZmVVtSST6P0RyABnjzgu9OHSXS35edmtb6bcMi06j5iWlZcpcS6Fd1ZQfRKe3MdLa/Sna5KNyqKxO08tupd8SVUkKVj9E5B4j1Sba5WUYlVTLjvhNpb8RZypeBjJ9pjWIhOIiMYcW3y00R6KObmFKgd59N9vV5iZFL+PEuU6WXJUkPS+UlCSfDLh2e05x6oqlW+l/WySq0zJyli1acl23NqZlqVVsWPWOO0dsUuf6Rz9caW4LefrsxJTDVfn5L4Gvf4bChsd5B9Idz245x7DHRrMjQ27paXPzRHpEs1FlrntUF3JKV1DviyUvKy+AlOwFIXlsnd4mR37YhupnS5M3dKVGtUkVAVmeKCUPSwDYA4VztznAGOe8dIfEJVnJGfUYcFn/AD/P1xxiwxikfIXk5jsToPgaaBZa3KSb3XEVHTFrqqdSw7prXks+JtLnwNX0c4Kvu5i5GlXS7ZtnWrSbgrFMr7l6yG5zDTQEuV5ITxsBxsPIznOYuzM289MXLL3H8eTyEMICDJ5HgKwFDOO+fSyc57DtG63YzhUMThfqQ0Z3Nog/aauuD2DyOUe3PWpHpRDSiUfk7HZYmGHGnCt0lCklJGfYY5y6p9MGs89XKo7aulFyrL0886iYaqCFNOJUtRylOQRnIjqYFnvnn1mFnGOfszHctulsGlxjn+j7qeqLoce0hru5CAkqKUnPtOD3jeWr0mdRJrVEmKhpRXWpOTmGVKX4QGwJWCVEEg+UdbTRXTXBWfjSYCByZb9Anbt9f+/9cbMqBx6RhlS1z96sdDNUb21Bm6zaOnNy1NC6bKNom5KcQ20HEtgFJbJBJHnFZZ/pF6np0oQ9o/cThSVELU2FEg+s5js5kRqa9R3KwGkN1F2V8IknYCdwPkcEffEya2rmtce5fpI6kRKokXNI7gDbSypeGMEk9u/1R1F6YLZrVmaH2zbVfpz1Pn5GXLb0u+natB3HgiCluSnGBGCrHOcRoNpQm04nAzkQxXfKjjiIRekhqtN3laczY9epElbku+6q45ebZ3vTLRxtDZxx+l5jkg8xlVP1ICnCKzLrT4wKCAlIDXq7Zz3/AN+1JpRTUnAxDdy/XHmp7cyxJNtT0wp94FW5ZIyeTjtjyxHo3H/O/rgiE6tTLiCyfCkjkn+aV70ZGp1xcDwZHn9kr3oUKMWgThqZcIH5mS7/AKpXvRkam3EB+akv4SvehQopROTqXcKiAWpLn9mr3od8pdxZ/Nyff9UfehQolosjUq4cHDUkOf1R96H/ACl3Ec/NyfH7I/jChRbRIak3ER9CT/hH8YwrUq4u2yU/hH8YUKFokrUu4v1cnx+yP4w1WpVw7iPCk/4SvehQoFFj5S7i5HhyfbP5tXvQz5TbiOfmpLuP5tXvQoUAUS+Uu4SR8zJfwle9DVam3CFDDMl2/VK96FChaJh1OuIEHwZL+Er3ob8pdw4z4Ulz+yV70KFC0STqbcQ58GS/hK96Hp1OuL9VJcj9Ur3oUKFonJ1MuHb+Zkv4Svehw1MuIj81Jfwle9ChQtE4amXDn81Jfw1e9CGplxYB8OT4P6pXvQoUVE5Opdw7QfCku/6pXvQ46l3Fz83J8fsj+MKFEtEhqVcRH0JPg4/NH8YR1KuLONknwcfmj70KFAIkdS7iwT4cnwf1R96GL1LuEEgNSXb9UfehQolosfKXcRJBak+B+rV70Y+Uy4inPhSXB/VK96FCi2iadTLh/UyXb9Ur3owrU24gc+DJdv1SvehQollE06nXFtz4Mj2/VK96Pn8ptxA8MyX8JXvQoUAUTk6mXDkfMyXl/NK96HJ1OuIjBaku36pXvQoULRPGplxbR81Jc5/mle9GRqZcWQPCkvP+aPvQoUW0WU6mXEQVeFJZAz+aV70O+Uu4v1cn5/zR96FCiWicNS7hAGGpP+Er3oz8pdxf5knx+yP4woULRZGpVxHgok/4R/GF8pVxK4Lcn2/VH3oUKFlE06mXF+rku4H5o+9DVal3EM4akue/zR96FCi2ix8plxdvDk+P2avehvym3Fx81Jdv1SvehQoWiXymXCefBkuP2SvehqtS7hSSQzJfwle9ChQBRMVqdcWT8zJdv1Svehp1NuIHhqS5x/NK96FCiWUWRqbcQBPgyXb9Ur3ocNTrix+Zke36pXvQoULROTqZcO0fMyXr/NK96HDUy4jj5qS/hK96FChZRORqZcKjy1Jd/wBWr3oQ1MuL6Xhyfft4R96FChaJ3yl3DgENSX8I+9DjqXcWPzcnx+yPvQoUAUSGplxnPoSfH7I+9GflKuJWCUSfI/VH8YUKFosHUq4T3bk/4R96Gq1LuJOcNSXP7I+9ChQsomq1MuIA/NSfH7NXvQ0amXEUg+FJd/1SvehQotosHU24gT8zI8fsle9GDqbcQJIakuP2SvehQoWiYdTriwfmZL+Er3oYdTLiB/NSXP7JXvQoUQIl8ptxJzhmS/hK96PqNTbiII8GS9f5pXvQoUUInJ1MuEpA8GS/hK96MjUy4j3akv4avehQoWiyNS7hJ/NSXAz+bV70Z+U24/RPhyXPH5o+9ChQRPGpVwhIw1J8H9UfejJ1LuLGdkn3x+aP4woUSyiR1LuLJOyT4OPzR/GF8pVwnOW5P+EfehQoqLB1MuI925Lv+qPvQ1WpdwhRAakh/wDtH3oUKJaJfKXcJKvm5Pj9mr3ob8plxbc+FJcfsle9ChQsomK1MuIHPgyX8JXvRgam3FuPzUl/CV70KFEJRMOptwnI8CR7fqle9C+U24f1Ej/CV70KFGgUX//Z;strokeColor=none;points=[[0.1,0.35,0],[0.13,0.35,0],[0.17,0.35,0],[0.2,0.35,0],[0.23,0.35,0],[0.26,0.35,0],[0.1,0.65,0],[0.13,0.65,0],[0.17,0.65,0],[0.2,0.65,0],[0.23,0.65,0],[0.26,0.65,0],[0.3,0.35,0],[0.33,0.35,0],[0.37,0.35,0],[0.4,0.35,0],[0.43,0.35,0],[0.43,0.65,0],[0.4,0.65,0],[0.37,0.65,0],[0.33,0.65,0],[0.3,0.65,0],[0.46,0.35,0],[0.5,0.35,0],[0.53,0.35,0],[0.57,0.35,0],[0.6,0.35,0],[0.5,0.65,0],[0.46,0.65,0],[0.53,0.65,0],[0.57,0.65,0],[0.6,0.65,0],[0.63,0.35,0],[0.63,0.65,0],[0.66,0.65,0],[0.66,0.35,0],[0.7,0.35,0],[0.7,0.65,0],[0.73,0.35,0],[0.73,0.65,0],[0.76,0.35,0],[0.76,0.65,0],[0.79,0.35,0],[0.83,0.35,0],[0.86,0.35,0],[0.86,0.65,0],[0.83,0.65,0],[0.79,0.65,0],[0.9,0.3,0],[0.94,0.31,0],[0.94,0.68,0],[0.9,0.68,0]];labelBackgroundColor=none;rounded=0;html=1;whiteSpace=wrap;metaEdit=1;" vertex="1" parent="olQ4QFfJ9eWp8q7BxKvW-1">
          <mxGeometry x="-1042" y="333" width="390" height="37" as="geometry" />
        </mxCell>
        <mxCell id="olQ4QFfJ9eWp8q7BxKvW-8" value="&lt;div style=&quot;&quot;&gt;&lt;font style=&quot;font-family: Calibri; direction: ltr; letter-spacing: 0px; line-height: 120%; opacity: 1;&quot;&gt;&lt;font style=&quot;font-size: 17px;&quot; color=&quot;#ffffff&quot;&gt;&lt;b&gt;UniFi Switch&lt;/b&gt;&lt;/font&gt;&lt;br&gt;&lt;/font&gt;&lt;/div&gt;" style="text;vsdxID=5;fillColor=none;gradientColor=none;aspect=fixed;strokeColor=none;points=[[0.1,0.35,0],[0.13,0.35,0],[0.17,0.35,0],[0.2,0.35,0],[0.23,0.35,0],[0.26,0.35,0],[0.1,0.65,0],[0.13,0.65,0],[0.17,0.65,0],[0.2,0.65,0],[0.23,0.65,0],[0.26,0.65,0],[0.3,0.35,0],[0.33,0.35,0],[0.37,0.35,0],[0.4,0.35,0],[0.43,0.35,0],[0.43,0.65,0],[0.4,0.65,0],[0.37,0.65,0],[0.33,0.65,0],[0.3,0.65,0],[0.46,0.35,0],[0.5,0.35,0],[0.53,0.35,0],[0.57,0.35,0],[0.6,0.35,0],[0.5,0.65,0],[0.46,0.65,0],[0.53,0.65,0],[0.57,0.65,0],[0.6,0.65,0],[0.63,0.35,0],[0.63,0.65,0],[0.66,0.65,0],[0.66,0.35,0],[0.7,0.35,0],[0.7,0.65,0],[0.73,0.35,0],[0.73,0.65,0],[0.76,0.35,0],[0.76,0.65,0],[0.79,0.35,0],[0.83,0.35,0],[0.86,0.35,0],[0.86,0.65,0],[0.83,0.65,0],[0.79,0.65,0],[0.9,0.3,0],[0.94,0.31,0],[0.94,0.68,0],[0.9,0.68,0]];labelBackgroundColor=none;rounded=0;html=1;whiteSpace=wrap;verticalAlign=top;align=center;;html=1;" vertex="1" parent="olQ4QFfJ9eWp8q7BxKvW-7">
          <mxGeometry y="37" width="390" as="geometry" />
        </mxCell>
        <mxCell id="olQ4QFfJ9eWp8q7BxKvW-18" value="pfsense VM" style="swimlane;whiteSpace=wrap;html=1;strokeColor=#FFFFFF;fontFamily=Helvetica;fontSize=17;fontColor=#FFFFFF;labelBackgroundColor=none;fillColor=#09555B;align=center;verticalAlign=middle;fontStyle=1;gradientColor=none;" vertex="1" parent="olQ4QFfJ9eWp8q7BxKvW-1">
          <mxGeometry x="-1060" y="45" width="326" height="249" as="geometry" />
        </mxCell>
        <mxCell id="olQ4QFfJ9eWp8q7BxKvW-19" value="" style="group" vertex="1" connectable="0" parent="olQ4QFfJ9eWp8q7BxKvW-18">
          <mxGeometry x="28.5" y="37" width="144" height="36" as="geometry" />
        </mxCell>
        <mxCell id="olQ4QFfJ9eWp8q7BxKvW-20" value="" style="aspect=fixed;perimeter=ellipsePerimeter;html=1;align=center;fontSize=12;verticalAlign=top;shadow=0;dashed=0;image;image=img/lib/cumulus/switch_bare_metal_empty.svg;rounded=0;sketch=0;hachureGap=4;fillColor=#F45B69;strokeColor=#028090;fontColor=#E4FDE1;labelBackgroundColor=#114B5F;connectable=0;" vertex="1" parent="olQ4QFfJ9eWp8q7BxKvW-19">
          <mxGeometry width="144" height="36" as="geometry" />
        </mxCell>
        <mxCell id="olQ4QFfJ9eWp8q7BxKvW-21" value="" style="shape=image;imageAspect=0;aspect=fixed;verticalLabelPosition=bottom;verticalAlign=top;rounded=0;labelBackgroundColor=none;sketch=0;hachureGap=4;fontSize=30;fontColor=#1A1A1A;strokeColor=#028090;fillColor=#F45B69;image=https://upload.wikimedia.org/wikipedia/commons/thumb/b/b9/PfSense_logo.png/1200px-PfSense_logo.png;" vertex="1" parent="olQ4QFfJ9eWp8q7BxKvW-19">
          <mxGeometry x="23" y="11.25" width="45.9" height="13.5" as="geometry" />
        </mxCell>
        <mxCell id="olQ4QFfJ9eWp8q7BxKvW-22" value="&lt;font style=&quot;font-size: 16px;&quot;&gt;&lt;b style=&quot;&quot;&gt;&lt;font style=&quot;&quot; color=&quot;#ffffff&quot;&gt;VIF#0 &lt;/font&gt;&lt;font style=&quot;&quot; color=&quot;#ff0000&quot;&gt;XN0&lt;/font&gt;&lt;font style=&quot;&quot; color=&quot;#ffffff&quot;&gt;&amp;nbsp;&lt;/font&gt;&lt;/b&gt;&lt;b style=&quot;&quot;&gt;&lt;font style=&quot;&quot; color=&quot;#ffffff&quot;&gt;WAN&amp;nbsp;&amp;nbsp;&lt;/font&gt;&lt;font style=&quot;&quot; color=&quot;#80ff00&quot;&gt;CGNAT3434&amp;nbsp;&lt;/font&gt;&lt;/b&gt;&lt;/font&gt;" style="text;strokeColor=none;fillColor=none;align=left;verticalAlign=middle;spacingLeft=4;spacingRight=4;overflow=hidden;points=[[0,0.5],[1,0.5]];portConstraint=eastwest;rotatable=0;whiteSpace=wrap;html=1;fontFamily=Helvetica;fontSize=13;fontColor=default;labelBackgroundColor=#09555B;" vertex="1" parent="olQ4QFfJ9eWp8q7BxKvW-18">
          <mxGeometry x="3.5" y="77" width="319" height="30" as="geometry" />
        </mxCell>
        <mxCell id="olQ4QFfJ9eWp8q7BxKvW-23" value="&lt;font style=&quot;font-size: 16px;&quot;&gt;&lt;b style=&quot;&quot;&gt;&lt;font style=&quot;&quot; color=&quot;#ffffff&quot;&gt;VIF#1 &lt;/font&gt;&lt;font style=&quot;&quot; color=&quot;#ff0000&quot;&gt;XN1&lt;/font&gt;&lt;font style=&quot;&quot; color=&quot;#ffffff&quot;&gt;&amp;nbsp;&lt;/font&gt;&lt;/b&gt;&lt;b style=&quot;&quot;&gt;&lt;font style=&quot;&quot; color=&quot;#ffffff&quot;&gt;LAB101&amp;nbsp; &amp;nbsp;&lt;/font&gt;&lt;font style=&quot;&quot; color=&quot;#80ff00&quot;&gt;LAB 101&lt;/font&gt;&lt;/b&gt;&lt;/font&gt;" style="text;strokeColor=none;fillColor=none;align=left;verticalAlign=middle;spacingLeft=4;spacingRight=4;overflow=hidden;points=[[0,0.5],[1,0.5]];portConstraint=eastwest;rotatable=0;whiteSpace=wrap;html=1;fontFamily=Helvetica;fontSize=13;fontColor=default;labelBackgroundColor=#09555B;" vertex="1" parent="olQ4QFfJ9eWp8q7BxKvW-18">
          <mxGeometry x="3.5" y="104" width="234.5" height="30" as="geometry" />
        </mxCell>
        <mxCell id="olQ4QFfJ9eWp8q7BxKvW-24" value="&lt;font style=&quot;font-size: 16px;&quot;&gt;&lt;b style=&quot;&quot;&gt;&lt;font style=&quot;&quot; color=&quot;#ffffff&quot;&gt;VIF#2 &lt;/font&gt;&lt;font style=&quot;&quot; color=&quot;#ff0000&quot;&gt;XN2&amp;nbsp;&lt;/font&gt;&lt;/b&gt;&lt;b style=&quot;&quot;&gt;&lt;font style=&quot;&quot; color=&quot;#ffffff&quot;&gt;LAB102&amp;nbsp; &amp;nbsp;&lt;/font&gt;&lt;font style=&quot;&quot; color=&quot;#80ff00&quot;&gt;LAB 102&lt;/font&gt;&lt;/b&gt;&lt;/font&gt;" style="text;strokeColor=none;fillColor=none;align=left;verticalAlign=middle;spacingLeft=4;spacingRight=4;overflow=hidden;points=[[0,0.5],[1,0.5]];portConstraint=eastwest;rotatable=0;whiteSpace=wrap;html=1;fontFamily=Helvetica;fontSize=13;fontColor=default;labelBackgroundColor=#09555B;" vertex="1" parent="olQ4QFfJ9eWp8q7BxKvW-18">
          <mxGeometry x="3.5" y="131" width="234.5" height="30" as="geometry" />
        </mxCell>
        <mxCell id="olQ4QFfJ9eWp8q7BxKvW-25" value="&lt;font style=&quot;font-size: 16px;&quot;&gt;&lt;b style=&quot;&quot;&gt;&lt;font style=&quot;&quot; color=&quot;#ffffff&quot;&gt;VIF#3 &lt;/font&gt;&lt;font style=&quot;&quot; color=&quot;#ff0000&quot;&gt;XN3&amp;nbsp;&lt;/font&gt;&lt;/b&gt;&lt;b style=&quot;&quot;&gt;&lt;font style=&quot;&quot; color=&quot;#ffffff&quot;&gt;LAB103&amp;nbsp; &amp;nbsp;&lt;/font&gt;&lt;font style=&quot;&quot; color=&quot;#80ff00&quot;&gt;LAB 103&lt;/font&gt;&lt;/b&gt;&lt;/font&gt;" style="text;strokeColor=none;fillColor=none;align=left;verticalAlign=middle;spacingLeft=4;spacingRight=4;overflow=hidden;points=[[0,0.5],[1,0.5]];portConstraint=eastwest;rotatable=0;whiteSpace=wrap;html=1;fontFamily=Helvetica;fontSize=13;fontColor=default;labelBackgroundColor=#09555B;" vertex="1" parent="olQ4QFfJ9eWp8q7BxKvW-18">
          <mxGeometry x="3.5" y="158" width="232.5" height="30" as="geometry" />
        </mxCell>
        <mxCell id="olQ4QFfJ9eWp8q7BxKvW-26" value="&lt;font style=&quot;font-size: 16px;&quot;&gt;&lt;b style=&quot;&quot;&gt;&lt;font style=&quot;&quot; color=&quot;#ffffff&quot;&gt;VIF#4 &lt;/font&gt;&lt;font style=&quot;&quot; color=&quot;#ff0000&quot;&gt;XN4&amp;nbsp;&lt;/font&gt;&lt;/b&gt;&lt;b style=&quot;&quot;&gt;&lt;font style=&quot;&quot; color=&quot;#ffffff&quot;&gt;WANLAB1&amp;nbsp; &amp;nbsp;&lt;/font&gt;&lt;font style=&quot;&quot; color=&quot;#80ff00&quot;&gt;WANLAB1&lt;/font&gt;&lt;/b&gt;&lt;/font&gt;" style="text;strokeColor=none;fillColor=none;align=left;verticalAlign=middle;spacingLeft=4;spacingRight=4;overflow=hidden;points=[[0,0.5],[1,0.5]];portConstraint=eastwest;rotatable=0;whiteSpace=wrap;html=1;fontFamily=Helvetica;fontSize=13;fontColor=default;labelBackgroundColor=#09555B;" vertex="1" parent="olQ4QFfJ9eWp8q7BxKvW-18">
          <mxGeometry x="3.5" y="185" width="319" height="30" as="geometry" />
        </mxCell>
        <mxCell id="olQ4QFfJ9eWp8q7BxKvW-27" value="&lt;font style=&quot;font-size: 16px;&quot;&gt;&lt;b style=&quot;&quot;&gt;&lt;font style=&quot;&quot; color=&quot;#ffffff&quot;&gt;VIF#5 &lt;/font&gt;&lt;font style=&quot;&quot; color=&quot;#ff0000&quot;&gt;XN5&amp;nbsp;&lt;/font&gt;&lt;/b&gt;&lt;b style=&quot;&quot;&gt;&lt;font style=&quot;&quot; color=&quot;#ffffff&quot;&gt;WANLAB2&amp;nbsp; &amp;nbsp;&lt;/font&gt;&lt;font style=&quot;&quot; color=&quot;#80ff00&quot;&gt;WANLAB2&lt;/font&gt;&lt;/b&gt;&lt;/font&gt;" style="text;strokeColor=none;fillColor=none;align=left;verticalAlign=middle;spacingLeft=4;spacingRight=4;overflow=hidden;points=[[0,0.5],[1,0.5]];portConstraint=eastwest;rotatable=0;whiteSpace=wrap;html=1;fontFamily=Helvetica;fontSize=13;fontColor=default;labelBackgroundColor=#09555B;" vertex="1" parent="olQ4QFfJ9eWp8q7BxKvW-18">
          <mxGeometry x="3.5" y="211" width="319" height="30" as="geometry" />
        </mxCell>
        <mxCell id="zN39Jw0_6kporJrmdYC6-4" value="" style="shadow=0;dashed=0;html=1;strokeColor=none;fillColor=#4495D1;labelPosition=center;verticalLabelPosition=bottom;verticalAlign=top;align=center;outlineConnect=0;shape=mxgraph.veeam.vm_windows;fontFamily=Helvetica;fontSize=11;fontColor=default;labelBackgroundColor=default;" vertex="1" parent="olQ4QFfJ9eWp8q7BxKvW-1">
          <mxGeometry x="-629" y="64" width="57.2" height="55.2" as="geometry" />
        </mxCell>
        <mxCell id="zN39Jw0_6kporJrmdYC6-5" value="" style="shadow=0;dashed=0;html=1;strokeColor=none;fillColor=#4495D1;labelPosition=center;verticalLabelPosition=bottom;verticalAlign=top;align=center;outlineConnect=0;shape=mxgraph.veeam.vm_linux;fontFamily=Helvetica;fontSize=11;fontColor=default;labelBackgroundColor=default;" vertex="1" parent="olQ4QFfJ9eWp8q7BxKvW-1">
          <mxGeometry x="-629" y="212" width="57.2" height="55.2" as="geometry" />
        </mxCell>
        <mxCell id="zN39Jw0_6kporJrmdYC6-6" value="" style="shadow=0;dashed=0;html=1;strokeColor=none;fillColor=#4495D1;labelPosition=center;verticalLabelPosition=bottom;verticalAlign=top;align=center;outlineConnect=0;shape=mxgraph.veeam.vm_windows;fontFamily=Helvetica;fontSize=11;fontColor=default;labelBackgroundColor=default;" vertex="1" parent="olQ4QFfJ9eWp8q7BxKvW-1">
          <mxGeometry x="-629" y="136.4" width="57.2" height="55.2" as="geometry" />
        </mxCell>
        <mxCell id="zN39Jw0_6kporJrmdYC6-10" style="edgeStyle=orthogonalEdgeStyle;shape=connector;curved=0;rounded=1;orthogonalLoop=1;jettySize=auto;html=1;strokeColor=#FFFFFF;strokeWidth=3;align=center;verticalAlign=middle;fontFamily=Helvetica;fontSize=11;fontColor=default;labelBackgroundColor=default;endArrow=none;endFill=0;fillColor=#60a917;" edge="1" parent="olQ4QFfJ9eWp8q7BxKvW-1" source="olQ4QFfJ9eWp8q7BxKvW-23" target="zN39Jw0_6kporJrmdYC6-6">
          <mxGeometry relative="1" as="geometry" />
        </mxCell>
        <mxCell id="zN39Jw0_6kporJrmdYC6-11" style="edgeStyle=orthogonalEdgeStyle;shape=connector;curved=0;rounded=1;orthogonalLoop=1;jettySize=auto;html=1;strokeColor=#FFFFFF;strokeWidth=3;align=center;verticalAlign=middle;fontFamily=Helvetica;fontSize=11;fontColor=default;labelBackgroundColor=default;endArrow=none;endFill=0;fillColor=#60a917;" edge="1" parent="olQ4QFfJ9eWp8q7BxKvW-1" source="olQ4QFfJ9eWp8q7BxKvW-23" target="zN39Jw0_6kporJrmdYC6-4">
          <mxGeometry relative="1" as="geometry">
            <Array as="points">
              <mxPoint x="-696" y="164" />
              <mxPoint x="-696" y="92" />
            </Array>
          </mxGeometry>
        </mxCell>
        <mxCell id="zN39Jw0_6kporJrmdYC6-12" style="edgeStyle=orthogonalEdgeStyle;shape=connector;curved=0;rounded=1;orthogonalLoop=1;jettySize=auto;html=1;strokeColor=#FFFFFF;strokeWidth=3;align=center;verticalAlign=middle;fontFamily=Helvetica;fontSize=11;fontColor=default;labelBackgroundColor=default;endArrow=none;endFill=0;fillColor=#60a917;" edge="1" parent="olQ4QFfJ9eWp8q7BxKvW-1" source="olQ4QFfJ9eWp8q7BxKvW-24" target="zN39Jw0_6kporJrmdYC6-5">
          <mxGeometry relative="1" as="geometry">
            <Array as="points">
              <mxPoint x="-693" y="191" />
              <mxPoint x="-693" y="240" />
            </Array>
          </mxGeometry>
        </mxCell>
        <mxCell id="zN39Jw0_6kporJrmdYC6-14" value="" style="shape=image;verticalLabelPosition=bottom;labelBackgroundColor=default;verticalAlign=top;aspect=fixed;imageAspect=0;image=https://cdn.stratuscloud.co.za/wp-content/uploads/2023/05/Netgate-6100-Max-Back-Angled.png;" vertex="1" parent="olQ4QFfJ9eWp8q7BxKvW-1">
          <mxGeometry x="-793" y="399" width="175" height="175" as="geometry" />
        </mxCell>
        <mxCell id="zN39Jw0_6kporJrmdYC6-15" value="" style="shape=image;verticalLabelPosition=bottom;labelBackgroundColor=default;verticalAlign=top;aspect=fixed;imageAspect=0;image=https://cdn.stratuscloud.co.za/wp-content/uploads/2023/05/Netgate-6100-Max-Back-Angled.png;" vertex="1" parent="olQ4QFfJ9eWp8q7BxKvW-1">
          <mxGeometry x="-984.5" y="399" width="175" height="175" as="geometry" />
        </mxCell>
      </root>
    </mxGraphModel>
  </diagram>
  <diagram name="pfsense and firewalls" id="JGic5wWFMRrB4b8Ypk_0">
    <mxGraphModel dx="1510" dy="339" grid="0" gridSize="10" guides="1" tooltips="1" connect="1" arrows="1" fold="1" page="1" pageScale="1" pageWidth="1100" pageHeight="850" math="0" shadow="0">
      <root>
        <mxCell id="CtDVHUoxuWN891I3hY8o-0" />
        <mxCell id="CtDVHUoxuWN891I3hY8o-1" parent="CtDVHUoxuWN891I3hY8o-0" />
        <mxCell id="CtDVHUoxuWN891I3hY8o-2" style="vsdxID=5;fillColor=none;gradientColor=none;image;aspect=fixed;image=data:image/jpg,/9j/4AAQSkZJRgABAQAAAQABAAD/4gHYSUNDX1BST0ZJTEUAAQEAAAHIAAAAAAQwAABtbnRyUkdCIFhZWiAH4AABAAEAAAAAAABhY3NwAAAAAAAAAAAAAAAAAAAAAAAAAAAAAAAAAAAAAQAA9tYAAQAAAADTLQAAAAAAAAAAAAAAAAAAAAAAAAAAAAAAAAAAAAAAAAAAAAAAAAAAAAAAAAAAAAAAAAAAAAlkZXNjAAAA8AAAACRyWFlaAAABFAAAABRnWFlaAAABKAAAABRiWFlaAAABPAAAABR3dHB0AAABUAAAABRyVFJDAAABZAAAAChnVFJDAAABZAAAAChiVFJDAAABZAAAAChjcHJ0AAABjAAAADxtbHVjAAAAAAAAAAEAAAAMZW5VUwAAAAgAAAAcAHMAUgBHAEJYWVogAAAAAAAAb6IAADj1AAADkFhZWiAAAAAAAABimQAAt4UAABjaWFlaIAAAAAAAACSgAAAPhAAAts9YWVogAAAAAAAA9tYAAQAAAADTLXBhcmEAAAAAAAQAAAACZmYAAPKnAAANWQAAE9AAAApbAAAAAAAAAABtbHVjAAAAAAAAAAEAAAAMZW5VUwAAACAAAAAcAEcAbwBvAGcAbABlACAASQBuAGMALgAgADIAMAAxADb/2wBDAAMCAgICAgMCAgIDAwMDBAYEBAQEBAgGBgUGCQgKCgkICQkKDA8MCgsOCwkJDRENDg8QEBEQCgwSExIQEw8QEBD/2wBDAQMDAwQDBAgEBAgQCwkLEBAQEBAQEBAQEBAQEBAQEBAQEBAQEBAQEBAQEBAQEBAQEBAQEBAQEBAQEBAQEBAQEBD/wAARCABEAskDASIAAhEBAxEB/8QAHQAAAQQDAQEAAAAAAAAAAAAABwACBggBBQkEA//EAF8QAAECBQMCAgQJBwYICgYLAAECAwAEBQYRBxIhCDETQSJRYdIUFRcjMnGBkdEJM0JTY5KTFkNyoaKxGCUnUmKC4vAkJjZ1hZWys8HhGVRXc5TCN0ZHVVZldIOE0/H/xAAZAQEBAQEBAQAAAAAAAAAAAAAAAQIDBAX/xAAwEQABBAAGAgEDAwMFAQAAAAABAAIDEQQSITFBURNxYRQigQWR8CMysSQzUqHR8f/aAAwDAQACEQMRAD8AvAqqTu9QM053I+lGBVJwcGZc/ejyOqIcXnHCj/fAxqPU9070eoP0uqa1WhLzco4pp9pdTb3NrScFJxxkH+6Noi38aT3B+EufvGEKnO/+tOfvQHR1X9NH/tzs3/rJEZPVf00pxnXOzh5j/GSO0Wj0iMSanPec05+8YyKnPDj4U5+9AdHVh00Hk652bj/nNES+ydTtPNS5aYnNPr2o1wsyqwh9VPm0PeEo9goDkZ8sjmJRRTMVSfHeac/egRan07qmqlymb0p1Tt6jUMsISJSfpgedS6Ppq34OQfL1QUAM8nMRy8L7pNlpYXVUvJbfUEhxDS3ACT5hAJiEgCyqASaCEpoHXW2krXrpZgA7k0YYA/cjDdJ63lPKlfl6slT6Rktijp3DgHkbc9iD9sbTWjqh0v0ntozl0zbsz8MQQzJsS77bryQoBW0uNgejnJ58oEun35QzQOt3OqnJp1UpztSccdVOTTZcCVEDDYCAVc4AGB/5cop4p2CWJwc08g2P3C3I10RyvFEdom/EHXR3VrhZgI8hRP8AZjC6L1xN7Q5rlZSdx2p3UbGT6vo9zEzc1zs5hUsibFQYdnFbJdpVNmd7qsZwkbOfXAw1t6y9I9NESElc0pWnppbqJkSjUqtlxKRkpWfESMpJB7c8Ryix2FnIbFK1xIsUQbA0JHYB09rLAZGeVgtu1ja+r7W5ZpfW3MlSWNdbHcKT6QTSAcckeSfWCPsMfQ0LrmCs/LXZWP8AmU+7EK0c67NC7unBbNIlKrIzailDAfllOuzjqiTtSGwSTnJ54g1Oa42ay8iSdbqwmVtF1DHxVMKWUA8nAT2zGpcZBA7JLIGmrokDQbn18qNOd4jbq47Dk/jdQddI63Gxsc1wslKsFXNHxhI7n6PlDWaT1tTTYcl9c7JdRkgqRSMjj6kxBtYOujQy0K+aFVpWvzc2yw9LPeBLllUupWApCkuAHdgA+rnziT6P9aOi+pMmafbErVpabZ3YkUyK3XC2kDLhKARjkck5jbp42R+ZzgG1d3pXd7Uj3eO8+lb2toaH1yZyNZ7KH/Q54/sx8nKf1tS6VeLrhYiC3gq3UnAGTgZynzJieI1usx55+Ulma2/MS20vst0h8qayMjdxgcRXDUD8oXoJTrjm6Q7Ra9PpYdZzMNNhtLobydu1XpAbioEH1RmLFQTktieHEUdCDodQdOxt2t5XBgkr7TseD6KKzdL64H0Jcb1osZaFDKVIpBII+sJjJo3XQAQnWOyM4OM0hXf92PXpT1X6W6p0RuoWqxVdzKEmYlmqc4v4IVE7UqKRtycZ49cSOd6gLDkKXOV15VWVT6cHFTUymlPltpKPpknHlnmOb/1DCxvMb5WhwoEFwsE7Ai+eO+FmMGZxZGLI3A1I+SoY9Kdbku3vc1tsBIyUqKqYQNwGSOU+Q5j7Gk9dO0eHq/YqgfP4pV7sBCZ/KH9PkhX5hYta4phQnHXV7thbcWoBG7afLaOB7eYstaHUbp1elvt3PQHKm/TClW6ZTTXfDQUgFaScfo+eI6zYmLDAOmeGgmtSBqdhryeAsOkawW4gKSaXq1uptHqCNXbxotVn1OZk3aZLKYQ03t53g4yd3P1QLqhTOtlmYccY18slmWWtZZ8SkJHog8D6PkMZiQXl1LabW1Zs7dFUarK6WJdWx34rfbbf3AhKAtQAG4ggE8ZivdH/ACjWgVQuCnMTdqV6VaLqmVOPbHGmvEUApxSRyrAycCLFiI5wTE4OANGiDR5GnIXV8b4jTxV9o0Jt7rs/S1ys3H/Mo9yPp8QddASCNcbNPkc0Xy/cidDXPTdVvMXOirzypKabS60pVKmEZSrscqSBz9cadvqX0wlAlFx1GapLiwVpBknZhJTkhJy0knkDPbjMSHExYgF0Lw4A1oQdRxpyuTXteLbRUbVRuuJCktr11skLV2SaMM55x+j7IwxTOt2a3fBtd7Ge28K2UcHHqz6PEQTWLrw0BtCvSrEumr3A+kFLrkmwuWDKkE4QpLyQo/TJyMRt9CetfR/UVlyhUGi1uTnpfARL/A1TD0whKcqcJbHAGfP18RuSVkTS+R1Abk6BUuDRbtFKfiLrlB/+m2y1f9C/7MfNVM63WgvxddLGRsSVKJpH0QO5Po8ROk64WY9MuyUpL12YmmAkvMNUd8uNZ7bhjjOYrRqX1+aFW/dNQoyaHcE+rCkPTDIDIKjtC0lCxuBBbxz6ifVHOLFQznLE8OIo6EHQ6g+jx2t5XBgkr7TseD6KLqKR1vTSfEltcbIWgcEpo+RkdxwmHmg9cQ3FOtdmK8kg0c47f0YZo/1c6Y6o0H4ZalHrTa2OH5RmnLe+D5JCdykjGVYz643FT6r9H6Qh1ycrM8hMuCp4ilTBDQA53Hb5eqNMxEUj3RMeC5tWARYvaxxfFrAe0ktFWFolU/raSDnXOxBghJzSvMnAH0fPyj6JpPXE8hDjOtVjuNuAKChSCQR6wQnGICVa/KKaESNXfp6LWrsy3KzgcS8hSQh/YTt4PISdxVg+uLFWT1J6dXlazFzUJiqfFhaytxFMdLTBAypJUBg7exI44hNiIsOA6V4aCa1NanjXlRz2t1cQFol0frkSkuL1mshIHJJpBAAxz+jHncletlkNlzW+wEpUojKqYRnHcD0e/MbC6+rLRWkUecXUa7MuS5aWyrFOmEpcUpKhsCinAJwRntAAo/5RHQr46lkrtCttJL60kzC0rbQXFjc4Ugc7ccAf1nEdLWrR3FJ66NxxrDYxHq+KFe7DXad1zNYU5rFYaUAgZVSlAf1piXSWv9hT9GZuNuYnkUt9sPNTjlNmEtrQexBKex8ogGo/WTolQbednJ2pzs4UKS6zLNSTzSpjYQSApxG3HYkHyjlFiIpwTE8OANGiDR5Brn4WWva8W0gou3JO6szOn0vSLfvyjSF8Ll2Sqfdl/ElluZ9MoaOfRVzjvAyFu9dvb5crNxnnFFHb9yBPYn5QrQarXRLSrlEqtN8ZpuWbmJsF1EulAO3AQkqJJwOB93MWOqGu9mUiVTO1aamJFleAgzFOmk7yccAeHz3HEH4iKN7Y3vAc66F6mt6HNfCF7QQ0nUqDqo3XJLgGa14sloK4AVRkjP3pjKaX1uqmDKI15shTqRygUgbx2J42+oj7xEV1m609E7cpko5OOVCruBagZWVZcYWlC0keIfGbwRxgY55jx6J9c2it/wB1P0KUp8/SJ6ecLrLs42t8urUQPDQGkKUOBnt5R0c8MBc40AqSALKn3xB1zAH/AC4Wb7CaJ/sxkUHrm/8AbdZn2UX/AGYmdwa22lRHkSTc4J2eWkLbYSw+0VDPPLjafLJ+zEeij65aaVmiTNwSdbm0ycmlanlqpUyoJCBlXKUEHAHrjg7G4ZkQmdIAw7GxRvo7LcLHzn+kM3rX/CHqpHrZQ0XTrzYm0FKSr4pGNx4AJ294+zVG64nUoeRrfZK0LTuCk0bIUD2IO2AdXPygPT/btcmqTI0O4KtLS04l1M0kpQiZ2A7VbSkEA7udwzwIsLp51RacahWuxcNvStX+CobSH0tUt5xEqrbuLZUkYJA9XEdJsRFh255nho7JAH/a5ue1gtxAWrNE64UZcd1ustKQCSTRsBPt+jHnXJ9a7SELVrvYYCzgKVS8AqAyQPRiUXb1BabUq1Jmu1mYqzNFca2LnkU14IAWdowop8zxnBEVolfyjGh7dVlWjZlaKZZa2Uha0FvKlAFZGPIDAA8j7BiRYiKe/E8Oo0aINEbg1z8Ls+N8VZ21euvSO4ofXNuydaLJx7KMc/8AZhjtJ642ElbutVipQONy6QQOfbtiR0HqV05uKks1umO1RdOmElTc4aTM+CrBwcK29s8ZjTax9SOmFiWsuavFVVZYfyZZsyDrZmloAX4aStBHbHcdo5jHYZzxEJW5iSKsXY3Fb2ORwsxgytc5gsN3I1A99fla8yXW0HG2hrhYfiOpBQk0zlWc9ht57H7jH1+JeujKwdYrH7ZT/ilXf92A7Yv5QXQN24JSR+JKxJpdQ3LpmJoeKmXSkH0glKckk+r7MRZZrXSy1fB/hKqlKpnMCXU/SZpHikjICfQ5JBziOkmJihIbI8AnayBdb1fXKxmGYN5O3yoUqm9cbIBf1lsNO7hO6kkZ/sxsrOR1dsXVJJvDVeyp6lNOhU9KSlPKZhbXGQk4BB5HPtiNa79V2k+m0jKLulirTE4h0OsSCZRyXW4g7klzc4nGAR2znmIjpD136K3pdj1ElKXVKfOVBxTrTz7Kn1uOLUkBlAQkn7f9H6oR4mKWLzMeCzewQRXd7LcjXREtkFEb3pSOuq8p1IVeqyr2kOpNDoMihgpmGKjTxMLW7u+kFYOBjjEQVyidc7CS49rtZaEggblUYAc8d9kTms67WDbiUqr9QmZBahlKHadMblDtwAg+qAzq7136GW6wiiTD1Rq3jrIfTJsLYcYUghQCvFR5+z1RYp48QwSQuDmnYg2D6IXNrg4Zm6hTJqg9cbraXE662YtChlKk0UEEfux9BQOuZQwdb7N4/wDyXv8A2Ij2hnWlpLqUgWvbsvUZSZlElEvLPsuPOvpAKlKHhoIAHnnHfiCfW+oHTu3VeFWa2JZ/AyyqSmiv7Qlo47iJ9TF5fBnGerqxdbXW9XymdubJYvpQ92k9bsuEmY12shsKyBvowHl/Rj6Cg9cuM/LdZn/Uv+zAp1X/ACgGhEtVGKG5K1KtyzI8dE1IEtIKyCCkhxAVkc+QH1wXtFuq/TXWej/C6DUUyEyyD4slNNTC3WkA7UqKm2lJ5xxzmNSzRwMMkrg1o3JND91XODRbtF8PiPrnyP8ALXZWPP8AxL/sw74i65dh/wAtllkk8f4l7f2Yk1T6grDoswpVRni5JNKLb0zLNOqLbmQEpKFpSecnnyx7Y014dYegNoUF+sv3dNzDrbalNSopEy2p5YTkIC1ICAe3OcRsODhYKoK1jdK623llpvXWx1uJPpBFJyQM4OQE+viPoaH1zBXGtFlYPbNHPuwGrN/KQ6FG5PA/kzcEkKm/mYnHihxLQJyo7UgEgeocnHmeYsr/AIQWnKKUzXJxdck5GYQHGX5ijPJS4kp3DH1jkeuOcmIiic1kjwC7QAmrPx3+FC9rSAeVDjReudKSVa1WRkefxOe3t9GPmzTOuCZTlnWuxHUggFTdJJHr7hMavUnru0MsekPOqmavPzRSgpk0yDjC3G1nbvCljGBEF0W68tB6nXBalLotwUz4xWlQcmEiYK3uEoQlKBnKiY2XBozE6Kl1alFD4k66fPWSyPbmkq92GmkddLaAtWslijAyoqpKsDH+rE3rGvmndvI/x7N1ORUpG9KXaY8VKTnBICQc4MBrVnr60FtiSXRHU1etGaK5abYZl3JZxkbQeSvB5B8oxBiIsTGJYXhzTsQbB9EaKNe14zNohS4U3rmcaC2tYrDcz5ilKI+/bBB0pTr/AEx2eOsd7UGstqSj4GKXKKYU2rJ3FZIAI7YgOaGdbuj2pcwbTt+m1mRmWtxlZZxgvrf5UtZGzsByeYJ9b6h9MrecXLViqTstMpxlg0yYUvkAjhKT3BHnGfqoRN9PnGery2Lra63q+dlM7S7JYvrlRy6aV1lmuT85b+tdoyNHcmFmUamaQCtpok7EKUUnJx55jXooXXSpKVjXKzClQyCKKD/8kDjVn8oJoHTp9mgLkazW2WimZD8olUv4TySRtKVjJI9oI5gj6IdW+mmrtF8O15apMPyCQhcm5LrdcbZThKXFKSNvJ+3jtGpsRFhozLM8NaNyTQH5KOeGDM7QL6igdcu041ws0q9XxL/sxhykdbzG3xtdbKbK1YSFUYDJ9mU8xJa11J6XW+p1FUry2VsJUp1PwCZJQE5CirDfGMGK93/+UK0CNyfBJijVqomlOYlpyVcLbboO1WQlQ9g7gKGOCI214eA5psFW7FhGQ0HrkH0tbrMP/Qn+zGRQeuTjGttmH15onf8AsxsdO+qOwNTKA3cFvmaUggfCWxJTDnwZZG7YtSGynOMHgniPrXOqnSG3kurqd1MNhkArPwSb2pJ7Aq8LEYZPHI90bXAubuAdR7HH5QPDiQKsLTGk9b6XRLua5WOlxf0Umj4UfqG32H7o+iqD1y4ATrZZY4/+5Tz/AGYCbv5SPREXWaqq0K2udTiVDnjZbKUlQCgkjj6aufbFnbd1yse6rcaumi16TekX0koV4E2MkcEZLOODxnOISzxQAGVwbZoWasngfPwhcG70FD1UHrkByNa7MPHY0c9/3YaKH10gH/LTZP8A1Mfdgx29cEvcNIFYlgPDUVgEE4VjzGQD94ivNR68bAp1Rmqcu2KmTKPuMLUX2UglJIJwVZ8o6XXKupOykSqV1xpWGflssXxD+gaQcn6htjKqL10HP+WWyPLA+KDj/swH6z+US0QpVyIq87aFyCfSkHKFoUggJKRxux2J7Y8okNO/KQ6VVKcp8qi1q4n4xdQy0ohvAK1BIyN3thfyr+FPVUbrr7J1kscnI5+KVdv3Ya5TeuZkjfrPYaUngb6URn70w/Urq4tTTS637Uqtuzz70u026p1t5tKSFpyBhRB84Fd2/lDNHUeCzXLZrWG1L2hpSCDlODkjPkYZuLUo9IpqpXXYFejq9YmPM/FKvdg0WTNX9KWxIy9+1yVqFeSg/C5iRbLTC1ZONqTyBjEVPa/KYaTPSqZz+TlXDbhKQcDOR7IsxpnqDStUrHpd9URpxqSqrRdZS6MKABI5H2RQbRTQ1SeI4mnP3jCNUnfOZc/ejxk5znsIwTwYqi9Zqs73+EuY/pGMfGk3/wCtOfvmPGVZIyOPqjG72D+uCKKavzUxKabXnMyrqmnmqNPqQ4kkKSQyvBB9ccRrItqlXM7VTV6tNyaJCRM02JaTMy7MPF1CA2E5GB6ZUVE8bfaI7aay5+TC9sHk0Wof9yuOF9OqlSpLpmaXPvyjyk7CtlwoUUnyJB7cDiPXhRusu20W2va36bbVbTIUmqP1CUdlWZlDz8qZdwFacqQpsk4KVZGc4OM+caqcwlMtnzYSf6zG0lGq3XqrJsMS81Wq9VnENSzZBfcWonahKUnJUongAwV9XulXqN0RtSTvTVCxUtUKaUhlx1t9qYEq4vlLb3hkllRJIHlnjOeI9n2tGUnVcrJOijmmHT7dWqVAnLhps7IyMu2X25Rcy8kJfeYbDrqCASpOGzkEjBPEGn8mHOTbPUPPyLMy4mXmrbmy82FEJWUOs7SR2OMnH1mKtfGtWpDBl6TWJ1iSmgXA22+pI54IIHBPGPbFnfyZJx1HzHf/AJNT3/eMxzxFZKrYfvr/AOKx3ZN7/wDS6t7vbiBZrtkW9OhskO/Fz6mdv0g4EqKce3OIJ+T5wLddkzC6DMGU3+OJF8tbU7iVhKikAeZziPkvALaK9DTRtcZ9QtUb81Am25K965Mz/wAXuLSyHzy2PMfbEakpx2Qm2pqTXscZWFoWOCCOQYllS0a1hmqhMTrmnVwFTrilkmnuAHJ79o+A0Z1gTj/J7Xh//CX+EcooYoIxFE0NaOAAB+wWpHvlcXyEknk6o7Wdqtq7dOl13XrPXLUpyetr4P8AF0xkksKwSojHnsSSfYIrve2ot3amVZus3pWHahNtNhlLjquQgdhBz0wtzVehaN3/AGy7bVTlXqoGTLSrskfEfUQptWwEZPoqUOIDo0N1gCsjTuuj65NY/wDCOUWDw0Dg6KNrSBQoAUCbIFDQXr7UaTHH4maN6G37bLUWxcVUtGsylwUCdVJz8i4HZd9vhTax2IPriyFQ1q1pktE6dqqi6Kl8bzFSek/h6sKCpcHbt7YCdwI+sQChonrGCANPa3n/APSKgtz1q6tTfTbTbB/k3UlTMtV3lGn/AAP55DRUV7jxnaVKPMamweHxBuaNrjVagHTrXj4UZcbxKzRw2I3H5QBuS66zelfmrkuScVN1GdXvfeX3Wr1n2xubH1Fu3TupqrFnVh6mzq2iyp1nglB7j7Y+ydDtX0DcNPq0MeuWMO+RnWBIP/EKs+o4lzG3QxPj8LmgtqqrSuq2pZePJefW90adUdYtaLGoNs1+SuWqSU1cVOQ7UHlHl9ZQCkknz2qGPYYrS9OOzsy7OzDm995ZcWo85UTkxYXWC0NW74tCyaaxbdSn3KXTUNzTTcsNzDiUJQEqwODtQBj2QK0aE6xpGRp9Vxn1sRmLDQwEujYATV0ALrQbdDQdLZc8tDCdBsOB6Xo011Q1Aseb+LLLuGcpyao+0h9EuopLp3YA/r4+uCP1B6papWdctQsFm4J6Wo9QlEKelFfRd8ROHPaQVA59oMD2laO6z06qSc6mxqu2ZaYbeCvAzt2qBzj2Yz9kT7qGsDVW/wDUJytyFs1GqSyJRlpEw0yNhIBUocY/SUqMyYPDSuL3xtJJB1A3Gx9jjpI3OhJfGaJ0NaWPlAFt0YG0jj2QaNBtTdSU3FQ9OKJcU8mizc2ouyDKsIWggqcyB5YGTEKToVrAgA/yBqoz2+aH4xM9INM9X7O1KoFxzFpVKRl5SZ+emHGQUNtqSUqJ9mCY6ywxzCpGhwBvUXqNj7XMsDtHC1r9YdYNUJqerGmdduGdXRJSbLaJB3hKEoVlAx348oEyXCV5SMJxzxBa1H0i1fue+K1cCLMqk03OTbjiH0sgJWnPBH2RHhoRrEkYFiVMf6g/GJFDHACImhtmzQA1POnK6vkfKbeSfaLegmqept5VMWrVriqE7RKTT9yZZSvm2UpKUoz9WcCCR1MVKtUezzWqG862/LIl962/0WypQOfYScQKtA7C1Lse6p2Zr9uTtOkJyRUw4482NqlBSVJTn15EFjqMol0XJZaqNakm7OTE0hgOsNAFS20rUo9/UQO0SKCLDjLE0NBN6ADU7nRcmsawU0UqU1auT9eqLtTqjynpl45Ws91H1mNzZV/XRp7V/jy0Kw9TZ0tlovNYCth7jn1xtPkG1bT6RsieHnyUfjDvkN1cJ2iy53P1o/GNyRsmaY5AC07g6g+wjmhwpwsItXvq/rRaVk2zd8rclTlJyvtqM5Nk8v8AAUjJ+o5GPKK5z9Rfqk6/UJ18uzMy4p11auSpSjkk/bB4v2z9VLq05tG2G6LOTcxSEKTMS4CAWClISgHkfowNhoTqyPS/kTPf2PxjnFhoYHF0TA0mgaAGg0A06G3S6Z3Fgjv7RsOB6Cbp9q1qBpyiZkrKuKbpyaipPjpYOPEI4H98TvXy5r1te4mKS+uYlmp2nIW626PziiVJWT6+U4P1RC2tEtXWXm3k2XPgtqCgRs7jn1xPtdLR1O1EueSqspRZ2qNsSCGS6hCQEr3KUtPGOdyjGmwRRyOlY0BztyBqa2s80uQY1pLgNSgH4xUf74L2jerWp0nPUjTe3bgnUUmdnAhciyeHAo5WPXyM5iK/Ilqok/8AIqofup/GJHp5ptqtat8US4Ta8/JokZtDi5hTadraM4UTz2wTCaCLEANlaHAGxYB1Gx15HaOY1/8AcLXj1fu26Ja661bU6+tEqHshlYI2gjcD/a7+2BoFndkHiC/qZpfqpd171Wvy1qT84xNOgtPobTtW2EgJI57YAiNJ0K1aBwLFqX17B+MdVpFHQnVXVG8KnKWA/XZ+doshJL2SQ5QhKQEoGPrIA9pgNXZe9y1xa6TW5tbiJR5aUpWDuQQcEeztz9UFrQeyNUdPb7FZn7dnabLOyrjK33WhsKuFIHP+kBA9n9FtW5yempx2x6opbjqnFKLONxUScgRyigigBETQ0E3oK1POnKy1jWaNFKCy8wuVmG5hpe1bSgtJB7EHIiydmau6ualWZd1QuCvVGqpoUk2uUWeUsOYUokY89refqEB8aHasEEiw6rgfsYKOllnasWfZV7USZtuoyRrUmhEsy5LgqmHNriCE55J2rP3wfBFI9sjmgubdEgWL3o8XzSFrSQSNQgdc14Vy7Xmn63NrfWwjw0KJJITnOIba911qzK/KXJbU85Jz8ivxGXk90K9YiSJ0K1eVyNPazjOOZYxn5CdYNuRp7WSPZLExt7WyNLXiwd1SARRVrdAL+vbUSms3RfNTmZ+bdmHm2Zh4Yy2kDhOPIEmBJrXqbqLY8yzRbfrs9IUeryjniNNqw28dykr/AKsAwSem2kXXblsytDuqlzVPelZp8sMTLRbUEKAOfbzmBXrbZGoF71enC3qLM1CQkGVoQpGzCFqWSoZJB9UcfpMP4xDkGQbChQrahsF0ic6D/aOX1p/hV9UtSlEk5yYKOkOrOplCmpGwrTuCelpCqTqEOSksfzylkJP3jiNUnQrVU8fyOm/r3I/GNpaGk+rVt3XSa+i1J6X+ATbT/jegfDCVAk9/VG5oIsQ3JM0OHRAP+VycxrxThYW8101R1OlapP6dVOtz7dDU0w43IOn0NikJUlQHqyciAlvXuBJMGvVfTrVO+r2mK/KW7OVCWWwwzLzCQkJLbbaUAd/LGIiI0I1ZUMiy5370fjFihjhBEbQLNmhVns/Pyur5HyUXkmu0Q9B9ZNWapUabppJV+ccoEuy4v4A0kbUoT6X1gZwe8QbV3VfUe8qnNWze1enJxmjz77bLEwSSwpKigj68DB+qJRpDp/qfYF7y9fqFvTlNlQy4y9MLCCkJUOx5OMnERq6NJtWa7ctWrb9oT7y5+dfmluhCQFlayrcOfPOY5MwWGjf5GRtDrJsAXZ3N9nk7lZYTG0tZoDvXPvtDhiYdl30PtKwttQUk+0RZnTHWjWXUKn1tdTuGo1BNAp/iSJSn8w/tVtIx57UK7+owGhonqmf/AKlVH9wfjBJ0dtjVCx5K5ZWYoc/TvjSS2S6XGh88+AsJSM+eFq49salw0M7mvkYHFt0SASL3rq+a3WcozBxGo2PSE9+6m3nqTOMTt41p+ovyyPCacdOSlPq+qNLQK/VbYrErXqNNrlp2TcDrLqDgoWOxHtiW/IVq4olf8hKnyfNsD/xhHQnVwjixKmcepsfjG2Qxxs8TGgN2oDT9tlt7nSkuebJ3tFpnVHVW7dHK3fdZrFRn5yRmW0NzjhJ8NsLQFY9QyvB+sRXq4biqlz1Jyq1Z8vTLvK1nuo+s+2DvQrV1Tpeh9esM2/UG5uemQW5EsDxHGSttSyPPGWx90DD5DNWyNyrBq+O/5gxY42QtDIwABsBoP2WQ0NFNC0tkX5c+nlaTcFp1R6nz6EKbS+0cKCVdx9sHPUDUjUkaVWrfM/UZ5c/VH3fhE67u+dByUDP1J4+qBKvQ7VtI40/rJ8+JcmClelr6qV7Ri0rKbtiqTMzSnVKmJNEofEYSkKDZUAMjhR794nhj8nlyjNVXWtdXvSgaAc1aqvk5Ouz0y7NTP03VFRx2yYl2m2r2oOl78z/IWuv012fCW3S0ASsA8Dn2w86H6uj6WntbH1yioy1orq9LzDbzentd3NqCkkSSzyD9USaGPEMMUzQ5p3BFg/go5geMrhYV0piaqM3py4/UluqnnnZVUwXOFlw7SrdnzJJilupd0XRMVyq21V5h7wpKfdQGHP5spUQB9wAi5k0/PnTsvVFK0TanZVUwCnaQ56JUCPLB8oqldmj2rdw3RVa7/Jx2Z+Hzjsx4vjsjeFKJCsbuMiNtAaKC0eghQlxba0uD6STmLIaQapas6gy1SolSrVQqtPpNNKZaX7paVtKUY9uAQIGK9BNWtm42i8QfU8170T/Rm0NT9Ppyrrm6TMU0T0p4bJUpshx8Z2DufWYxJBFK5rntBLdQSAa9dLJY0kEjZBW4rorNxuINXmC8tkbEqI5A9WfVHhpNWnqHUperU2YWzNSrgdacTwUKHII9oibq0G1dWtSjZ0zyo/zjfJ/ej5u6D6toPpWXNk+xTZ/+aOhAIoq1YRRoOo2qV16UXTelVq9RqExT/DQ1NuKKvCQlbe/B9XpjP1wBLgr9TuWfXU6rMF6ZcxvcPdR9Zg5WnaOqFE0juayF0WcYm6qQWJMhGXUFbZcxz6mx+7A0+Q7Vkpz/ACIn+eeyfxjMcbIm5IwABwNAoGtaKaKCj1o3ncdiVluv2xU3pCfaSpKH2lEKSFDBwfaION1X9qWdIaNfdSn59c5UZ9W+edJPiI9II59XzZx/RgWL0Q1Y/wDwRUCfYlP4wTq9a+qtW0WolhigTr8zTZve5JJaT4jbYLhQT7PnFffE8TPJ5cozVV1rXV9JlF5q1QCqdQm6pOuz84rc88orWQO5MSCw9Tb105mZh6za5M016cSG3VMrKSpIPA++Nr8hWrx5/kFUz9TY/GMDQnWBtwKFgVYkHPos5/8AGLJGyVpZIAQeDqELQ4UdQiPrbdt80GnWs5NPzTbtVpKlTKnd3zy93pZ55Ppc/XFfXXFuLU4vuo5MWJ1ntLVW+pC0mJW2qjUVUynKamA1L8svqI3JVjsfRTxAtVodq8SB8nlayfVLGNABooLVUtppLrLqfZq2LMsq4JuTlKtOoDsuwMl1ayEceeSOOIk3URel3U69atacw8+1JPMy6/AcBA2qbSoKA+skxF7V0h1hoty0uss2FW2VyU4zMB0yaiEFKwdx48sZiZ68WHqrfWo89cFPtGq1KUUxLsMTDEqSgpQ0kYBA5wcxyZh4onukYwBztyALNbWea+VlrGtJIGp3QDWoZBBOfMn1xYPpy1j1Ombjt7TGWr83/JtDxL0m2PR8PlSsnvjPJgar0P1fOAdO65k9v+Br/CCBoFpxqjaGqVGqdTsyryEkpxTMy+/JLDaW1JIOVEYH1wmghxAAlaHUbFgGiNiL5HaGNrqzC6XXHSJzdp5KAq8nI4vatXYXr5uOTFIp6PDqs0A6lo7zhxQ5OY7PaPj/ACeSoV3JcjmXf+iWgS7lrdWm9cag7PGffeeprdvqbCllwlTIfKylPmkLIIHBIjqdgtjcqqc3PvTaU+Isnw0hCfqiTWLWZkXTQkuhDiE1CVQEkepxOCIsMdO+jhUsspRqGVAZCRX6YT24/mY1tpaE6IOVClT0trwtmpCZaeaprtBdVhzeFJZU8FbT2CSsDHnEsK0tv+UBuIU/Xedpxpcm/vpcmvxnUEuDKPIg+yKozM+/MNBpRIQklSQBwCe8Xw6wtLNM7v1kfrN3atqtueXT5RAkhRXZv0AjhW9CgOeePLECuj6X9LrEiiWq81dtSm2wUOTUpX6fLNPkHhaGnGStsEY9FRJECQCgBIVaqfU5lptDeUlDW4gEevgx2j6LHw/0zWS7gJzJr4Hl84qObk1ohoRVqnNP0zVaYtWQCkiXk6ix8avqG0blqelUpbGVZwnGQBzHTXpXoklbehVsUOmVhNVlJRhaGZxDSmw+jeohQQrlOQexigglQggaotkj1wwq9XHshbsDOTxDVHz4yO8dFlOKiB2hviD/ADTDQT7ORGM/X90EUT1iXjTO9ceVGqHf/wByuOGKJ99IGPD/AIafwjuXrFg6Z3qO/wDiaof9yuOKVgylJm6m4ipJlFuBCPAbmiPDOVjecEgKUEZ2pJ8ycHGI9mDvUBYdoLK2ul+ocxpnqZamqTMgid+IJ5iZXLkABZbOCn1AlPIPri33VF19af6p6LVbTex5CszM7cwYbmVVCXQ0iTaS6HFYwSXHMpACvtikVyrk5KsLTSky7aFtIVMMML8RhDv6SUnJBA48zgkgHiPE/MllDC5eXaaUtvcVJTyDkjjPbtHsIDrJXOhpok/MOyjTEoNhU2klYKQraSe3PnFqvyaM0691HPoc2YFtTxG1AH84zAe03p2lc5Z087d7kj8PLi/GcfmSh9psD0SyncMknnICiTwRjiC3+TPCB1ITISSU/wAm57bnvjxGe8YxAPju9CEjILiK2/mi6qBR7n+6BjrLVJejoZn5tC3GZeVdeUlHdQTzBLyAfKBB1AuNop/z6SWkyD6lgD6ScHI+6PkP2XpbuqhVHrs0ZfW605bVfBSdp+ba8v8AWjSTXWlo28CG7dr49WWm/eik9S8D46mltMlDBfXsSfJOTgRsJdUooDDbZ+sCMhoCZrV5ba6h9PritW4bwp9GqyZO20NuTKHEI3qC1YG3n1+uIm71m6Ur4FCrpSfW2370DzR+aoTWhGrTE5JLccVLSyjsGBj0gn7nCk/ZFcJQpbdy4jg+uJSEq4zvWDpcpWUUStgf+7b96JM9r9ZMtp2xqT8U1U02Yn104I2oDgcSnOcZxjBiljBYVwGmz9kGuszdDV0cycm3JLM4i5n07wMJDhwrPf8AzOO0NlAVPT1f6YntQa2Sf9Bv3o87nVppmvJTb1aB/ot/jFSZNSEcOJB9hjZpW0pB2sIxjviNUpauNdWvVm2fR6DWKjRamtqvynwyXCAjKUdsKye8RY9WenKuPiCs8dvRb/GIH1EzlGnNNNLE0ynuNOpooBURxgABX3qBP2wDpRxCOCnJ9RiAKq10t1VaePvtsJt+sBTq0oHDeMk/XEk1C19sjTy5HLXrNDqj0yy029vZ2bSlaQodz6jFRKU/LoqUk5MSqVNJmWlLSByQFAkfdBO6wn6ZNawuOUqTWyhNOlS5kfSJRkH7EFI+yCcIiq6r9NlDKberWfaG/wAY2lpdRlkXdclOtmnUKqNTFTfTLtqc2bUlXYnBiocu6kJ+gFZgj6AzUnL60We5OyhdaNRQnaO+4ghJ+xWD9kCERruDqZsiiVmdok1Qqop6ReWwso2bSUnGRz7I1Q6qbGBJFAq3sGEfjAI1iclXNU7lep8splj4xdAQR2IVz/XmIyy6kpA8MGAS1b+wta7b1FraqHSqZPS76Wlv739u3CcccH2xNdWr6plhUdqu1WUemWUJbZ2slO7KlKweYrt0rvSKb8qDExJlbr1LcDC/JCgtJJ+7Igv9UfwVGl025NMl5x1xltkgfQWHFHd+7kQ5ThQF7qZsd0EJt+qjjzKPxjznqQsnGU0KqDBz+h+MVxbyk7VJOfbHpAB/Q9kVRWnrmsVt0G3qLX5ulTqpesha2UJ27kbSAc8+2I0rqMs1R3CjVJPs9DH98aPWSeoM3oxps1TKWtiaTLrC1+vaAF/erBgItn9Ep59sEVhx1D2cshAo9S5OOyPxjeXpqrbtkVNml1KmzzrrsuiaSUBONqxwOT7IrNLhCZhpS0bkpWlSh6xnmC91YTdFn7/pz1Cpzsq38UMFaVe0qKR9iSB9kEW//wAIaylZJpFUGeeAj8Y9dE1wtSuVmTo0rTKgl2deQygrCMBSjjJ59sVuaORjbE20cfp0pqpa0zVpEzUoips+I0kcqyrA/rwYIjHX9cbRt2sTlBnKZUFvSbhaWpsJ2lQ8xkxr/wDCIsxJOymVPB9aUfjAq1vVJr1SuBdNllMsJmdu0j9IJAUftOTEMaVkcoEEVq7G1ftm9K8mh06Rnm3vCW/udCQMJGT2MaqY6lLHU4ttVHqgwSDwjg/fEP6V3KO1qcv44kFzCF058NhP6JGCT+6FD7YD1SLSqlNOSzSm2VvLU2k+SdxwPugisSjqNspscUyp8+W1H4xKba1ptq5aPW6xKyE+lmhsoffSsJBUlRIwnnv6J7xUlJJHCINmh81b8vpfqgxVKa49NLkWFtOJHCU7Xhjv/nlB+yCKVDqXsgggU6qeQJ2J/GPvL9T9kscmnVVRA/zEfjFXfTQcbT9sOClK4CBBFfPSe+KXfzKK9SWH2WEOrZKXgAokAZPB7cwM9QNTqFY1VbptRp8066+34yVNYKQCojzPsjf9LLtOTp5JmWlVomGZyYEys/pq4wR/qkCBD1OOyT1bojUtJqRMtyay+5j6YLh2/cMxOUW2/wAIG1ykJFKngP6Kfxj607XK3qlUZanMUydDk04lpJKU4BUceuK9JUR3iTabzEhLX/b03VJMzMo1UWFPMp/TTvGRFRGu5NYrftiszFDn5GccflsBSkBJScgEY59sasa+WsU4VTZ/6wlP4xBtfXqbNam1B6jyC5ZlDEshxJ5y6GkhavtMDxG/t4cEVk7W1YoF41qXoEhIzbT7oUQtaU4GBnyMaqa1wtaUm35J+QqBXLurbJSlOCUkg+fsiJdOD9OldU5RyrU9Uy2uWfQ2hPG1wo4V/fEFvVyWeu+uTNPllMSrtSmVsNkfQQXVbU/YIIjONe7R2gfF9RyP9BP4xurY1OoV0s1J+RlJxIpcv8KdDgAykeQwe8VlCleYzBp6eZmgStFvlqs0tcw8ulhxpY/RQEuBST9ZKD9kEW2Tr7aJOTIVEn+gn8YenqAtNIAMhUQnucJT+MV9UFpVjaRz2xC9JXo4PPEEVp5LVi35qzpu8USU4JSRfTLrQUJ3lSiACOcecaT/AAiLMUrcKfU8nz2J/GNDbT9vp6Y7jlpimLVUPhyUId8t6nGShXfySFj/AFoCPpA42kQRWPR1HWe33kan9exPH9cSWrawW/SLYpV1Py86qVq6nEspSgb0lJwc8xUvapXogGDjqa9QHen/AE/bp9LWzOBawtwnIUUhQcP2qIMEUoT1J2YBj4FVP3E/jHpR1O2SMD4FVck/q0/jFXcLz2P3R9JTYJplT6FLbS4krT6055EEXQOozrc/p65OICkpmXpZxORyAraRn74rrVtb6BT6jM01ykzpclXlsqUkpwopJGf6osS8mWeshkSEutEo87LLaQTylvCSlP3RRvUNbExfNfmZCTMvLOVKYU03j6Cd5wIgVKKY17tsAf4qn/b9H8Y39o6nUa7XZ5uTkJppUnKqmVlzaQUp7gAHvFaju9UGnpsm6LKOXSKxR1Tivi0uJOcYQkK3p+3KfuiqLYHXy2FEf4rn8d+Ang/fDjr7aw5+K5849ifxgEOhSVHDZAycAjyj54UeMEkwRWZp+p9DqVq1O62pOaRLU1aEuIIG5RUpI45x+lGiTr9a4706oY/op/GNdY03QGuna85Wbo63Z4vJSh/ySpTjGw/ZtX+9AVWVA424+yCI/wD+EFaqBxTagcHzSn8YkMzqtQpK0pO7piTnDKzz6mG20hO8KTnk84xxFXSFK4AJg23hO26/06WjLyNIW1PInFJdePZa0l3xFfaFI/dgqt5/hDWjgYkKkCO3oI/GPojqPtROAafUfpeSE/jFdFbjztxCaT86gqSVJChu+qCitbcusVBtNumOVGUnliqyonGg2EkpQeADk94056krM2jMhVMj1oT+MRXqNmrfmmLKNBpTkoBRitYV5oUv0B38sK++AooKI7GCuytFSupK0JidZkm5Gp+JMOJbTlCcZUcev2xu7s10tOyrhmbeqsnUFzUqE7y0gbDuSFAjJ9sVf0/XT2L5oL1YlVzEkioy5mG091o8QZA+yJx1KOU53V6sKpkmtloNyyFJV/nhlG4/fBEV2+qWwm1bzI1jOc8Np96Jdp11F2Xd90yNt06QqSZqdWUNqebTsScZyefZFJlg5JCSIK3S+aenWGjiosLWXPETLkHGx3YdqohCArsdo2vxNPZUq81ORy5vKRmJG7bnmEO2zUUzU5M7WFVlpTwPiKI2NNuhxS8/oYOTxgx1C0cV/wAQGEjB2uO4jirqHSq8dQrgnJORnARV5pbbjbKuCHlEEED+uBFgKjcqeS1h380rc5Yd0gDuPiKb/wD643lr0Sfmbtt+tqnKJLS7E3LuuqVVpfxOFgnLRXvSeMbNuc+WYCz+oGpMqotP3pcDavNKp95J/wC1HxtNiZVclFmXwvK6iwdygcqy6CVZ8+YzlVBV3erS36jP66rrMoaI40xISaVMzlXl5VSiG+QUrcSscHgj7IAJsy86nMPP0mxK8/LOLUWjI0yZmWCAcfNupSoODj6QJz64kv5QCl1Sc6hJt+UkX3kGkU8b0MqUM+F6wIr8ze2olDYRT2Lsrsiyyna2yicebSgeoJBAEUtBKBxARklrLuWoSr1OepsvTZmTdCXEVOcap76QRuGWX1IUQdw9LGMcR1D6Y2hL6IWxKl5lxTMr4SlNOJcRuSSDhScgjPmDHEebn6zXXXKrWp+anX143TEy4pxascAblZPAjsx0VpKOmiygfKTV/wBtUGtoo42EcQoZ4JHEYJ55xwIbkDzHshpOByeI6rCeVBJPMM3n1Q1WCcnvGNw9avugi8VyUmUuKm1Sg1BKvgtSZelHthwrY4ClWD68GOfdT/JZ3N8PmPijVekmRLijL/CZB0O7M8Be04zjvjiOh7qgX3CefTP98N3Z44jTXuZ/aoudI/JY3z2+Vag//AvfjH2e/Jb3y6hlI1VoI8JGzPwJ7nkn1+2Lm3dZ2odYq03M0S7USUmpTTkuz4ziCD6AUFYBG0bCcDuVnkd401V0w1Imbfq0i5frtScmZuVcYYW+4wgyzb2VsKWn0klbaUAqHchXkqNfUSAbplCqP/6LC+T/APatQf8A4F78YO/Sf0UJ6d7pqF8V68G63V5iTVT5ZEqwpplllakqWo7iSpR2JHkBz64OmllAuS1rOYpN1z/wue+ETDwAeW+mXaW4pTbAcV6SwhJA3H+7ES7I7iIZXuFEpQX1GR55zAs1ppjtWLEimXmnG5iUdZWWWyopCuDg4Izg+cFAK4z6oRV57uf745OGYUtA0bXODqM6M7ckbRlXdE6VdNRqKXCudZm20uKWnA27AltJzuJzzjEV5szpN13qVxSchVtP6zS5Na9zs0/KkIQkc458z2HtIjs9U5VdQkXpJEyplTqdviJ5KefrH98eSm0RMjOzNRem3Zh991RSpajhtBAATjt2SOY8eBwbsFAIHSOkq/ueQXGze4AGnGmy3NJ5XZqA9Kn8j0w6c0Khzdr0lu7VSNwpl2qutbDe5KG1hZKMN4ByCOx4MV66jOj6sSE/JvaM21cVWkA0hC0PMBTod53k4QnCcYx7cx1Z3HyV39seGqSTlQQwlE/MSpZfQ/logb9pztVkfRMcsP8Ap7sM5rjM91AinEEGzdnQajYfCzG/xw+Gr1uzv6vpcjNE+kXUqqXnKfKTadbotCYcBmnBL4cWggghGQee3lFr19NGlaqW1YaWLvFuMzS6lv8ABT4pmSgIAz4eNuB6u8W8olHbo0qEGYcmJhefFeUTlZKirgeQyoxsSs4HOI3icE7EvziV7dKppAHvY6/ylIz45RKda4Ox9rkHrj0k6hSV6zbmmtmV6qUVxZ+CKMvlaGhgJCyABuzny7YiRdOvSRWJusOTes9Br1LpQStssMM4eUsAFCuUq9HOc/VHUOtUeYqTomJerzEqoS7rAQjlJK+yiPWP98R6qZIS9LlUyksVFKeVKUrJUrzPJjtJhzJB4c5GlZgfu932pJ/Uvi+lT2odOmkFdl5em1akXc5J0KX+C0kJG1RQcqJX82cncQPLgRS28ek7WuSuKbboVjVafk925D7cudqs84HA7du3eOzpXnvGhqlvPVCcemBWZltmYWx4jCfohLZyQnngk4/8454bBnDOc7yOddf3G6oVp73PZXR0mZjWUNOeT7PK55dPnSLSU0aZmdaqbcUrMOhtyUlpRghbawTvC/QPkEkc+cFC+unPT286NXKw5Trl/lVMS62aepbRDCdiAhkqHhnjAyfri68s01KMol2RhDY2pGScD6zH1DhPt+2OUv6cZXmTyvFkGg6gK4ArY89rMLvC9z6uxVHUD18rifO9KWvEtUHmJTTutPS6HSlDvwc+mnPfHti2GifS7Z9p2pJ1y9KTcbl4SD6pmVMu0oNJxhTYI2dweFcxd1VqOqdIcrk2thcw2842SclKOQnOe2cf194kMqy1KS7cpLkoaaSG0DJOAOwyeY9GJw31TQ3O5tEH7TRNcH4PIXJzc1an8Ln7qv0q2XXLDnp20aLc6rwm1CZeU8glpSiSpxKR4fc8BPP2xVmm9Juv8xPy8tOad1mVl3XUocdUwcNpJAKjj1DmO1Uyn4Qw6xvUgOIUjcngjIxkRpG7V+eaM5VZiZZbLqlNZKQorwB554APnz7OcsNhvpmludzrJP3G6vgfA4C9EkvlIOUChWgr+FU9srpusqyLZp1SkKRcTt3tyYZm3ChSpdSz9PaNg4wOI8l16TzV/wBNFKqlJrbUs28pwBEmtCipJVgYUnkc57Re8LO0ekTjzhbsD6XP1ww2F+nBGdzrJP3G9+B8DgLzsbkFWT7XH3VjpF1Olq98Jsi1KtU5J4kNASytzTYxgL9EekTntEk6eOkWvTFwuz2tNr3BIUlpKkeBLS6g86opylQO08A8GOptRpLs/ONTjVXnJUshPoNKG1e3f9IH+n/ZEOolKbo0miXS+466pKfGdWo5WoeePLuY6TReeMx2RfINEeiq9uYUqKXL01WvWptikydIuhih0lBbkApglxW8grKjs9Y44EVevfpK1olLgfRQLIqtRlSdwfRLqCSTngZA7DHl3zHZwrwcBX3xHqrbUzPTEy+xXZxgTDSmy1nKEhW0HHPqSfv8vOxReJgZZNCrOpPs9qgUKXOvp06RqUzR5+c1vt25WZp/aZWVk2ilTZGQrf6BzkYI5iWXX00yd0t1CoqpddbqIYMvTw4ydiUoRhrf6Hr74i/0nKsU6XEvLb9gJPpKKiSe5zH3K1d9xGI5R4bxzPmzuOatCbAr/iOL57WWtyuJs6/zRcU6t0oa8SlTmGKdp7WZqXQ4Q28JU4cHrHHY+UWe0b6TrSo1lS9QvqSuVF2S6xMy6JdkhpCgNyEqGzuDweYvSu1HvhK3FV6cWy4+08pkq4ARuISDnjJI+7zjesNNyzLcsyMNNJCUjdnAHtMMVhfqmhudzaIP2mia4Px2EezOBqR6XOPUjpRcrtPqNRoMtWVVedc8ZaHpb0CDkrCfQznsBFcZTpO17enmmHtOK0ywt1KFOGX+gkn6R+ocx2nnGlzUm/Kof8NTzakBYGdpIxnGefviPy1oFsy7c5Wpual2C4otrUfSUoJA5znAAPn5+UemltVDtLpjsqz7Tp8/IU65VXg1KfB5l3w/+D7lDaspGwcYPECDV7o5q7VAac09ptan3mtynmHZX01q42BGEjPnnmOoAWM98mPJVpJyqSSpNucUwStKt6QSeDnHBHf6482Gw30zSMznWSfuN78D4HAWWNyCtT7XHC0+kjXOer8pK1iwavISpXuW+5LnanHPPB74xFx6l0yadU2jLpNnUW6Jb43aQxVFuNbzsSARtBTjO7I+oxbmm238EnW5ycqL02WGW2mgVFO0pySojPOSf/8AeMb4Kz2V3+2EuF8srJczhlvQEgG/+Q5rjpQttwd0uTWsnR5qBLvsTNgW1VqpLpShAaMrh0KIytSsAAJBAA+uNfoj0i6jzV7Sjupli12QoTKkqmgljat1s8KCCQfSHB7euOsNwUV6uNNMt1SZkQjflbHCzlOBg54x9RjNNoiJGemai9NuzEw+6tYUokBCCANoHbskfdHaSPyMLLIsVY0P4Pa0RYpVDe0eo9h7pLT61rhRSjl5wTDCnV+IeONozjAHlGpX0+WddFvTk9d9o3Sq5RLuMySmUKQyg7T4ZKdh/SOTF6gvgEEws9vS59UeN2ADoG4fyPFVrmOY127c3yumHk+nqgDpWuq4qV7pF1zlKtMy1MsCsTss2vDb6ZZQDntHA4zFlNCek616PZ/wnVK2Lodr4cS/KolGVJQ0NgOxXofSC885IxF8GLMmGwpt+45x5tyZbmHEHgYTuO1OScAkg/ZElZbal2G5dnKW2khCU5JwBHfFYb6qPxlzm7atNH9xx2uL2ZxVkelQTUPpas65bGnJmkW/c7V5z+wqddbUWEHPpADZ22jAHripbfSdr6Z9LLmnFaRLl0JLnwc5CM4z93Mdqp9lc3JPyjb/AISnmygOYyUkjvjI/viPytnqZdl0Ttbm5uXYLq/CWSCVKxjnOcAZHt47ecw+G+mDgHOdZJ+43V8DoDgL0SS+Ug5QKFaCv4VTKw+mOxbSsiRnqlQrlevKUaKXXmmlBgndjIGwcbPI+cQXqA6XrQm7Yll6Q065HKilbj883ONKUXjt9FKB4Y53FX2R0r34wB/5x4a3IO1anuSKJ52TUsgh5vO5OD5ciPOz9OySiYSv3JouJGoqq6HA4WInCJjmAXm5OpHrpcW7Z6X9X52uycrVrNq0hKuL9N9yVXtRjkZ4PHHqi56OnzSKjSci3b1JupLk+lMrWlFtRIZKfT2ZRjO4ccdieIuJTrbVJTaJubqj84WW222ErURsKc5Ueee/nnHt8t3vOe/H18R2xGE+oe15e5uW9AaBscjmuOlzy/cH9ft+Vy06jelNnxZKc0RoNfnJdttLb0tNMlTynFEkqGEJwkAD7TED0g6WL/mb1knNQbTrNPo7DiXJlQl1AuNbgFpSdpwrByOPKOuVfpDtbZZabqTsp4KyslAJKxjG3hQ45/uhtLo3wCcmqg/OOzExMOrKVKUfQbOMJx24CRzG4cN4YBBncdKsm3e77XWV/mcXUBfA0H4VLbm6e9MTL/yZtGn3NKUaYPwiaW8ypay6g+jjKOBjGfqismrXStqHJXAt+yreqVXkH3FhkNyqt7bScbd+Ej0jk/dHYIL9pzHjrEg5V5Bci3POyqlLSoPNH004UDxz+I9h7RrD4f6eIRBxdXLjZPs8rm1oa0NXKrp66Ua9OXMia1btquU+jI3omWm5ZSXVAoJQUkpPG7v2g43b022VVAxbtJk7nRRaZlUkSwFLJWMrzuR23duIvRSJNVKpsrTlTj82ZZsNl94guOY/SVjjMe0LOPpH++M/Tf1/PmdtVX9u93Xfz0pl+7Nf/i4u3h0p60U6uus0myqpUpdY8UPsSi9mTn0ew7QaunXpLpTlFnZvWq3rlln3SFSsvLS+1aCCQrdlJPIwQcx0fumgPXJKsy7VZmqcWnC54kvncrjG3v29f/h3jct5bQlPiEkJAJPnjzhicP8AVRGLMW3y00fwUe3O3LdelRWq2jVqdSm6HK0GsFtDqAzmScUfCRtAKlJTgHA8+5gU6o9NYq1Cdcsul1xueWpx59uYl3Fl7gKCUDwxg78857R1EDhxkExneRjCz9WY7htClu1xLoPS5rHO1mUlqtaFTkZRbmHJlUospaHkSNvbOIt2jp10stqiS7tru3hMVacYRK1L4TKKDQQpPzhRhoc7u3si8FIt9+l1idqq65NzKZvOJdZPhtZVn0eT/v6u0borJAys4+uOEuGMz2PzuGU3QNA++wsFtkG9lyc1o6WaoqSYmdNqXWJ3wUpCpZ2VX4illWFK+gBtCcefeIbpV0rahTl5yQvu2qtSqU2tK3nRLKJUjIC0p9E+ltJI47iOyT25xtbSXVp3pKdyVcjI7j2xp7aoL1uSzsq5W52olxQUHJo5WABj6v6hwB9cd3NLgRdLRVJbg6ctLpCXVbtnKuk0qfHizi5iWJWHEHLYT82ODxniK26zdLV7ytcM3YlCqlUkHVlDKPgqvEabCRyv0RyVFUdgy4RwMx4a1IuVelTVNTUH5JUw2W/HYOHG8+YJ/wB/745YeA4eMRlxdXLtSfeyjRlFbrk5089LtVdutM7rBbtZkKK1uQ+yiXWl1wFB2lB2nsoDI9UHS5OnvTyoKFv0WUuSVoUmsPSgLClL3qHzmdyO2e32xeyjyLlJpjVPcnXJpbZUS6vIKiVE85J9frj2b1Z3BX9cZ+l/1H1GZ21Vf273dbX89KZQHZv/AIuMV+dLerMjXnE2/a9Qqsq6PF8ZmVVtSST6P0RyABnjzgu9OHSXS35edmtb6bcMi06j5iWlZcpcS6Fd1ZQfRKe3MdLa/Sna5KNyqKxO08tupd8SVUkKVj9E5B4j1Sba5WUYlVTLjvhNpb8RZypeBjJ9pjWIhOIiMYcW3y00R6KObmFKgd59N9vV5iZFL+PEuU6WXJUkPS+UlCSfDLh2e05x6oqlW+l/WySq0zJyli1acl23NqZlqVVsWPWOO0dsUuf6Rz9caW4LefrsxJTDVfn5L4Gvf4bChsd5B9Idz245x7DHRrMjQ27paXPzRHpEs1FlrntUF3JKV1DviyUvKy+AlOwFIXlsnd4mR37YhupnS5M3dKVGtUkVAVmeKCUPSwDYA4VztznAGOe8dIfEJVnJGfUYcFn/AD/P1xxiwxikfIXk5jsToPgaaBZa3KSb3XEVHTFrqqdSw7prXks+JtLnwNX0c4Kvu5i5GlXS7ZtnWrSbgrFMr7l6yG5zDTQEuV5ITxsBxsPIznOYuzM289MXLL3H8eTyEMICDJ5HgKwFDOO+fSyc57DtG63YzhUMThfqQ0Z3Nog/aauuD2DyOUe3PWpHpRDSiUfk7HZYmGHGnCt0lCklJGfYY5y6p9MGs89XKo7aulFyrL0886iYaqCFNOJUtRylOQRnIjqYFnvnn1mFnGOfszHctulsGlxjn+j7qeqLoce0hru5CAkqKUnPtOD3jeWr0mdRJrVEmKhpRXWpOTmGVKX4QGwJWCVEEg+UdbTRXTXBWfjSYCByZb9Anbt9f+/9cbMqBx6RhlS1z96sdDNUb21Bm6zaOnNy1NC6bKNom5KcQ20HEtgFJbJBJHnFZZ/pF6np0oQ9o/cThSVELU2FEg+s5js5kRqa9R3KwGkN1F2V8IknYCdwPkcEffEya2rmtce5fpI6kRKokXNI7gDbSypeGMEk9u/1R1F6YLZrVmaH2zbVfpz1Pn5GXLb0u+natB3HgiCluSnGBGCrHOcRoNpQm04nAzkQxXfKjjiIRekhqtN3laczY9epElbku+6q45ebZ3vTLRxtDZxx+l5jkg8xlVP1ICnCKzLrT4wKCAlIDXq7Zz3/AN+1JpRTUnAxDdy/XHmp7cyxJNtT0wp94FW5ZIyeTjtjyxHo3H/O/rgiE6tTLiCyfCkjkn+aV70ZGp1xcDwZHn9kr3oUKMWgThqZcIH5mS7/AKpXvRkam3EB+akv4SvehQopROTqXcKiAWpLn9mr3od8pdxZ/Nyff9UfehQolosjUq4cHDUkOf1R96H/ACl3Ec/NyfH7I/jChRbRIak3ER9CT/hH8YwrUq4u2yU/hH8YUKFokrUu4v1cnx+yP4w1WpVw7iPCk/4SvehQoFFj5S7i5HhyfbP5tXvQz5TbiOfmpLuP5tXvQoUAUS+Uu4SR8zJfwle9DVam3CFDDMl2/VK96FChaJh1OuIEHwZL+Er3ob8pdw4z4Ulz+yV70KFC0STqbcQ58GS/hK96Hp1OuL9VJcj9Ur3oUKFonJ1MuHb+Zkv4Svehw1MuIj81Jfwle9ChQtE4amXDn81Jfw1e9CGplxYB8OT4P6pXvQoUVE5Opdw7QfCku/6pXvQ46l3Fz83J8fsj+MKFEtEhqVcRH0JPg4/NH8YR1KuLONknwcfmj70KFAIkdS7iwT4cnwf1R96GL1LuEEgNSXb9UfehQolosfKXcRJBak+B+rV70Y+Uy4inPhSXB/VK96FCi2iadTLh/UyXb9Ur3owrU24gc+DJdv1SvehQollE06nXFtz4Mj2/VK96Pn8ptxA8MyX8JXvQoUAUTk6mXDkfMyXl/NK96HJ1OuIjBaku36pXvQoULRPGplxbR81Jc5/mle9GRqZcWQPCkvP+aPvQoUW0WU6mXEQVeFJZAz+aV70O+Uu4v1cn5/zR96FCiWicNS7hAGGpP+Er3oz8pdxf5knx+yP4woULRZGpVxHgok/4R/GF8pVxK4Lcn2/VH3oUKFlE06mXF+rku4H5o+9DVal3EM4akue/zR96FCi2ix8plxdvDk+P2avehvym3Fx81Jdv1SvehQoWiXymXCefBkuP2SvehqtS7hSSQzJfwle9ChQBRMVqdcWT8zJdv1Svehp1NuIHhqS5x/NK96FCiWUWRqbcQBPgyXb9Ur3ocNTrix+Zke36pXvQoULROTqZcO0fMyXr/NK96HDUy4jj5qS/hK96FChZRORqZcKjy1Jd/wBWr3oQ1MuL6Xhyfft4R96FChaJ3yl3DgENSX8I+9DjqXcWPzcnx+yPvQoUAUSGplxnPoSfH7I+9GflKuJWCUSfI/VH8YUKFosHUq4T3bk/4R96Gq1LuJOcNSXP7I+9ChQsomq1MuIA/NSfH7NXvQ0amXEUg+FJd/1SvehQotosHU24gT8zI8fsle9GDqbcQJIakuP2SvehQoWiYdTriwfmZL+Er3oYdTLiB/NSXP7JXvQoUQIl8ptxJzhmS/hK96PqNTbiII8GS9f5pXvQoUUInJ1MuEpA8GS/hK96MjUy4j3akv4avehQoWiyNS7hJ/NSXAz+bV70Z+U24/RPhyXPH5o+9ChQRPGpVwhIw1J8H9UfejJ1LuLGdkn3x+aP4woUSyiR1LuLJOyT4OPzR/GF8pVwnOW5P+EfehQoqLB1MuI925Lv+qPvQ1WpdwhRAakh/wDtH3oUKJaJfKXcJKvm5Pj9mr3ob8plxbc+FJcfsle9ChQsomK1MuIHPgyX8JXvRgam3FuPzUl/CV70KFEJRMOptwnI8CR7fqle9C+U24f1Ej/CV70KFGgUX//Z;strokeColor=none;points=[[0.1,0.35,0],[0.13,0.35,0],[0.17,0.35,0],[0.2,0.35,0],[0.23,0.35,0],[0.26,0.35,0],[0.1,0.65,0],[0.13,0.65,0],[0.17,0.65,0],[0.2,0.65,0],[0.23,0.65,0],[0.26,0.65,0],[0.3,0.35,0],[0.33,0.35,0],[0.37,0.35,0],[0.4,0.35,0],[0.43,0.35,0],[0.43,0.65,0],[0.4,0.65,0],[0.37,0.65,0],[0.33,0.65,0],[0.3,0.65,0],[0.46,0.35,0],[0.5,0.35,0],[0.53,0.35,0],[0.57,0.35,0],[0.6,0.35,0],[0.5,0.65,0],[0.46,0.65,0],[0.53,0.65,0],[0.57,0.65,0],[0.6,0.65,0],[0.63,0.35,0],[0.63,0.65,0],[0.66,0.65,0],[0.66,0.35,0],[0.7,0.35,0],[0.7,0.65,0],[0.73,0.35,0],[0.73,0.65,0],[0.76,0.35,0],[0.76,0.65,0],[0.79,0.35,0],[0.83,0.35,0],[0.86,0.35,0],[0.86,0.65,0],[0.83,0.65,0],[0.79,0.65,0],[0.9,0.3,0],[0.94,0.31,0],[0.94,0.68,0],[0.9,0.68,0]];labelBackgroundColor=none;rounded=0;html=1;whiteSpace=wrap;metaEdit=1;" vertex="1" parent="CtDVHUoxuWN891I3hY8o-1">
          <mxGeometry x="-715" y="51" width="390" height="37" as="geometry" />
        </mxCell>
        <mxCell id="CtDVHUoxuWN891I3hY8o-3" value="&lt;div style=&quot;&quot;&gt;&lt;font style=&quot;font-family: Calibri; direction: ltr; letter-spacing: 0px; line-height: 120%; opacity: 1;&quot;&gt;&lt;font style=&quot;font-size: 17px;&quot; color=&quot;#ffffff&quot;&gt;&lt;b&gt;UniFi Switch&lt;/b&gt;&lt;/font&gt;&lt;br&gt;&lt;/font&gt;&lt;/div&gt;" style="text;vsdxID=5;fillColor=none;gradientColor=none;aspect=fixed;strokeColor=none;points=[[0.1,0.35,0],[0.13,0.35,0],[0.17,0.35,0],[0.2,0.35,0],[0.23,0.35,0],[0.26,0.35,0],[0.1,0.65,0],[0.13,0.65,0],[0.17,0.65,0],[0.2,0.65,0],[0.23,0.65,0],[0.26,0.65,0],[0.3,0.35,0],[0.33,0.35,0],[0.37,0.35,0],[0.4,0.35,0],[0.43,0.35,0],[0.43,0.65,0],[0.4,0.65,0],[0.37,0.65,0],[0.33,0.65,0],[0.3,0.65,0],[0.46,0.35,0],[0.5,0.35,0],[0.53,0.35,0],[0.57,0.35,0],[0.6,0.35,0],[0.5,0.65,0],[0.46,0.65,0],[0.53,0.65,0],[0.57,0.65,0],[0.6,0.65,0],[0.63,0.35,0],[0.63,0.65,0],[0.66,0.65,0],[0.66,0.35,0],[0.7,0.35,0],[0.7,0.65,0],[0.73,0.35,0],[0.73,0.65,0],[0.76,0.35,0],[0.76,0.65,0],[0.79,0.35,0],[0.83,0.35,0],[0.86,0.35,0],[0.86,0.65,0],[0.83,0.65,0],[0.79,0.65,0],[0.9,0.3,0],[0.94,0.31,0],[0.94,0.68,0],[0.9,0.68,0]];labelBackgroundColor=none;rounded=0;html=1;whiteSpace=wrap;verticalAlign=top;align=center;;html=1;" vertex="1" parent="CtDVHUoxuWN891I3hY8o-2">
          <mxGeometry y="37" width="390" as="geometry" />
        </mxCell>
        <mxCell id="CtDVHUoxuWN891I3hY8o-4" value="pfsense VM" style="swimlane;whiteSpace=wrap;html=1;strokeColor=#FFFFFF;fontFamily=Helvetica;fontSize=17;fontColor=#FFFFFF;labelBackgroundColor=none;fillColor=#09555B;align=center;verticalAlign=middle;fontStyle=1;gradientColor=none;" vertex="1" parent="CtDVHUoxuWN891I3hY8o-1">
          <mxGeometry x="-1060" y="45" width="326" height="249" as="geometry" />
        </mxCell>
        <mxCell id="CtDVHUoxuWN891I3hY8o-5" value="" style="group" vertex="1" connectable="0" parent="CtDVHUoxuWN891I3hY8o-4">
          <mxGeometry x="28.5" y="37" width="144" height="36" as="geometry" />
        </mxCell>
        <mxCell id="CtDVHUoxuWN891I3hY8o-6" value="" style="aspect=fixed;perimeter=ellipsePerimeter;html=1;align=center;fontSize=12;verticalAlign=top;shadow=0;dashed=0;image;image=img/lib/cumulus/switch_bare_metal_empty.svg;rounded=0;sketch=0;hachureGap=4;fillColor=#F45B69;strokeColor=#028090;fontColor=#E4FDE1;labelBackgroundColor=#114B5F;connectable=0;" vertex="1" parent="CtDVHUoxuWN891I3hY8o-5">
          <mxGeometry width="144" height="36" as="geometry" />
        </mxCell>
        <mxCell id="CtDVHUoxuWN891I3hY8o-7" value="" style="shape=image;imageAspect=0;aspect=fixed;verticalLabelPosition=bottom;verticalAlign=top;rounded=0;labelBackgroundColor=none;sketch=0;hachureGap=4;fontSize=30;fontColor=#1A1A1A;strokeColor=#028090;fillColor=#F45B69;image=https://upload.wikimedia.org/wikipedia/commons/thumb/b/b9/PfSense_logo.png/1200px-PfSense_logo.png;" vertex="1" parent="CtDVHUoxuWN891I3hY8o-5">
          <mxGeometry x="23" y="11.25" width="45.9" height="13.5" as="geometry" />
        </mxCell>
        <mxCell id="CtDVHUoxuWN891I3hY8o-8" value="&lt;font style=&quot;font-size: 16px;&quot;&gt;&lt;b style=&quot;&quot;&gt;&lt;font style=&quot;&quot; color=&quot;#ffffff&quot;&gt;VIF#0 &lt;/font&gt;&lt;font style=&quot;&quot; color=&quot;#ff0000&quot;&gt;XN0&lt;/font&gt;&lt;font style=&quot;&quot; color=&quot;#ffffff&quot;&gt;&amp;nbsp;&lt;/font&gt;&lt;/b&gt;&lt;b style=&quot;&quot;&gt;&lt;font style=&quot;&quot; color=&quot;#ffffff&quot;&gt;WAN&amp;nbsp;&amp;nbsp;&lt;/font&gt;&lt;font style=&quot;&quot; color=&quot;#80ff00&quot;&gt;CGNAT3434&amp;nbsp;&lt;/font&gt;&lt;/b&gt;&lt;/font&gt;" style="text;strokeColor=none;fillColor=none;align=left;verticalAlign=middle;spacingLeft=4;spacingRight=4;overflow=hidden;points=[[0,0.5],[1,0.5]];portConstraint=eastwest;rotatable=0;whiteSpace=wrap;html=1;fontFamily=Helvetica;fontSize=13;fontColor=default;labelBackgroundColor=#09555B;" vertex="1" parent="CtDVHUoxuWN891I3hY8o-4">
          <mxGeometry x="3.5" y="77" width="319" height="30" as="geometry" />
        </mxCell>
        <mxCell id="CtDVHUoxuWN891I3hY8o-9" value="&lt;font style=&quot;font-size: 16px;&quot;&gt;&lt;b style=&quot;&quot;&gt;&lt;font style=&quot;&quot; color=&quot;#ffffff&quot;&gt;VIF#1 &lt;/font&gt;&lt;font style=&quot;&quot; color=&quot;#ff0000&quot;&gt;XN1&lt;/font&gt;&lt;font style=&quot;&quot; color=&quot;#ffffff&quot;&gt;&amp;nbsp;&lt;/font&gt;&lt;/b&gt;&lt;b style=&quot;&quot;&gt;&lt;font style=&quot;&quot; color=&quot;#ffffff&quot;&gt;LAB101&amp;nbsp; &amp;nbsp;&lt;/font&gt;&lt;font style=&quot;&quot; color=&quot;#80ff00&quot;&gt;LAB 101&lt;/font&gt;&lt;/b&gt;&lt;/font&gt;" style="text;strokeColor=none;fillColor=none;align=left;verticalAlign=middle;spacingLeft=4;spacingRight=4;overflow=hidden;points=[[0,0.5],[1,0.5]];portConstraint=eastwest;rotatable=0;whiteSpace=wrap;html=1;fontFamily=Helvetica;fontSize=13;fontColor=default;labelBackgroundColor=#09555B;" vertex="1" parent="CtDVHUoxuWN891I3hY8o-4">
          <mxGeometry x="3.5" y="104" width="234.5" height="30" as="geometry" />
        </mxCell>
        <mxCell id="CtDVHUoxuWN891I3hY8o-10" value="&lt;font style=&quot;font-size: 16px;&quot;&gt;&lt;b style=&quot;&quot;&gt;&lt;font style=&quot;&quot; color=&quot;#ffffff&quot;&gt;VIF#2 &lt;/font&gt;&lt;font style=&quot;&quot; color=&quot;#ff0000&quot;&gt;XN2&amp;nbsp;&lt;/font&gt;&lt;/b&gt;&lt;b style=&quot;&quot;&gt;&lt;font style=&quot;&quot; color=&quot;#ffffff&quot;&gt;LAB102&amp;nbsp; &amp;nbsp;&lt;/font&gt;&lt;font style=&quot;&quot; color=&quot;#80ff00&quot;&gt;LAB 102&lt;/font&gt;&lt;/b&gt;&lt;/font&gt;" style="text;strokeColor=none;fillColor=none;align=left;verticalAlign=middle;spacingLeft=4;spacingRight=4;overflow=hidden;points=[[0,0.5],[1,0.5]];portConstraint=eastwest;rotatable=0;whiteSpace=wrap;html=1;fontFamily=Helvetica;fontSize=13;fontColor=default;labelBackgroundColor=#09555B;" vertex="1" parent="CtDVHUoxuWN891I3hY8o-4">
          <mxGeometry x="3.5" y="131" width="234.5" height="30" as="geometry" />
        </mxCell>
        <mxCell id="CtDVHUoxuWN891I3hY8o-11" value="&lt;font style=&quot;font-size: 16px;&quot;&gt;&lt;b style=&quot;&quot;&gt;&lt;font style=&quot;&quot; color=&quot;#ffffff&quot;&gt;VIF#3 &lt;/font&gt;&lt;font style=&quot;&quot; color=&quot;#ff0000&quot;&gt;XN3&amp;nbsp;&lt;/font&gt;&lt;/b&gt;&lt;b style=&quot;&quot;&gt;&lt;font style=&quot;&quot; color=&quot;#ffffff&quot;&gt;LAB103&amp;nbsp; &amp;nbsp;&lt;/font&gt;&lt;font style=&quot;&quot; color=&quot;#80ff00&quot;&gt;LAB 103&lt;/font&gt;&lt;/b&gt;&lt;/font&gt;" style="text;strokeColor=none;fillColor=none;align=left;verticalAlign=middle;spacingLeft=4;spacingRight=4;overflow=hidden;points=[[0,0.5],[1,0.5]];portConstraint=eastwest;rotatable=0;whiteSpace=wrap;html=1;fontFamily=Helvetica;fontSize=13;fontColor=default;labelBackgroundColor=#09555B;" vertex="1" parent="CtDVHUoxuWN891I3hY8o-4">
          <mxGeometry x="3.5" y="158" width="232.5" height="30" as="geometry" />
        </mxCell>
        <mxCell id="CtDVHUoxuWN891I3hY8o-12" value="&lt;font style=&quot;font-size: 16px;&quot;&gt;&lt;b style=&quot;&quot;&gt;&lt;font style=&quot;&quot; color=&quot;#ffffff&quot;&gt;VIF#4 &lt;/font&gt;&lt;font style=&quot;&quot; color=&quot;#ff0000&quot;&gt;XN4&amp;nbsp;&lt;/font&gt;&lt;/b&gt;&lt;b style=&quot;&quot;&gt;&lt;font style=&quot;&quot; color=&quot;#ffffff&quot;&gt;WANLAB1&amp;nbsp; &amp;nbsp;&lt;/font&gt;&lt;font style=&quot;&quot; color=&quot;#80ff00&quot;&gt;WANLAB1&lt;/font&gt;&lt;/b&gt;&lt;/font&gt;" style="text;strokeColor=none;fillColor=none;align=left;verticalAlign=middle;spacingLeft=4;spacingRight=4;overflow=hidden;points=[[0,0.5],[1,0.5]];portConstraint=eastwest;rotatable=0;whiteSpace=wrap;html=1;fontFamily=Helvetica;fontSize=13;fontColor=default;labelBackgroundColor=#09555B;" vertex="1" parent="CtDVHUoxuWN891I3hY8o-4">
          <mxGeometry x="3.5" y="185" width="319" height="30" as="geometry" />
        </mxCell>
        <mxCell id="CtDVHUoxuWN891I3hY8o-13" value="&lt;font style=&quot;font-size: 16px;&quot;&gt;&lt;b style=&quot;&quot;&gt;&lt;font style=&quot;&quot; color=&quot;#ffffff&quot;&gt;VIF#5 &lt;/font&gt;&lt;font style=&quot;&quot; color=&quot;#ff0000&quot;&gt;XN5&amp;nbsp;&lt;/font&gt;&lt;/b&gt;&lt;b style=&quot;&quot;&gt;&lt;font style=&quot;&quot; color=&quot;#ffffff&quot;&gt;WANLAB2&amp;nbsp; &amp;nbsp;&lt;/font&gt;&lt;font style=&quot;&quot; color=&quot;#80ff00&quot;&gt;WANLAB2&lt;/font&gt;&lt;/b&gt;&lt;/font&gt;" style="text;strokeColor=none;fillColor=none;align=left;verticalAlign=middle;spacingLeft=4;spacingRight=4;overflow=hidden;points=[[0,0.5],[1,0.5]];portConstraint=eastwest;rotatable=0;whiteSpace=wrap;html=1;fontFamily=Helvetica;fontSize=13;fontColor=default;labelBackgroundColor=#09555B;" vertex="1" parent="CtDVHUoxuWN891I3hY8o-4">
          <mxGeometry x="3.5" y="211" width="319" height="30" as="geometry" />
        </mxCell>
        <mxCell id="CtDVHUoxuWN891I3hY8o-21" value="" style="shape=image;verticalLabelPosition=bottom;labelBackgroundColor=default;verticalAlign=top;aspect=fixed;imageAspect=0;image=https://cdn.stratuscloud.co.za/wp-content/uploads/2023/05/Netgate-6100-Max-Back-Angled.png;points=[[0,0.75,0,0,0],[0,1,0,0,0],[0.15,0.48,0,0,0],[0.25,1,0,0,0],[0.42,0.57,0,0,0],[0.5,1,0,0,0],[0.75,1,0,0,0],[1,0.25,0,0,0],[1,0.5,0,0,0],[1,0.75,0,0,0],[1,1,0,0,0]];" vertex="1" parent="CtDVHUoxuWN891I3hY8o-1">
          <mxGeometry x="-693" y="122" width="117" height="117" as="geometry" />
        </mxCell>
        <mxCell id="v8mOoNrbZ18N-C4yxZs2-2" style="edgeStyle=orthogonalEdgeStyle;shape=connector;curved=0;rounded=1;orthogonalLoop=1;jettySize=auto;html=1;exitX=0.1;exitY=0.65;exitDx=0;exitDy=0;exitPerimeter=0;entryX=0.15;entryY=0.48;entryDx=0;entryDy=0;entryPerimeter=0;strokeColor=#FF0000;strokeWidth=3;align=center;verticalAlign=middle;fontFamily=Helvetica;fontSize=11;fontColor=default;labelBackgroundColor=default;endArrow=none;endFill=0;fillColor=#d80073;" edge="1" parent="CtDVHUoxuWN891I3hY8o-1" source="CtDVHUoxuWN891I3hY8o-2" target="CtDVHUoxuWN891I3hY8o-21">
          <mxGeometry relative="1" as="geometry" />
        </mxCell>
        <mxCell id="v8mOoNrbZ18N-C4yxZs2-5" value="WANLAB1" style="edgeLabel;html=1;align=center;verticalAlign=middle;resizable=0;points=[];strokeColor=#BAC8D3;fontFamily=Helvetica;fontSize=11;fontColor=#FFFFFF;labelBackgroundColor=none;fillColor=#09555B;fontStyle=1" vertex="1" connectable="0" parent="v8mOoNrbZ18N-C4yxZs2-2">
          <mxGeometry x="0.1484" y="-2" relative="1" as="geometry">
            <mxPoint x="-27" y="-9" as="offset" />
          </mxGeometry>
        </mxCell>
        <mxCell id="v8mOoNrbZ18N-C4yxZs2-3" style="edgeStyle=orthogonalEdgeStyle;shape=connector;curved=0;rounded=1;orthogonalLoop=1;jettySize=auto;html=1;exitX=0.13;exitY=0.65;exitDx=0;exitDy=0;exitPerimeter=0;entryX=0.42;entryY=0.57;entryDx=0;entryDy=0;entryPerimeter=0;strokeColor=#80FF00;strokeWidth=3;align=center;verticalAlign=middle;fontFamily=Helvetica;fontSize=11;fontColor=default;labelBackgroundColor=default;endArrow=none;endFill=0;fillColor=#60a917;" edge="1" parent="CtDVHUoxuWN891I3hY8o-1" source="CtDVHUoxuWN891I3hY8o-2" target="CtDVHUoxuWN891I3hY8o-21">
          <mxGeometry relative="1" as="geometry" />
        </mxCell>
        <mxCell id="v8mOoNrbZ18N-C4yxZs2-4" value="LAB105" style="edgeLabel;html=1;align=center;verticalAlign=middle;resizable=0;points=[];strokeColor=#BAC8D3;fontFamily=Helvetica;fontSize=11;fontColor=#FFFFFF;labelBackgroundColor=none;fillColor=#09555B;fontStyle=1" vertex="1" connectable="0" parent="v8mOoNrbZ18N-C4yxZs2-3">
          <mxGeometry x="-0.4399" relative="1" as="geometry">
            <mxPoint x="39" y="29" as="offset" />
          </mxGeometry>
        </mxCell>
        <mxCell id="v8mOoNrbZ18N-C4yxZs2-6" value="" style="shape=image;verticalLabelPosition=bottom;labelBackgroundColor=default;verticalAlign=top;aspect=fixed;imageAspect=0;image=https://cdn.stratuscloud.co.za/wp-content/uploads/2023/05/Netgate-6100-Max-Back-Angled.png;points=[[0,0.75,0,0,0],[0,1,0,0,0],[0.15,0.48,0,0,0],[0.25,1,0,0,0],[0.42,0.57,0,0,0],[0.5,1,0,0,0],[0.75,1,0,0,0],[1,0.25,0,0,0],[1,0.5,0,0,0],[1,0.75,0,0,0],[1,1,0,0,0]];" vertex="1" parent="CtDVHUoxuWN891I3hY8o-1">
          <mxGeometry x="-488" y="122" width="117" height="117" as="geometry" />
        </mxCell>
        <mxCell id="v8mOoNrbZ18N-C4yxZs2-7" style="edgeStyle=orthogonalEdgeStyle;shape=connector;curved=0;rounded=1;orthogonalLoop=1;jettySize=auto;html=1;exitX=0.7;exitY=0.65;exitDx=0;exitDy=0;exitPerimeter=0;entryX=0.15;entryY=0.48;entryDx=0;entryDy=0;entryPerimeter=0;strokeColor=#FF0000;strokeWidth=3;align=center;verticalAlign=middle;fontFamily=Helvetica;fontSize=11;fontColor=default;labelBackgroundColor=default;endArrow=none;endFill=0;fillColor=#d80073;" edge="1" parent="CtDVHUoxuWN891I3hY8o-1" source="CtDVHUoxuWN891I3hY8o-2" target="v8mOoNrbZ18N-C4yxZs2-6">
          <mxGeometry relative="1" as="geometry" />
        </mxCell>
        <mxCell id="v8mOoNrbZ18N-C4yxZs2-10" value="&lt;b&gt;WANLAB2&lt;/b&gt;" style="edgeLabel;html=1;align=center;verticalAlign=middle;resizable=0;points=[];strokeColor=#BAC8D3;fontFamily=Helvetica;fontSize=11;fontColor=#FFFFFF;labelBackgroundColor=none;fillColor=#09555B;" vertex="1" connectable="0" parent="v8mOoNrbZ18N-C4yxZs2-7">
          <mxGeometry x="0.3436" y="-1" relative="1" as="geometry">
            <mxPoint x="-31" y="-3" as="offset" />
          </mxGeometry>
        </mxCell>
        <mxCell id="v8mOoNrbZ18N-C4yxZs2-8" style="edgeStyle=orthogonalEdgeStyle;shape=connector;curved=0;rounded=1;orthogonalLoop=1;jettySize=auto;html=1;exitX=0.73;exitY=0.65;exitDx=0;exitDy=0;exitPerimeter=0;entryX=0.42;entryY=0.57;entryDx=0;entryDy=0;entryPerimeter=0;strokeColor=#80FF00;strokeWidth=3;align=center;verticalAlign=middle;fontFamily=Helvetica;fontSize=11;fontColor=default;labelBackgroundColor=default;endArrow=none;endFill=0;fillColor=#60a917;" edge="1" parent="CtDVHUoxuWN891I3hY8o-1" source="CtDVHUoxuWN891I3hY8o-2" target="v8mOoNrbZ18N-C4yxZs2-6">
          <mxGeometry relative="1" as="geometry" />
        </mxCell>
        <mxCell id="v8mOoNrbZ18N-C4yxZs2-9" value="&lt;font color=&quot;#ffffff&quot;&gt;&lt;b&gt;LAB106&lt;/b&gt;&lt;/font&gt;" style="edgeLabel;html=1;align=center;verticalAlign=middle;resizable=0;points=[];strokeColor=#BAC8D3;fontFamily=Helvetica;fontSize=11;fontColor=default;labelBackgroundColor=none;fillColor=#09555B;" vertex="1" connectable="0" parent="v8mOoNrbZ18N-C4yxZs2-8">
          <mxGeometry x="0.0998" y="1" relative="1" as="geometry">
            <mxPoint x="23" y="-3" as="offset" />
          </mxGeometry>
        </mxCell>
      </root>
    </mxGraphModel>
  </diagram>
</mxfile>
